<svg width="131" height="127" viewBox="0 0 131 127" fill="none" xmlns="http://www.w3.org/2000/svg">
<path d="M122.199 70.0392C123.016 65.2869 123.016 61.3261 122.199 56.5738L130.375 48.6529L122.199 28.8508H110.752C108.299 25.6822 104.211 22.5142 100.94 19.3455V8.25589L80.5006 0.33493L72.3245 8.25589C67.4191 7.46372 63.3307 7.46372 58.4253 8.25589L50.2492 0.33493L29.8093 8.25589V19.3455C26.5386 21.7221 23.2686 25.6822 19.9978 28.8508H8.55099L0.374878 48.6529L8.55099 56.5738C7.7333 61.3261 7.7333 65.2869 8.55099 70.0392L0.374878 77.9602L8.55099 97.7622H19.9978C22.4509 100.931 26.5386 104.099 29.8093 107.268V118.357L50.2492 126.278L58.4253 118.357C63.3307 119.149 67.4191 119.149 72.3245 118.357L80.5006 126.278L100.94 118.357V107.268C104.211 104.891 107.481 100.931 110.752 97.7622H122.199L130.375 77.9602L122.199 70.0392ZM56.7899 86.6733C42.8908 81.1289 36.3501 66.0791 42.0731 53.4051C47.7961 39.9397 63.3307 33.6031 76.4129 39.1476C90.312 44.692 96.8528 59.7417 91.1297 72.4157C85.4059 85.8811 69.8714 92.2178 56.7899 86.6733Z" fill="#C8E3FF"/>
</svg>
