<svg width="33" height="33" viewBox="0 0 33 33" fill="none" xmlns="http://www.w3.org/2000/svg">
<path d="M30.1706 18.2877C30.3719 17.0803 30.3719 16.0739 30.1706 14.8664L32.1832 12.8538L30.1706 7.82247H27.3529C26.7491 7.01736 25.7429 6.21245 24.9378 5.40734V2.58965L19.9064 0.577072L17.8938 2.58965C16.6864 2.38837 15.68 2.38837 14.4725 2.58965L12.4599 0.577072L7.42857 2.58965V5.40734C6.62346 6.01117 5.81854 7.01736 5.01344 7.82247H2.19575L0.183167 12.8538L2.19575 14.8664C1.99447 16.0739 1.99447 17.0803 2.19575 18.2877L0.183167 20.3003L2.19575 25.3317H5.01344C5.61727 26.1368 6.62346 26.9417 7.42857 27.7468V30.5645L12.4599 32.5771L14.4725 30.5645C15.68 30.7658 16.6864 30.7658 17.8938 30.5645L19.9064 32.5771L24.9378 30.5645V27.7468C25.7429 27.143 26.5478 26.1368 27.3529 25.3317H30.1706L32.1832 20.3003L30.1706 18.2877ZM13.8689 22.7153C10.4475 21.3065 8.83751 17.4826 10.2463 14.2624C11.655 10.8411 15.4789 9.23103 18.6991 10.6398C22.1205 12.0485 23.7305 15.8724 22.3217 19.0927C21.1141 22.514 17.2902 24.1242 13.8689 22.7153Z" fill="#C8E3FF"/>
</svg>
