<svg width="40" height="40" viewBox="0 0 40 40" fill="none" xmlns="http://www.w3.org/2000/svg">
<path d="M37.4843 22.1383C37.7359 20.629 37.7359 19.371 37.4843 17.8617L40 15.3459L37.4843 9.05675H33.9622C33.2074 8.05037 31.9496 7.04422 30.9432 6.03784V2.51572L24.6541 0L22.1383 2.51572C20.629 2.26413 19.371 2.26413 17.8617 2.51572L15.3459 0L9.05675 2.51572V6.03784C8.05037 6.79263 7.04422 8.05037 6.03784 9.05675H2.51573L0 15.3459L2.51573 17.8617C2.26413 19.371 2.26413 20.629 2.51573 22.1383L0 24.6541L2.51573 30.9432H6.03784C6.79263 31.9496 8.05037 32.9558 9.05675 33.9622V37.4843L15.3459 40L17.8617 37.4843C19.371 37.7359 20.629 37.7359 22.1383 37.4843L24.6541 40L30.9432 37.4843V33.9622C31.9496 33.2074 32.9558 31.9496 33.9622 30.9432H37.4843L40 24.6541L37.4843 22.1383ZM17.1071 27.6727C12.8305 25.9118 10.8179 21.1319 12.5789 17.1066C14.3398 12.83 19.1197 10.8174 23.145 12.5784C27.4216 14.3393 29.4341 19.1192 27.6732 23.1445C26.1636 27.4211 21.3838 29.4339 17.1071 27.6727Z" fill="#75AEE8"/>
</svg>
