<svg width="424" height="410" viewBox="0 0 424 410" fill="none" xmlns="http://www.w3.org/2000/svg">
<path d="M284.283 105.002C281.638 94.4237 277.231 83.8456 271.942 74.1498L282.52 49.4681L245.497 13.3265L220.815 23.9047C211.118 18.616 201.422 14.2081 189.963 11.5634L181.148 -14H129.14L119.443 11.5634C108.865 14.2081 98.2868 18.6152 88.5911 23.9047L63.9084 13.3265L27.7669 49.4681L38.3451 74.1498C33.0564 83.8464 28.6485 93.543 26.0037 105.002L0.440369 114.698V166.707L26.0037 176.403C28.6485 186.981 33.0556 197.56 38.3451 207.255L27.7669 231.937L64.79 268.079L89.4718 257.501C99.1684 262.789 108.865 267.197 120.324 269.842L130.02 295.405H181.147L190.844 269.842C201.422 267.197 212 262.79 221.696 257.501L246.378 268.079L283.401 231.937L272.822 207.255C278.111 197.559 282.519 187.862 285.164 176.403L310.727 166.707V114.698L284.283 105.002ZM154.703 203.73C119.443 203.73 91.235 175.522 91.235 140.262C91.235 105.002 119.443 76.7937 154.703 76.7937C189.963 76.7937 218.171 105.002 218.171 140.262C218.171 175.522 189.963 203.73 154.703 203.73Z" fill="#75AEE8"/>
<path d="M199.659 185.218C174.977 209.9 135.309 209.9 110.627 185.218L87.7086 208.137C124.732 245.16 185.555 245.16 222.577 208.137C259.6 171.114 259.6 111.172 222.577 73.2683L199.659 96.1869C224.341 120.869 224.341 160.537 199.659 185.218Z" fill="#C8E3FF"/>
<path d="M87.7086 73.2683C50.6855 110.291 50.6855 170.233 87.7086 208.137L110.627 185.218C85.9455 160.537 85.9455 120.869 110.627 96.1869C135.309 71.5051 174.977 71.5051 199.659 96.1869L222.577 73.2683C185.555 36.2452 124.732 36.2452 87.7086 73.2683Z" fill="#C8E3FF"/>
</svg>
