<svg width="37" height="24" viewBox="0 0 37 24" fill="none" xmlns="http://www.w3.org/2000/svg">
<path d="M33.1156 11.1639C33.3122 10.1129 33.2016 9.08525 32.8083 8.06927C31.9109 5.78042 29.6737 4.15728 27.1168 3.9354C25.3099 3.77194 23.5398 4.27399 22.1753 5.30171C20.8601 2.16034 17.5412 0 13.8043 0C13.7797 0 13.7551 0 13.7305 0C9.1209 0.0350125 5.12585 3.51504 4.85536 7.76569C4.79394 8.76993 4.91693 9.75083 5.23649 10.6967C2.18805 11.3857 0 13.8848 0 16.8625C0 20.2958 2.33554 23.9625 8.87498 23.9625H30.0546C34.2094 23.9625 36.9999 20.2958 36.9999 16.8743C37 14.4336 35.4633 12.2149 33.1156 11.1639ZM30.0546 22.4793H8.86277C2.24962 22.4793 1.53658 18.544 1.53658 16.8507C1.53658 14.3283 3.6017 12.2381 6.35509 11.9929L7.43683 11.8995L6.99427 10.9654C6.52708 9.97271 6.31816 8.93346 6.39194 7.84739C6.61322 4.35582 9.91979 1.48309 13.7428 1.45981C13.7673 1.45981 13.7796 1.45981 13.8042 1.45981C17.2706 1.45981 20.3191 3.70191 21.0444 6.79633L21.3886 8.23266L22.3843 7.11158C23.4906 5.86211 25.1992 5.21981 26.957 5.37167C28.936 5.54687 30.6571 6.79633 31.3454 8.55965C31.7018 9.47053 31.7387 10.4164 31.456 11.374L31.2593 12.0397L31.9476 12.2732C34.0373 12.9738 35.4509 14.8188 35.4509 16.8507C35.451 19.5132 33.2384 22.4793 30.0546 22.4793Z" fill="white"/>
</svg>
