<svg width="64" height="44" viewBox="0 0 64 44" fill="none" xmlns="http://www.w3.org/2000/svg">
<path d="M57.281 20.5117C57.6211 18.5981 57.4298 16.727 56.7494 14.8771C55.1972 10.7096 51.3275 7.75428 46.9048 7.35029C43.7792 7.05266 40.7175 7.96678 38.3573 9.83803C36.0824 4.1183 30.3415 0.184814 23.8777 0.184814C23.8352 0.184814 23.7925 0.184814 23.75 0.184814C15.7767 0.248564 8.86634 6.58491 8.39847 14.3244C8.29222 16.1529 8.50497 17.9389 9.05771 19.6611C3.78474 20.9156 0 25.4658 0 30.8877C0 37.1388 4.03986 43.8151 15.3513 43.8151H51.9864C59.173 43.8151 63.9997 37.1388 63.9999 30.9091C64 26.4652 61.342 22.4254 57.281 20.5117ZM51.9864 41.1145H15.3302C3.89123 41.1145 2.65786 33.9492 2.65786 30.8662C2.65786 26.2735 6.22998 22.4676 10.9926 22.0211L12.8637 21.8511L12.0982 20.1502C11.2901 18.3429 10.9287 16.4506 11.0563 14.4731C11.4391 8.11578 17.1586 2.88518 23.7713 2.8428C23.8138 2.8428 23.835 2.8428 23.8775 2.8428C29.8735 2.8428 35.1465 6.92516 36.4011 12.5594L36.9965 15.1746L38.7187 13.1334C40.6323 10.8584 43.5878 9.6889 46.6283 9.9654C50.0514 10.2844 53.0284 12.5594 54.219 15.77C54.8355 17.4285 54.8994 19.1507 54.4104 20.8944L54.0702 22.1063L55.2608 22.5315C58.8753 23.8072 61.3205 27.1666 61.3205 30.8662C61.3206 35.7139 57.4935 41.1145 51.9864 41.1145Z" fill="url(#paint0_linear)" fill-opacity="0.5"/>
<defs>
<linearGradient id="paint0_linear" x1="31.9999" y1="0.184814" x2="31.9999" y2="43.8151" gradientUnits="userSpaceOnUse">
<stop stop-color="#C8E3FF"/>
<stop offset="0.479167" stop-color="#75AEE8"/>
</linearGradient>
</defs>
</svg>
