<svg width="75" height="52" viewBox="0 0 75 52" fill="none" xmlns="http://www.w3.org/2000/svg">
<path d="M67.1262 23.8206C67.5248 21.5781 67.3005 19.3854 66.5032 17.2176C64.6842 12.3338 60.1495 8.87047 54.9666 8.39704C51.3037 8.04826 47.7158 9.1195 44.95 11.3124C42.284 4.60955 35.5564 0 27.9816 0C27.9318 0 27.8819 0 27.8321 0C18.4883 0.0747067 10.3902 7.50012 9.84195 16.5698C9.71744 18.7126 9.96676 20.8055 10.6145 22.8238C4.43524 24.2939 0 29.6262 0 35.9799C0 43.3054 4.73421 51.1293 17.9898 51.1293H60.9216C69.3434 51.1293 74.9997 43.3054 74.9998 36.005C75 30.7973 71.8852 26.0631 67.1262 23.8206ZM60.9216 47.9645H17.9651C4.56004 47.9645 3.11469 39.5676 3.11469 35.9547C3.11469 30.5726 7.30075 26.1126 12.8819 25.5894L15.0746 25.3902L14.1776 23.397C13.2306 21.279 12.8071 19.0615 12.9566 16.7441C13.4052 9.2941 20.1077 3.16449 27.857 3.11483C27.9068 3.11483 27.9317 3.11483 27.9815 3.11483C35.008 3.11483 41.1873 7.89885 42.6575 14.5015L43.3552 17.5662L45.3735 15.1741C47.616 12.5081 51.0795 11.1376 54.6426 11.4616C58.654 11.8355 62.1427 14.5015 63.5379 18.2639C64.2604 20.2074 64.3352 22.2257 63.7622 24.269L63.3635 25.6893L64.7587 26.1875C68.9945 27.6825 71.86 31.6193 71.86 35.9547C71.8601 41.6357 67.3752 47.9645 60.9216 47.9645Z" fill="#3685D7" fill-opacity="0.5"/>
</svg>
