<svg width="66" height="66" viewBox="0 0 66 66" fill="none" xmlns="http://www.w3.org/2000/svg">
<path d="M55.2679 28.5618C54.8909 19.1448 47.1123 11.5991 37.6049 11.5991C31.1581 11.5991 25.3097 15.0707 22.2008 20.5938C20.8075 19.7998 19.2247 19.3758 17.5914 19.3758C12.7838 19.3758 8.81402 23.0324 8.3178 27.7105C3.2994 29.9212 0 34.9144 0 40.4666C0 44.1195 1.40322 47.572 3.95113 50.188C6.49362 52.7984 9.89778 54.2934 13.5355 54.3972C13.6134 54.3996 20.5308 54.4007 34.0956 54.4007C51.5948 54.4007 53.1928 54.3985 53.3637 54.3975V54.3977L53.3875 54.3972C53.3956 54.397 53.4036 54.397 53.4116 54.3966C56.7986 54.2849 59.9651 52.8819 62.3273 50.4463C64.6957 48.0045 66 44.7857 66 41.3831C66 35.0092 61.3971 29.6486 55.2679 28.5618ZM53.3301 51.1449C53.3251 51.1449 53.3201 51.1449 53.3151 51.1449C53.0433 51.1464 45.1537 51.1475 34.0954 51.1475C24.4678 51.1475 14.1037 51.1466 13.6119 51.1449C7.80206 50.9692 3.25321 46.2822 3.25321 40.4666C3.25321 35.9214 6.13729 31.8651 10.43 30.3725C11.0921 30.1424 11.5322 29.5141 11.5222 28.8131C11.5218 28.7808 11.5207 28.7487 11.5196 28.7166L11.519 28.701C11.519 25.3528 14.2432 22.6286 17.5916 22.6286C19.1206 22.6286 20.582 23.1998 21.7063 24.237C22.0958 24.5961 22.6358 24.7436 23.1533 24.631C23.671 24.5189 24.1017 24.1617 24.3078 23.6737C26.5694 18.3146 31.7888 14.8519 37.6049 14.8519C45.5584 14.8519 52.029 21.3227 52.029 29.2766C52.029 29.4651 52.0238 29.6681 52.0121 29.9351C51.9733 30.8241 52.6558 31.5792 53.5443 31.63C58.7048 31.9249 62.747 36.209 62.747 41.3829C62.7468 46.6739 58.6124 50.9566 53.3301 51.1449Z" fill="url(#paint0_linear)" fill-opacity="0.6"/>
<defs>
<linearGradient id="paint0_linear" x1="33" y1="11.5991" x2="33" y2="54.4007" gradientUnits="userSpaceOnUse">
<stop stop-color="#C4C4C4"/>
<stop offset="0.505208" stop-color="#3685D7"/>
</linearGradient>
</defs>
</svg>
