<svg width="64" height="64" viewBox="0 0 64 64" fill="none" xmlns="http://www.w3.org/2000/svg">
<path d="M57.281 30.5117C57.6211 28.5981 57.4298 26.727 56.7494 24.8771C55.1972 20.7096 51.3275 17.7543 46.9048 17.3503C43.7792 17.0527 40.7175 17.9668 38.3573 19.838C36.0824 14.1183 30.3415 10.1848 23.8777 10.1848C23.8352 10.1848 23.7925 10.1848 23.75 10.1848C15.7767 10.2486 8.86634 16.5849 8.39847 24.3244C8.29222 26.1529 8.50497 27.9389 9.05771 29.6611C3.78474 30.9156 0 35.4658 0 40.8877C0 47.1388 4.03986 53.8151 15.3513 53.8151H51.9864C59.173 53.8151 63.9997 47.1388 63.9999 40.9091C64 36.4652 61.342 32.4254 57.281 30.5117ZM51.9864 51.1145H15.3302C3.89123 51.1145 2.65786 43.9492 2.65786 40.8662C2.65786 36.2735 6.22998 32.4676 10.9926 32.0211L12.8637 31.8511L12.0982 30.1502C11.2901 28.3429 10.9287 26.4506 11.0563 24.4731C11.4391 18.1158 17.1586 12.8852 23.7713 12.8428C23.8138 12.8428 23.835 12.8428 23.8775 12.8428C29.8735 12.8428 35.1465 16.9252 36.4011 22.5594L36.9965 25.1746L38.7187 23.1334C40.6323 20.8584 43.5878 19.6889 46.6283 19.9654C50.0514 20.2844 53.0284 22.5594 54.219 25.77C54.8355 27.4285 54.8994 29.1507 54.4104 30.8944L54.0702 32.1063L55.2608 32.5315C58.8753 33.8072 61.3205 37.1666 61.3205 40.8662C61.3206 45.7139 57.4935 51.1145 51.9864 51.1145Z" fill="url(#paint0_linear)" fill-opacity="0.5"/>
<defs>
<linearGradient id="paint0_linear" x1="31.9999" y1="10.1848" x2="31.9999" y2="53.8151" gradientUnits="userSpaceOnUse">
<stop stop-color="#C8E3FF"/>
<stop offset="0.479167" stop-color="#75AEE8"/>
</linearGradient>
</defs>
</svg>
