<svg width="59" height="37" viewBox="0 0 59 37" fill="none" xmlns="http://www.w3.org/2000/svg">
<path d="M49.4048 14.3068C49.0679 6.36426 42.1144 0 33.6156 0C27.8528 0 22.6248 2.92805 19.8456 7.58637C18.6002 6.91669 17.1853 6.55908 15.7252 6.55908C11.4276 6.55908 7.879 9.64316 7.43542 13.5888C2.94939 15.4533 0 19.6648 0 24.3476C0 27.4286 1.25436 30.3405 3.53198 32.547C5.80475 34.7486 8.84778 36.0095 12.0996 36.0971C12.1692 36.0992 18.3528 36.1001 30.4786 36.1001C46.1214 36.1001 47.5499 36.0982 47.7026 36.0973V36.0975L47.724 36.0971C47.7311 36.097 47.7383 36.097 47.7455 36.0966C50.7732 36.0024 53.6037 34.8191 55.7154 32.7648C57.8325 30.7053 58.9984 27.9905 58.9984 25.1207C58.9984 19.7447 54.8839 15.2234 49.4048 14.3068ZM47.6726 33.354C47.6681 33.354 47.6637 33.354 47.6592 33.354C47.4163 33.3553 40.3636 33.3562 30.4784 33.3562C21.8722 33.3562 12.6076 33.3555 12.1679 33.354C6.97439 33.2059 2.90809 29.2527 2.90809 24.3476C2.90809 20.5141 5.48622 17.0929 9.32354 15.834C9.91544 15.6399 10.3088 15.11 10.2999 14.5188C10.2995 14.4915 10.2985 14.4645 10.2976 14.4374L10.297 14.4242C10.297 11.6003 12.7322 9.30256 15.7254 9.30256C17.0922 9.30256 18.3985 9.78438 19.4036 10.6591C19.7518 10.962 20.2345 11.0864 20.6971 10.9915C21.1599 10.8969 21.5449 10.5956 21.7291 10.1841C23.7508 5.66403 28.4165 2.74348 33.6156 2.74348C40.7253 2.74348 46.5095 8.20118 46.5095 14.9097C46.5095 15.0687 46.5049 15.2399 46.4944 15.4651C46.4597 16.2149 47.0698 16.8518 47.8641 16.8946C52.4771 17.1434 56.0905 20.7567 56.0905 25.1205C56.0904 29.5831 52.3946 33.1952 47.6726 33.354Z" fill="#C8E3FF"/>
</svg>
