<svg width="65" height="39" viewBox="0 0 65 39" fill="none" xmlns="http://www.w3.org/2000/svg">
<path d="M55.6075 18.1632C55.7064 17.6382 55.7685 17.1001 55.7685 16.5502C55.7685 11.4101 51.2709 7.24406 45.7249 7.24406C44.5168 7.24406 43.3595 7.45223 42.2828 7.8162C39.0131 3.11862 33.3286 0 26.8471 0C16.7017 0 8.47804 7.61981 8.47804 17.0202C8.47804 17.4614 8.51336 17.8948 8.5501 18.3281C3.6399 19.4698 0 23.5743 0 28.4761C0 34.2604 5.06139 38.9501 11.3041 38.9501H53.6942C59.9369 38.9501 64.9983 34.2604 64.9983 28.4761C64.9983 23.298 60.9373 19.0076 55.6075 18.1632Z" fill="url(#paint0_linear)" fill-opacity="0.5"/>
<defs>
<linearGradient id="paint0_linear" x1="32.4991" y1="0" x2="32.4991" y2="38.9501" gradientUnits="userSpaceOnUse">
<stop stop-color="#C8E3FF"/>
<stop offset="0.9997" stop-color="#75AEE8"/>
<stop offset="0.9998" stop-color="#FBFDFF"/>
</linearGradient>
</defs>
</svg>
