<svg width="44" height="44" viewBox="0 0 44 44" fill="none" xmlns="http://www.w3.org/2000/svg">
<path d="M39.3807 20.9768C39.6145 19.6612 39.483 18.3748 39.0152 17.103C37.948 14.2379 35.2877 12.2061 32.2471 11.9283C30.0982 11.7237 27.9933 12.3522 26.3707 13.6387C24.8066 9.70635 20.8598 7.00208 16.4159 7.00208C16.3867 7.00208 16.3574 7.00208 16.3281 7.00208C10.8465 7.0459 6.09561 11.4021 5.77395 16.723C5.7009 17.9801 5.84716 19.208 6.22718 20.392C2.60201 21.2545 0 24.3828 0 28.1103C0 32.4079 2.7774 36.9979 10.554 36.9979H35.7407C40.6814 36.9979 43.9998 32.4079 43.9999 28.125C44 25.0698 42.1726 22.2924 39.3807 20.9768ZM35.7407 35.1412H10.5395C2.67522 35.1412 1.82728 30.2151 1.82728 28.0955C1.82728 24.938 4.28311 22.3215 7.5574 22.0145L8.84379 21.8976L8.31751 20.7283C7.76193 19.4857 7.51349 18.1848 7.60123 16.8253C7.86437 12.4546 11.7965 8.85858 16.3428 8.82944C16.372 8.82944 16.3866 8.82944 16.4158 8.82944C20.538 8.82944 24.1632 11.6361 25.0258 15.5096L25.4351 17.3076L26.6191 15.9042C27.9347 14.3402 29.9666 13.5361 32.057 13.7262C34.4104 13.9455 36.457 15.5096 37.2756 17.7169C37.6994 18.8571 37.7433 20.0411 37.4072 21.2399L37.1732 22.0731L37.9918 22.3654C40.4767 23.2425 42.1579 25.552 42.1579 28.0955C42.1579 31.4283 39.5268 35.1412 35.7407 35.1412Z" fill="url(#paint0_linear)" fill-opacity="0.5"/>
<defs>
<linearGradient id="paint0_linear" x1="22" y1="7.00208" x2="22" y2="36.9979" gradientUnits="userSpaceOnUse">
<stop stop-color="#C8E3FF"/>
<stop offset="0.479167" stop-color="#75AEE8"/>
</linearGradient>
</defs>
</svg>
