<svg width="48" height="34" viewBox="0 0 48 34" fill="none" xmlns="http://www.w3.org/2000/svg">
<path d="M5.0392 15.8839C4.78411 14.4486 4.92764 13.0453 5.43792 11.6579C6.6021 8.5323 9.50431 6.31577 12.8214 6.01277C15.1656 5.78956 17.4619 6.47515 19.232 7.87858C20.9382 3.58879 25.2438 0.638672 30.0917 0.638672C30.1236 0.638672 30.1556 0.638672 30.1874 0.638672C36.1675 0.686484 41.3502 5.43875 41.7011 11.2433C41.7808 12.6147 41.6212 13.9542 41.2067 15.2459C45.1614 16.1868 48 19.5994 48 23.6658C48 28.3542 44.9701 33.3614 36.4865 33.3614H9.01015C3.62021 33.3614 0.000164032 28.3542 6.86646e-05 23.6819C-2.67029e-05 20.349 1.99347 17.3191 5.0392 15.8839ZM9.01015 31.336H36.5023C45.0815 31.336 46.0066 25.9619 46.0066 23.6497C46.0066 20.2052 43.3275 17.3508 39.7555 17.0159L38.3522 16.8884L38.9263 15.6127C39.5324 14.2572 39.8034 12.838 39.7077 11.3549C39.4207 6.5869 35.1311 2.66394 30.1715 2.63216C30.1396 2.63216 30.1237 2.63216 30.0918 2.63216C25.5948 2.63216 21.6401 5.69393 20.6991 9.9196L20.2526 11.881L18.9609 10.3501C17.5257 8.64386 15.3091 7.76674 13.0287 7.97411C10.4614 8.21336 8.22866 9.9196 7.33569 12.3276C6.87332 13.5714 6.82541 14.8631 7.19216 16.1708L7.44735 17.0798L6.55438 17.3987C3.84352 18.3555 2.00959 20.875 2.00959 23.6497C2.00949 27.2855 4.87983 31.336 9.01015 31.336Z" fill="url(#paint0_linear)" fill-opacity="0.5"/>
<defs>
<linearGradient id="paint0_linear" x1="24" y1="0.638672" x2="24" y2="33.3614" gradientUnits="userSpaceOnUse">
<stop stop-color="#C8E3FF"/>
<stop offset="0.479167" stop-color="#75AEE8"/>
</linearGradient>
</defs>
</svg>
