<svg width="64" height="64" viewBox="0 0 64 64" fill="none" xmlns="http://www.w3.org/2000/svg">
<path d="M57.281 30.512C57.6211 28.5984 57.4298 26.7272 56.7494 24.8774C55.1972 20.7099 51.3275 17.7545 46.9048 17.3505C43.7792 17.0529 40.7175 17.967 38.3573 19.8383C36.0824 14.1185 30.3415 10.1851 23.8777 10.1851C23.8352 10.1851 23.7925 10.1851 23.75 10.1851C15.7767 10.2488 8.86634 16.5852 8.39847 24.3246C8.29222 26.1531 8.50497 27.9391 9.05771 29.6614C3.78474 30.9159 0 35.4661 0 40.8879C0 47.139 4.03986 53.8154 15.3513 53.8154H51.9864C59.173 53.8154 63.9997 47.139 63.9999 40.9093C64 36.4655 61.342 32.4256 57.281 30.512ZM51.9864 51.1148H15.3302C3.89123 51.1148 2.65786 43.9494 2.65786 40.8664C2.65786 36.2737 6.22998 32.4678 10.9926 32.0213L12.8637 31.8513L12.0982 30.1505C11.2901 28.3431 10.9287 26.4509 11.0563 24.4734C11.4391 18.116 17.1586 12.8854 23.7713 12.843C23.8138 12.843 23.835 12.843 23.8775 12.843C29.8735 12.843 35.1465 16.9254 36.4011 22.5596L36.9965 25.1749L38.7187 23.1336C40.6323 20.8586 43.5878 19.6891 46.6283 19.9656C50.0514 20.2846 53.0284 22.5596 54.219 25.7702C54.8355 27.4287 54.8994 29.151 54.4104 30.8946L54.0702 32.1066L55.2608 32.5317C58.8753 33.8075 61.3205 37.1668 61.3205 40.8664C61.3206 45.7142 57.4935 51.1148 51.9864 51.1148Z" fill="url(#paint0_linear)" fill-opacity="0.5"/>
<defs>
<linearGradient id="paint0_linear" x1="31.9999" y1="10.1851" x2="31.9999" y2="53.8154" gradientUnits="userSpaceOnUse">
<stop stop-color="#C8E3FF"/>
<stop offset="0.479167" stop-color="#75AEE8"/>
</linearGradient>
</defs>
</svg>
