<svg width="105" height="67" viewBox="0 0 105 67" fill="none" xmlns="http://www.w3.org/2000/svg">
<path d="M89.9632 31.3771C90.1214 30.4874 90.2209 29.5756 90.2209 28.6439C90.2209 19.9341 83.0248 12.8749 74.1511 12.8749C72.2181 12.8749 70.3665 13.2276 68.6437 13.8443C63.4122 5.88441 54.317 0.599976 43.9466 0.599976C27.714 0.599976 14.5561 13.5116 14.5561 29.4403C14.5561 30.1879 14.6126 30.9223 14.6714 31.6566C6.81509 33.5911 0.991241 40.5461 0.991241 48.8521C0.991241 58.6534 9.08947 66.6 19.0777 66.6H86.902C96.8903 66.6 104.989 58.6534 104.989 48.8521C104.989 40.078 98.491 32.808 89.9632 31.3771Z" fill="url(#paint0_linear)" fill-opacity="0.5"/>
<defs>
<linearGradient id="paint0_linear" x1="52.9899" y1="0.599976" x2="52.9899" y2="66.6" gradientUnits="userSpaceOnUse">
<stop stop-color="#3686D7"/>
<stop offset="0.364583" stop-color="#73ADE8"/>
<stop offset="0.9999" stop-color="#C8E3FF"/>
<stop offset="1" stop-opacity="0"/>
</linearGradient>
</defs>
</svg>
