<svg width="32" height="34" viewBox="0 0 32 34" fill="none" xmlns="http://www.w3.org/2000/svg">
<path d="M16.0715 0.32579L14.3221 5.52846C12.9058 9.74055 9.8787 13.0609 6.03849 14.6139L1.29458 16.5329C1.11625 16.605 0.997802 16.7915 0.997802 17C0.997802 17.2085 1.11625 17.395 1.29458 17.4671L6.03823 19.3861C9.8787 20.9394 12.9058 24.2597 14.3221 28.4715L16.0715 33.6745C16.1373 33.8701 16.3073 34 16.4974 34C16.6875 34 16.8575 33.8701 16.9233 33.6745L18.6732 28.4713C20.0895 24.2594 23.1166 20.9394 26.9568 19.3861L31.701 17.4671C31.8794 17.395 31.9978 17.2085 31.9978 17C31.9978 16.7915 31.8794 16.605 31.701 16.5329L26.9568 14.6139C23.1166 13.0606 20.0892 9.74055 18.6732 5.52874L16.9233 0.325496C16.8575 0.129905 16.6875 -7.5442e-07 16.4974 -7.45279e-07C16.3073 -7.36139e-07 16.1373 0.130199 16.0715 0.32579Z" fill="url(#paint0_linear)" fill-opacity="0.8"/>
<defs>
<linearGradient id="paint0_linear" x1="0.997802" y1="17" x2="31.9978" y2="17" gradientUnits="userSpaceOnUse">
<stop/>
<stop offset="0.0001" stop-color="#3685D7"/>
<stop offset="1" stop-color="#EDF6FF"/>
</linearGradient>
</defs>
</svg>
