<svg width="30" height="29" viewBox="0 0 30 29" fill="none" xmlns="http://www.w3.org/2000/svg">
<path d="M28.898 13.203C21.8571 13.203 16.102 7.7357 16.102 1.04694C16.102 0.465307 15.6122 0 15 0C14.3878 0 13.898 0.465307 13.898 1.04694C13.898 7.7357 8.14286 13.203 1.10204 13.203C0.489795 13.203 0 13.6683 0 14.25C0 14.8316 0.489795 15.2969 1.10204 15.2969C8.14286 15.2969 13.898 20.7642 13.898 27.453C13.898 28.0346 14.3878 28.4999 15 28.4999C15.6122 28.4999 16.102 28.0346 16.102 27.453C16.102 20.7642 21.8571 15.2969 28.898 15.2969C29.5102 15.2969 30 14.8316 30 14.25C30 13.6683 29.5102 13.203 28.898 13.203ZM15 22.102C13.4694 18.554 10.4694 15.704 6.73469 14.25C10.4694 12.7959 13.4694 9.9459 15 6.39795C16.5306 9.9459 19.5306 12.7959 23.2653 14.25C19.5306 15.704 16.5306 18.554 15 22.102Z" fill="#3685D7" fill-opacity="0.82"/>
</svg>
