<svg width="32" height="35" viewBox="0 0 32 35" fill="none" xmlns="http://www.w3.org/2000/svg">
<path d="M15.5599 0.335372L13.7541 5.69106C12.2922 10.027 9.16738 13.445 5.20329 15.0437L0.306352 17.0191C0.122264 17.0934 -7.03919e-07 17.2854 -6.9539e-07 17.5C-6.86862e-07 17.7146 0.122264 17.9066 0.306352 17.9809L5.20302 19.9563C9.16738 21.5552 12.2922 24.9733 13.7541 29.3089L15.5599 34.6649C15.6278 34.8663 15.8034 35 15.9996 35C16.1958 35 16.3713 34.8663 16.4392 34.6649L18.2456 29.3086C19.7076 24.973 22.8323 21.5552 26.7964 19.9563L31.6936 17.9809C31.8777 17.9066 32 17.7146 32 17.5C32 17.2854 31.8777 17.0934 31.6936 17.0191L26.7964 15.0437C22.8323 13.4447 19.7073 10.027 18.2456 5.69136L16.4392 0.335067C16.3713 0.133723 16.1958 -7.78756e-07 15.9996 -7.69321e-07C15.8034 -7.59885e-07 15.6278 0.134029 15.5599 0.335372Z" fill="url(#paint0_linear)" fill-opacity="0.8"/>
<defs>
<linearGradient id="paint0_linear" x1="-6.9539e-07" y1="17.5" x2="32" y2="17.5" gradientUnits="userSpaceOnUse">
<stop/>
<stop offset="0.0001" stop-color="#3685D7"/>
<stop offset="1" stop-color="#EDF6FF"/>
</linearGradient>
</defs>
</svg>
