<svg width="30" height="30" viewBox="0 0 30 30" fill="none" xmlns="http://www.w3.org/2000/svg">
<path d="M28.898 13.898C21.8571 13.898 16.102 8.14286 16.102 1.10204C16.102 0.489798 15.6122 0 15 0C14.3878 0 13.898 0.489798 13.898 1.10204C13.898 8.14286 8.14286 13.898 1.10204 13.898C0.489795 13.898 0 14.3878 0 15C0 15.6122 0.489795 16.102 1.10204 16.102C8.14286 16.102 13.898 21.8571 13.898 28.898C13.898 29.5102 14.3878 30 15 30C15.6122 30 16.102 29.5102 16.102 28.898C16.102 21.8571 21.8571 16.102 28.898 16.102C29.5102 16.102 30 15.6122 30 15C30 14.3878 29.5102 13.898 28.898 13.898ZM15 23.2653C13.4694 19.5306 10.4694 16.5306 6.73469 15C10.4694 13.4694 13.4694 10.4694 15 6.73469C16.5306 10.4694 19.5306 13.4694 23.2653 15C19.5306 16.5306 16.5306 19.5306 15 23.2653Z" fill="white"/>
</svg>
