<svg width="30" height="29" viewBox="0 0 30 29" fill="none" xmlns="http://www.w3.org/2000/svg">
<path d="M28.898 13.2031C21.8571 13.2031 16.102 7.73572 16.102 1.04694C16.102 0.465308 15.6122 0 15 0C14.3878 0 13.898 0.465308 13.898 1.04694C13.898 7.73572 8.14286 13.2031 1.10204 13.2031C0.489795 13.2031 0 13.6684 0 14.25C0 14.8316 0.489795 15.2969 1.10204 15.2969C8.14286 15.2969 13.898 20.7643 13.898 27.4531C13.898 28.0347 14.3878 28.5 15 28.5C15.6122 28.5 16.102 28.0347 16.102 27.4531C16.102 20.7643 21.8571 15.2969 28.898 15.2969C29.5102 15.2969 30 14.8316 30 14.25C30 13.6684 29.5102 13.2031 28.898 13.2031ZM15 22.102C13.4694 18.5541 10.4694 15.7041 6.73469 14.25C10.4694 12.7959 13.4694 9.94592 15 6.39796C16.5306 9.94592 19.5306 12.7959 23.2653 14.25C19.5306 15.7041 16.5306 18.5541 15 22.102Z" fill="#C8E3FF"/>
</svg>
