<svg width="42" height="46" viewBox="0 0 42 46" fill="none" xmlns="http://www.w3.org/2000/svg">
<path d="M20.895 0.432277L18.5814 7.33345C16.7084 12.9207 12.7048 17.325 7.62599 19.385L1.35197 21.9305C1.11612 22.0262 0.959472 22.2736 0.959472 22.5501C0.959472 22.8267 1.11612 23.0741 1.35197 23.1697L7.62564 25.7152C12.7048 27.7756 16.7084 32.1799 18.5814 37.7668L20.895 44.6683C20.982 44.9278 21.2069 45.1001 21.4583 45.1001C21.7097 45.1001 21.9346 44.9278 22.0216 44.6683L24.336 37.7664C26.209 32.1795 30.2125 27.7756 35.2914 25.7152L41.5657 23.1697C41.8016 23.0741 41.9583 22.8267 41.9583 22.5501C41.9583 22.2735 41.8016 22.0262 41.5657 21.9305L35.2914 19.385C30.2125 17.3246 26.2087 12.9207 24.336 7.33384L22.0216 0.431884C21.9346 0.172439 21.7097 0.000124887 21.4583 0.000124899C21.2069 0.000124911 20.982 0.172832 20.895 0.432277Z" fill="url(#paint0_linear)" fill-opacity="0.8"/>
<defs>
<linearGradient id="paint0_linear" x1="0.959472" y1="22.5501" x2="41.9583" y2="22.5501" gradientUnits="userSpaceOnUse">
<stop/>
<stop offset="0.0001" stop-color="#3685D7"/>
<stop offset="1" stop-color="#EDF6FF"/>
</linearGradient>
</defs>
</svg>
