<svg width="42" height="46" viewBox="0 0 42 46" fill="none" xmlns="http://www.w3.org/2000/svg">
<path d="M20.888 1.33218L18.5744 8.23336C16.7013 13.8206 12.6978 18.2249 7.61893 20.2849L1.3449 22.8304C1.10904 22.9261 0.952392 23.1735 0.952392 23.45C0.952392 23.7266 1.10904 23.974 1.3449 24.0697L7.61858 26.6151C12.6978 28.6755 16.7013 33.0798 18.5744 38.6667L20.888 45.5682C20.975 45.8277 21.1999 46 21.4513 46C21.7027 46 21.9276 45.8277 22.0146 45.5682L24.329 38.6663C26.202 33.0795 30.2055 28.6755 35.2844 26.6151L41.5588 24.0696C41.7946 23.974 41.9513 23.7266 41.9513 23.45C41.9513 23.1735 41.7946 22.9261 41.5588 22.8304L35.2844 20.2849C30.2055 18.2245 26.2017 13.8206 24.329 8.23374L22.0146 1.33179C21.9276 1.07234 21.7027 0.900027 21.4513 0.900027C21.1999 0.900027 20.975 1.07273 20.888 1.33218Z" fill="url(#paint0_linear)" fill-opacity="0.8"/>
<defs>
<linearGradient id="paint0_linear" x1="0.952392" y1="23.45" x2="41.9513" y2="23.45" gradientUnits="userSpaceOnUse">
<stop/>
<stop offset="0.0001" stop-color="#3685D7"/>
<stop offset="1" stop-color="#EDF6FF"/>
</linearGradient>
</defs>
</svg>
