<svg width="41" height="43" viewBox="0 0 41 43" fill="none" xmlns="http://www.w3.org/2000/svg">
<mask id="path-1-inside-1" fill="white">
<path d="M19.9362 1.0414L17.6225 7.46494C15.7493 12.6655 11.7457 16.765 6.66672 18.6824L0.392513 21.0517C0.156651 21.1407 -8.89948e-07 21.371 -8.79165e-07 21.6284C-8.68383e-07 21.8858 0.156651 22.1161 0.392513 22.2052L6.66637 24.5744C11.7457 26.4922 15.7493 30.5917 17.6225 35.7919L19.9362 42.2158C20.0231 42.4573 20.2481 42.6177 20.4995 42.6177C20.7509 42.6177 20.9758 42.4573 21.0628 42.2158L23.3772 35.7915C25.2503 30.5914 29.2539 26.4922 34.3329 24.5744L40.6075 22.2052C40.8433 22.1161 41 21.8858 41 21.6284C41 21.371 40.8433 21.1407 40.6075 21.0517L34.3329 18.6824C29.2539 16.7646 25.2499 12.6655 23.3772 7.4653L21.0628 1.04104C20.9758 0.799552 20.7509 0.639159 20.4995 0.639159C20.248 0.639159 20.0231 0.799914 19.9362 1.0414Z"/>
</mask>
<path d="M19.9362 1.0414L16.1729 -0.314214L16.1728 -0.314114L19.9362 1.0414ZM17.6225 7.46494L13.8591 6.10942L13.8591 6.10947L17.6225 7.46494ZM6.66672 18.6824L5.25395 14.9402L5.25363 14.9403L6.66672 18.6824ZM0.392513 21.0517L1.80558 24.7938L1.8056 24.7938L0.392513 21.0517ZM0.392513 22.2052L1.80567 18.4631L1.80558 18.4631L0.392513 22.2052ZM6.66637 24.5744L5.25321 28.3165L5.25346 28.3166L6.66637 24.5744ZM17.6225 35.7919L21.3858 34.4364L21.3858 34.4364L17.6225 35.7919ZM19.9362 42.2158L16.1728 43.5712L16.1729 43.5714L19.9362 42.2158ZM21.0628 42.2158L17.2995 40.86L17.2995 40.8602L21.0628 42.2158ZM23.3772 35.7915L27.1404 37.1473L27.1405 37.1471L23.3772 35.7915ZM34.3329 24.5744L35.7459 28.3166L35.7459 28.3165L34.3329 24.5744ZM40.6075 22.2052L42.0205 25.9473L42.0206 25.9473L40.6075 22.2052ZM40.6075 21.0517L42.0206 17.3096L42.0205 17.3096L40.6075 21.0517ZM34.3329 18.6824L35.7459 14.9403L35.7459 14.9403L34.3329 18.6824ZM23.3772 7.4653L27.1406 6.10997L27.1404 6.10955L23.3772 7.4653ZM21.0628 1.04104L17.2995 2.39666L17.2995 2.39679L21.0628 1.04104ZM20.4995 0.639159L20.4995 -3.36084L20.4995 0.639159ZM16.1728 -0.314114L13.8591 6.10942L21.3858 8.82046L23.6995 2.39692L16.1728 -0.314114ZM13.8591 6.10947C12.3743 10.232 9.21512 13.4448 5.25395 14.9402L8.07948 22.4246C14.2763 20.0852 19.1244 15.0989 21.3858 8.8204L13.8591 6.10947ZM5.25363 14.9403L-1.02058 17.3096L1.8056 24.7938L8.07981 22.4245L5.25363 14.9403ZM-1.02056 17.3096C-2.85754 18.0033 -4 19.7549 -4 21.6284L4 21.6284C4 22.9871 3.17084 24.2782 1.80558 24.7938L-1.02056 17.3096ZM-4 21.6284C-4 23.5019 -2.85753 25.2536 -1.02055 25.9473L1.80558 18.4631C3.17084 18.9786 4 20.2698 4 21.6284L-4 21.6284ZM-1.02064 25.9472L5.25321 28.3165L8.07952 20.8324L1.80567 18.4631L-1.02064 25.9472ZM5.25346 28.3166C9.21519 29.8124 12.3743 33.0253 13.8591 37.1475L21.3858 34.4364C19.1244 28.1582 14.2762 23.1721 8.07928 20.8323L5.25346 28.3166ZM13.8591 37.1474L16.1728 43.5712L23.6995 40.8603L21.3858 34.4364L13.8591 37.1474ZM16.1729 43.5714C16.8156 45.3558 18.5155 46.6177 20.4995 46.6177L20.4995 38.6177C21.9806 38.6177 23.2307 39.5588 23.6994 40.8602L16.1729 43.5714ZM20.4995 46.6177C22.4834 46.6177 24.1833 45.3558 24.8261 43.5714L17.2995 40.8602C17.7683 39.5588 19.0184 38.6177 20.4995 38.6177L20.4995 46.6177ZM24.826 43.5715L27.1404 37.1473L19.614 34.4358L17.2995 40.86L24.826 43.5715ZM27.1405 37.1471C28.6253 33.025 31.7844 29.8124 35.7459 28.3166L32.9199 20.8323C26.7235 23.172 21.8753 28.1577 19.6139 34.436L27.1405 37.1471ZM35.7459 28.3165L42.0205 25.9473L39.1945 18.4631L32.9199 20.8323L35.7459 28.3165ZM42.0206 25.9473C43.8575 25.2536 45 23.5019 45 21.6284L37 21.6284C37 20.2698 37.8292 18.9786 39.1944 18.4631L42.0206 25.9473ZM45 21.6284C45 19.7549 43.8575 18.0032 42.0206 17.3096L39.1944 24.7938C37.8292 24.2782 37 22.9871 37 21.6284L45 21.6284ZM42.0205 17.3096L35.7459 14.9403L32.9199 22.4245L39.1945 24.7938L42.0205 17.3096ZM35.7459 14.9403C31.7842 13.4444 28.625 10.2317 27.1406 6.10997L19.6138 8.82062C21.8749 15.0992 26.7236 20.0848 32.9199 22.4245L35.7459 14.9403ZM27.1404 6.10955L24.826 -0.314714L17.2995 2.39679L19.614 8.82105L27.1404 6.10955ZM24.8261 -0.314576C24.1833 -2.09892 22.4834 -3.36084 20.4995 -3.36084L20.4995 4.63916C19.0184 4.63916 17.7683 3.69803 17.2995 2.39666L24.8261 -0.314576ZM20.4995 -3.36084C18.5116 -3.36084 16.8143 -2.09476 16.1729 -0.314214L23.6994 2.39702C23.232 3.69459 21.9845 4.63916 20.4995 4.63916L20.4995 -3.36084Z" fill="#C8E3FF" mask="url(#path-1-inside-1)"/>
</svg>
