<svg width="43" height="29" viewBox="0 0 43 29" fill="none" xmlns="http://www.w3.org/2000/svg">
<path d="M36.7874 13.9549C36.8529 13.5777 36.894 13.1911 36.894 12.796C36.894 9.10282 33.9186 6.10953 30.2496 6.10953C29.4503 6.10953 28.6847 6.2591 27.9724 6.52061C25.8093 3.1454 22.0487 0.904663 17.7609 0.904663C11.0491 0.904663 5.6087 6.3795 5.6087 13.1337C5.6087 13.4507 5.63207 13.7621 5.65637 14.0734C2.408 14.8937 0 17.8428 0 21.3648C0 25.5208 3.34839 28.8903 7.47826 28.8903H35.5217C39.6516 28.8903 43 25.5208 43 21.3648C43 17.6443 40.3134 14.5617 36.7874 13.9549Z" fill="url(#paint0_linear)" fill-opacity="0.5"/>
<defs>
<linearGradient id="paint0_linear" x1="21.5" y1="0.904663" x2="21.5" y2="28.8903" gradientUnits="userSpaceOnUse">
<stop stop-color="#3686D7"/>
<stop offset="0.364583" stop-color="#73ADE8"/>
<stop offset="0.9999" stop-color="#C8E3FF"/>
<stop offset="1" stop-opacity="0"/>
</linearGradient>
</defs>
</svg>
