<svg width="55" height="37" viewBox="0 0 55 37" fill="none" xmlns="http://www.w3.org/2000/svg">
<path d="M49.226 17.4016C49.5183 15.8415 49.3538 14.316 48.7691 12.8078C47.4352 9.4101 44.1097 7.00062 40.3089 6.67124C37.6228 6.42859 34.9916 7.17387 32.9634 8.69947C31.0083 4.03624 26.0748 0.829315 20.5199 0.829315C20.4834 0.829315 20.4467 0.829315 20.4102 0.829315C13.5581 0.88129 7.61953 6.04724 7.21745 12.3571C7.12614 13.8479 7.30897 15.304 7.78399 16.7081C3.25251 17.7309 0 21.4407 0 25.861C0 30.9575 3.47176 36.4006 13.1926 36.4006H44.6759C50.8519 36.4006 54.9999 30.9575 55 25.8785C55.0001 22.2554 52.7159 18.9618 49.226 17.4016ZM44.6759 34.1989H13.1744C3.34404 34.1989 2.28411 28.357 2.28411 25.8435C2.28411 22.0991 5.3539 18.9962 9.44677 18.6322L11.0548 18.4936L10.3969 17.1069C9.70243 15.6334 9.39188 14.0906 9.50155 12.4784C9.83048 7.29535 14.7457 3.03089 20.4285 2.99634C20.465 2.99634 20.4833 2.99634 20.5198 2.99634C25.6726 2.99634 30.2041 6.32465 31.2823 10.9182L31.7939 13.0503L33.274 11.3861C34.9185 9.53137 37.4584 8.57789 40.0713 8.80332C43.013 9.06339 45.5714 10.9182 46.5946 13.5357C47.1244 14.8879 47.1793 16.292 46.759 17.7136L46.4666 18.7017L47.4898 19.0483C50.596 20.0884 52.6974 22.8272 52.6974 25.8435C52.6975 29.7958 49.4086 34.1989 44.6759 34.1989Z" fill="url(#paint0_linear)" fill-opacity="0.5"/>
<defs>
<linearGradient id="paint0_linear" x1="27.5" y1="0.829315" x2="27.5" y2="36.4006" gradientUnits="userSpaceOnUse">
<stop stop-color="#C8E3FF"/>
<stop offset="0.479167" stop-color="#75AEE8"/>
</linearGradient>
</defs>
</svg>
