<svg width="41" height="42" viewBox="0 0 41 42" fill="none" xmlns="http://www.w3.org/2000/svg">
<mask id="path-1-inside-1" fill="white">
<path d="M19.9362 0.40245L17.6225 6.82927C15.7493 12.0324 11.7457 16.1341 6.66672 18.0525L0.392513 20.423C0.156651 20.5121 -8.89948e-07 20.7425 -8.79165e-07 21C-8.68383e-07 21.2576 0.156651 21.4879 0.392513 21.577L6.66637 23.9475C11.7457 25.8663 15.7493 29.9679 17.6225 35.1707L19.9362 41.5979C20.0231 41.8395 20.2481 42 20.4995 42C20.7509 42 20.9758 41.8395 21.0628 41.5979L23.3772 35.1704C25.2503 29.9676 29.2539 25.8663 34.3329 23.9475L40.6075 21.577C40.8433 21.4879 41 21.2576 41 21C41 20.7424 40.8433 20.5121 40.6075 20.423L34.3329 18.0525C29.2539 16.1337 25.2499 12.0324 23.3772 6.82963L21.0628 0.402083C20.9758 0.160472 20.7509 -9.47054e-07 20.4995 -9.35579e-07C20.248 -9.24105e-07 20.0231 0.160834 19.9362 0.40245Z"/>
</mask>
<path d="M19.9362 0.40245L16.1727 -0.952554L16.1726 -0.952458L19.9362 0.40245ZM17.6225 6.82927L13.8589 5.47436L13.8589 5.47442L17.6225 6.82927ZM6.66672 18.0525L5.25332 14.3105L5.253 14.3106L6.66672 18.0525ZM0.392513 20.423L1.80621 24.1648L1.80624 24.1648L0.392513 20.423ZM0.392513 21.577L1.8063 17.8352L1.80621 17.8352L0.392513 21.577ZM6.66637 23.9475L5.25258 27.6893L5.25282 27.6894L6.66637 23.9475ZM17.6225 35.1707L21.386 33.8159L21.386 33.8158L17.6225 35.1707ZM19.9362 41.5979L16.1726 42.9528L16.1727 42.9529L19.9362 41.5979ZM21.0628 41.5979L17.2993 40.2428L17.2993 40.2429L21.0628 41.5979ZM23.3772 35.1704L27.1407 36.5255L27.1407 36.5253L23.3772 35.1704ZM34.3329 23.9475L35.7466 27.6894L35.7466 27.6894L34.3329 23.9475ZM40.6075 21.577L42.0211 25.3189L42.0212 25.3189L40.6075 21.577ZM40.6075 20.423L42.0212 16.6811L42.0211 16.6811L40.6075 20.423ZM34.3329 18.0525L35.7466 14.3106L35.7466 14.3106L34.3329 18.0525ZM23.3772 6.82963L27.1408 5.47492L27.1407 5.47449L23.3772 6.82963ZM21.0628 0.402083L17.2993 1.75709L17.2993 1.75722L21.0628 0.402083ZM20.4995 -9.35579e-07L20.4995 -4L20.4995 -9.35579e-07ZM16.1726 -0.952458L13.8589 5.47436L21.386 8.18417L23.6997 1.75735L16.1726 -0.952458ZM13.8589 5.47442C12.3737 9.60007 9.21408 12.8145 5.25332 14.3105L8.08012 21.7944C14.2773 19.4537 19.125 14.4648 21.386 8.18412L13.8589 5.47442ZM5.253 14.3106L-1.02121 16.6811L1.80624 24.1648L8.08044 21.7943L5.253 14.3106ZM-1.02119 16.6811C-2.85875 17.3754 -4 19.1276 -4 21L4 21C4 22.3573 3.17205 23.6488 1.80621 24.1648L-1.02119 16.6811ZM-4 21C-4 22.8724 -2.85875 24.6247 -1.02119 25.3189L1.80621 17.8352C3.17205 18.3512 4 19.6427 4 21L-4 21ZM-1.02128 25.3189L5.25258 27.6893L8.08016 20.2057L1.8063 17.8352L-1.02128 25.3189ZM5.25282 27.6894C9.21414 29.1859 12.3738 32.4004 13.8589 36.5257L21.386 33.8158C19.1249 27.5354 14.2773 22.5467 8.07991 20.2056L5.25282 27.6894ZM13.8589 36.5256L16.1726 42.9528L23.6997 40.2431L21.386 33.8159L13.8589 36.5256ZM16.1727 42.9529C16.8149 44.7367 18.5142 46 20.4995 46L20.4995 38C21.9819 38 23.2314 38.9423 23.6997 40.2429L16.1727 42.9529ZM20.4995 46C22.4847 46 24.1841 44.7367 24.8263 42.9529L17.2993 40.2429C17.7675 38.9423 19.0171 38 20.4995 38L20.4995 46ZM24.8262 42.9531L27.1407 36.5255L19.6137 33.8152L17.2993 40.2428L24.8262 42.9531ZM27.1407 36.5253C28.6259 32.4001 31.7854 29.1859 35.7466 27.6894L32.9193 20.2056C26.7225 22.5467 21.8747 27.535 19.6137 33.8154L27.1407 36.5253ZM35.7466 27.6894L42.0211 25.3189L39.1938 17.8352L32.9193 20.2057L35.7466 27.6894ZM42.0212 25.3189C43.8587 24.6246 45 22.8724 45 21L37 21C37 19.6427 37.8279 18.3512 39.1938 17.8352L42.0212 25.3189ZM45 21C45 19.1276 43.8587 17.3753 42.0212 16.6811L39.1938 24.1648C37.8279 23.6488 37 22.3573 37 21L45 21ZM42.0211 16.6811L35.7466 14.3106L32.9193 21.7943L39.1938 24.1648L42.0211 16.6811ZM35.7466 14.3106C31.7853 12.8141 28.6255 9.59975 27.1408 5.47492L19.6136 8.18434C21.8744 14.4651 26.7226 19.4533 32.9193 21.7943L35.7466 14.3106ZM27.1407 5.47449L24.8262 -0.953054L17.2993 1.75722L19.6137 8.18476L27.1407 5.47449ZM24.8263 -0.95292C24.1841 -2.73671 22.4847 -4 20.4995 -4L20.4995 4C19.0171 4 17.7675 3.05765 17.2993 1.75709L24.8263 -0.95292ZM20.4995 -4C18.5103 -4 16.8135 -2.73254 16.1727 -0.952554L23.6997 1.75745C23.2328 3.05422 21.9858 4 20.4995 4L20.4995 -4Z" fill="#C8E3FF" mask="url(#path-1-inside-1)"/>
</svg>
