<svg width="25" height="32" viewBox="0 0 25 32" fill="none" xmlns="http://www.w3.org/2000/svg">
<path d="M12.8438 0.340682L14.2546 5.13372C15.3967 9.01419 17.838 12.0731 20.9349 13.5038L24.7607 15.2717C24.9045 15.3382 25 15.51 25 15.7021C25 15.8942 24.9045 16.066 24.7607 16.1324L20.9351 17.9003C17.838 19.3313 15.3967 22.3902 14.2546 26.2704L12.8438 31.0637C12.7908 31.2439 12.6536 31.3636 12.5003 31.3636C12.347 31.3636 12.2099 31.2439 12.1568 31.0637L10.7456 26.2702C9.60348 22.39 7.16223 19.3313 4.06529 17.9003L0.239339 16.1324C0.0955213 16.066 1.25972e-06 15.8942 1.25168e-06 15.7021C1.24364e-06 15.51 0.0955213 15.3382 0.239339 15.2717L4.06529 13.5038C7.16223 12.0729 9.60369 9.01419 10.7456 5.13399L12.1568 0.340409C12.2099 0.160218 12.347 0.0405413 12.5003 0.0405413C12.6536 0.0405413 12.7908 0.160491 12.8438 0.340682Z" fill="url(#paint0_linear)" fill-opacity="0.8"/>
<defs>
<linearGradient id="paint0_linear" x1="25" y1="15.7021" x2="1.25168e-06" y2="15.7021" gradientUnits="userSpaceOnUse">
<stop/>
<stop offset="0.0001" stop-color="#3685D7"/>
<stop offset="1" stop-color="#EDF6FF"/>
</linearGradient>
</defs>
</svg>
