<svg width="20" height="20" viewBox="0 0 21 20" fill="none" xmlns="http://www.w3.org/2000/svg">
<rect x="1.99121" y="1" width="18" height="19" rx="0" fill="#3685D7" stroke="#3685D7" stroke-width="4"/>
<path d="M4.16154 11.05C4.05385 10.94 4 10.775 4 10.665C4 10.555 4.05385 10.39 4.16154 10.28L4.91538 9.51C5.13077 9.29 5.45385 9.29 5.66923 9.51L5.72308 9.565L8.68462 12.81C8.79231 12.92 8.95385 12.92 9.06154 12.81L16.2769 5.165H16.3308C16.5462 4.945 16.8692 4.945 17.0846 5.165L17.8385 5.935C18.0538 6.155 18.0538 6.485 17.8385 6.705L9.22308 15.835C9.11538 15.945 9.00769 16 8.84615 16C8.68462 16 8.57692 15.945 8.46923 15.835L4.26923 11.215L4.16154 11.05Z" fill="white"/>
</svg>
