<svg width="27" height="26" viewBox="0 0 27 26" fill="none" xmlns="http://www.w3.org/2000/svg">
<path d="M26.0219 13C26.0219 19.9005 20.3901 25.5 13.436 25.5C6.48189 25.5 0.850098 19.9005 0.850098 13C0.850098 6.09954 6.48189 0.5 13.436 0.5C20.3901 0.5 26.0219 6.09954 26.0219 13Z" fill="white" stroke="#3685D7"/>
<path d="M13.6267 16.8779L19.2298 11.2745C19.3099 11.1943 19.3501 11.1021 19.3501 10.9979C19.3501 10.8937 19.3099 10.8015 19.2298 10.7213L18.6285 10.1202C18.5484 10.04 18.4563 10 18.352 10C18.2476 10 18.1556 10.04 18.0754 10.1202L13.35 14.8457L8.62445 10.1202C8.5443 10.04 8.45207 10 8.34801 10C8.24369 10 8.15146 10.04 8.07131 10.1202L7.47029 10.7214C7.39006 10.8015 7.3501 10.8938 7.3501 10.998C7.3501 11.1021 7.39015 11.1943 7.47029 11.2745L13.0734 16.8776C13.1535 16.9577 13.2458 16.9978 13.35 16.9978C13.4542 16.9978 13.5464 16.958 13.6267 16.8779Z" fill="#3685D7"/>
</svg>
