<svg width="80" height="80" viewBox="0 0 80 80" fill="none" xmlns="http://www.w3.org/2000/svg">
<circle cx="40" cy="40" r="40" fill="url(#paint0_linear)"/>
<path d="M24.6551 24.6644V59.3137C24.6551 59.6817 24.9534 59.9801 25.3215 59.9801H50.6421C51.0099 59.9801 51.3083 59.6817 51.3083 59.3137V31.3279C51.3083 31.3131 51.3011 31.3005 51.2998 31.2859C51.2965 31.2275 51.2849 31.1698 51.2657 31.1147C51.2583 31.0933 51.2531 31.0727 51.2438 31.0518C51.2114 30.9794 51.1664 30.9132 51.1104 30.8567L44.4472 24.1934C44.3906 24.1372 44.3242 24.0922 44.2512 24.06C44.2311 24.0515 44.2108 24.0444 44.19 24.0381C44.1343 24.0189 44.0763 24.0073 44.0173 24.0035C44.0061 24.0054 43.9929 23.9983 43.9789 23.9983H25.3215C24.9534 23.9983 24.6551 24.2964 24.6551 24.6644ZM49.0335 30.6615H44.645V26.2731L49.0335 30.6615ZM25.9876 25.3308H43.3125V31.3279C43.3125 31.6957 43.6109 31.9941 43.9786 31.9941H49.9757V58.6475H25.9876V25.3308Z" fill="white"/>
<path d="M52.6411 54.6492V55.9817H54.6401C55.0081 55.9817 55.3065 55.6837 55.3065 55.3156V20.6664C55.3065 20.2983 55.0081 20 54.6401 20H29.3194C28.9514 20 28.653 20.2983 28.653 20.6664V22.6653H29.9858V21.3325H53.9737V54.6492H52.6411Z" fill="white"/>
<path d="M29.9858 33.3267H45.9776V34.6592H29.9858V33.3267Z" fill="white"/>
<path d="M29.9858 29.3286H35.3165V30.6614H29.9858V29.3286Z" fill="white"/>
<path d="M29.9858 37.3247H40.6472V38.6575H29.9858V37.3247Z" fill="white"/>
<path d="M41.9797 37.3247H45.9776V38.6575H41.9797V37.3247Z" fill="white"/>
<path d="M29.9858 41.3225H45.9776V42.6553H29.9858V41.3225Z" fill="white"/>
<path d="M29.9858 49.3186H45.9776V50.6514H29.9858V49.3186Z" fill="white"/>
<path d="M35.9826 45.3206H45.9776V46.6531H35.9826V45.3206Z" fill="white"/>
<path d="M29.9858 45.3206H34.6501V46.6531H29.9858V45.3206Z" fill="white"/>
<path d="M29.9858 53.3167H32.6512V54.6492H29.9858V53.3167Z" fill="white"/>
<path d="M33.9836 53.3167H45.9776V54.6492H33.9836V53.3167Z" fill="white"/>
<defs>
<linearGradient id="paint0_linear" x1="18.5" y1="5" x2="80" y2="155" gradientUnits="userSpaceOnUse">
<stop stop-color="#3685D7"/>
<stop offset="0.805158" stop-color="#A3C8EE"/>
</linearGradient>
</defs>
</svg>
