<svg width="18" height="14" viewBox="0 0 18 14" fill="none" xmlns="http://www.w3.org/2000/svg">
<path d="M15.8026 0.150879H2.20112C0.986965 0.150879 0 1.13784 0 2.352V11.6481C0 12.8622 0.986965 13.8492 2.20112 13.8492H15.7989C17.013 13.8492 18 12.8622 18 11.6481V2.35572C18.0037 1.14157 17.0168 0.150879 15.8026 0.150879ZM16.9981 11.6481C16.9981 12.3073 16.4618 12.8436 15.8026 12.8436H2.20112C1.5419 12.8436 1.00559 12.3073 1.00559 11.6481V2.35572C1.00559 1.6965 1.5419 1.16019 2.20112 1.16019H15.7989C16.4581 1.16019 16.9944 1.6965 16.9944 2.35572V11.6481H16.9981Z" fill="#001C46"/>
<path d="M11.3519 6.88462L15.7542 2.93676C15.959 2.75054 15.9776 2.43397 15.7914 2.2254C15.6052 2.02056 15.2886 2.00194 15.08 2.18816L9.00928 7.63695L7.82493 6.57922C7.8212 6.5755 7.81748 6.57177 7.81748 6.56805C7.79141 6.54198 7.76534 6.51963 7.73554 6.49728L2.91618 2.18443C2.70761 1.99821 2.39104 2.01684 2.20482 2.2254C2.0186 2.43397 2.03722 2.75054 2.24579 2.93676L6.70016 6.91814L2.26441 11.0708C2.06329 11.2608 2.05212 11.5774 2.24206 11.7822C2.34262 11.8865 2.4767 11.9423 2.61078 11.9423C2.73368 11.9423 2.85659 11.8977 2.95342 11.8083L7.45621 7.59598L8.67781 8.68723C8.77465 8.77289 8.89383 8.81386 9.01301 8.81386C9.13219 8.81386 9.25509 8.76916 9.3482 8.6835L10.6033 7.55874L15.08 11.812C15.1769 11.9051 15.3035 11.9498 15.4264 11.9498C15.5605 11.9498 15.6908 11.8977 15.7914 11.7934C15.9813 11.5923 15.9739 11.272 15.7728 11.082L11.3519 6.88462Z" fill="#001C46"/>
</svg>
