<svg width="82" height="82" viewBox="0 0 82 82" fill="none" xmlns="http://www.w3.org/2000/svg">
<circle cx="40.7938" cy="40.7937" r="40" transform="rotate(1.14853 40.7938 40.7937)" fill="url(#paint0_linear)"/>
<g clip-path="url(#clip0)">
<path d="M56.6271 27.4604H24.9604C22.6638 27.4604 20.7938 29.3304 20.7938 31.6272V49.9605C20.7938 52.2572 22.6638 54.1272 24.9604 54.1272H56.627C58.9237 54.1272 60.7937 52.2572 60.7937 49.9605V31.6272C60.7938 29.3304 58.9238 27.4604 56.6271 27.4604ZM59.1271 49.9605C59.1271 51.3388 58.0055 52.4605 56.6271 52.4605H24.9604C23.582 52.4605 22.4604 51.3388 22.4604 49.9605V31.6272C22.4604 30.2488 23.582 29.1272 24.9604 29.1272H56.627C58.0054 29.1272 59.127 30.2488 59.127 31.6272V49.9605H59.1271Z" fill="white"/>
<path d="M59.9604 32.4602H21.6271C21.1671 32.4602 20.7938 32.8336 20.7938 33.2936V38.2936C20.7938 38.7536 21.1671 39.1269 21.6271 39.1269H59.9605C60.4205 39.1269 60.7938 38.7536 60.7938 38.2936V33.2936C60.7938 32.8336 60.4204 32.4602 59.9604 32.4602ZM59.1271 37.4602H22.4604V34.1268H59.127V37.4602H59.1271Z" fill="white"/>
<path d="M36.6271 44.127H26.6271C26.1671 44.127 25.7938 44.5003 25.7938 44.9603C25.7938 45.4203 26.1671 45.7936 26.6271 45.7936H36.6271C37.0871 45.7936 37.4605 45.4202 37.4605 44.9602C37.4605 44.5002 37.0871 44.127 36.6271 44.127Z" fill="white"/>
<path d="M36.6271 47.4604H26.6271C26.1671 47.4604 25.7938 47.8338 25.7938 48.2938C25.7938 48.7538 26.1671 49.1272 26.6271 49.1272H36.6271C37.0871 49.1272 37.4605 48.7538 37.4605 48.2938C37.4604 47.8338 37.0871 47.4604 36.6271 47.4604Z" fill="white"/>
<path d="M53.2938 42.4604H51.6271C50.2488 42.4604 49.1271 43.5821 49.1271 44.9604V46.6271C49.1271 48.0054 50.2488 49.1271 51.6271 49.1271H53.2938C54.6721 49.1271 55.7938 48.0054 55.7938 46.6271V44.9604C55.7938 43.5822 54.6721 42.4604 53.2938 42.4604ZM54.1271 46.6272C54.1271 47.0872 53.7538 47.4605 53.2938 47.4605H51.6271C51.1671 47.4605 50.7938 47.0872 50.7938 46.6272V44.9605C50.7938 44.5005 51.1671 44.1272 51.6271 44.1272H53.2938C53.7538 44.1272 54.1271 44.5005 54.1271 44.9605V46.6272Z" fill="white"/>
</g>
<defs>
<linearGradient id="paint0_linear" x1="19.2938" y1="5.79374" x2="80.7938" y2="155.794" gradientUnits="userSpaceOnUse">
<stop stop-color="#3685D7"/>
<stop offset="0.805158" stop-color="#A3C8EE"/>
</linearGradient>
<clipPath id="clip0">
<rect width="40" height="40" fill="white" transform="translate(20.7938 20.7937)"/>
</clipPath>
</defs>
</svg>
