<svg width="18" height="14" viewBox="0 0 18 14" fill="none" xmlns="http://www.w3.org/2000/svg">
    <path d="M0.207692 7.69229C0.0692308 7.55383 0 7.34613 0 7.20767C0 7.06921 0.0692308 6.86152 0.207692 6.72306L1.17692 5.75383C1.45385 5.4769 1.86923 5.4769 2.14615 5.75383L2.21538 5.82306L6.02308 9.90767C6.16154 10.0461 6.36923 10.0461 6.50769 9.90767L15.7846 0.284597H15.8538C16.1308 0.00767354 16.5462 0.00767354 16.8231 0.284597L17.7923 1.25383C18.0692 1.53075 18.0692 1.94613 17.7923 2.22306L6.71538 13.7154C6.57692 13.8538 6.43846 13.9231 6.23077 13.9231C6.02308 13.9231 5.88462 13.8538 5.74615 13.7154L0.346154 7.89998L0.207692 7.69229Z" fill="#001C46"/>
</svg>
