<svg width="18" height="18" viewBox="0 0 18 18" fill="none" xmlns="http://www.w3.org/2000/svg">
<path d="M9 0C4.0374 0 0 4.0374 0 9C0 13.9626 4.0374 18 9 18C13.9626 18 18 13.9626 18 9C18 4.0374 13.9626 0 9 0ZM9 16.085C5.09339 16.085 1.91486 12.9068 1.91486 9C1.91486 5.09321 5.09339 1.91505 9 1.91505C12.9066 1.91505 16.0851 5.09321 16.0851 9C16.0851 12.9068 12.9066 16.085 9 16.085Z" fill="#3685D7"/>
<path d="M13.6904 8.72208H9.64579V3.85897C9.64579 3.44972 9.31398 3.11792 8.90474 3.11792C8.4955 3.11792 8.1637 3.44972 8.1637 3.85897V9.46312C8.1637 9.87236 8.4955 10.2042 8.90474 10.2042H13.6904C14.0997 10.2042 14.4315 9.87236 14.4315 9.46312C14.4315 9.05388 14.0997 8.72208 13.6904 8.72208Z" fill="#3685D7"/>
</svg>
