<svg width="21" height="21" viewBox="0 0 21 21" fill="none" xmlns="http://www.w3.org/2000/svg">
<path d="M12.0323 10.9559L19.8198 3.16787C20.3267 2.66129 20.3267 1.84223 19.8198 1.33565C19.3133 0.829075 18.4942 0.829075 17.9877 1.33565L10.1998 9.12365L2.41223 1.33565C1.90543 0.829075 1.08662 0.829075 0.580054 1.33565C0.0732503 1.84223 0.0732503 2.66129 0.580054 3.16787L8.36765 10.9559L0.580054 18.7439C0.0732503 19.2504 0.0732503 20.0695 0.580054 20.5761C0.832507 20.8288 1.16444 20.9557 1.49614 20.9557C1.82784 20.9557 2.15954 20.8288 2.41223 20.5761L10.1998 12.7881L17.9877 20.5761C18.2404 20.8288 18.5721 20.9557 18.9038 20.9557C19.2355 20.9557 19.5672 20.8288 19.8198 20.5761C20.3267 20.0695 20.3267 19.2504 19.8198 18.7439L12.0323 10.9559Z" fill="#84B7EA"/>
</svg>
