<svg width="18" height="18" viewBox="0 0 18 18" fill="none" xmlns="http://www.w3.org/2000/svg">
<path d="M0.608412 3.54596L6.06231 9.00041L0.608412 14.4546C-0.202829 15.2662 -0.202829 16.5808 0.608412 17.3923C1.01375 17.7976 1.54517 18.0005 2.07633 18.0005C2.60838 18.0005 3.13985 17.798 3.54488 17.3923L8.99996 11.9375L14.4546 17.3923C14.8599 17.7976 15.3914 18.0004 15.923 18.0004C16.4545 18.0004 16.9856 17.7979 17.3913 17.3923C18.2025 16.5811 18.2025 15.2664 17.3913 14.4546L11.9375 9.00036L17.3916 3.54596C18.2028 2.73472 18.2028 1.41981 17.3916 0.608574C16.5805 -0.202044 15.2663 -0.202044 14.4549 0.608574L9.00002 6.06303L3.5455 0.608574C2.73395 -0.202044 1.41965 -0.202044 0.608721 0.608574C-0.202829 1.41981 -0.202829 2.73472 0.608412 3.54596Z" fill="#3685D7"/>
</svg>
