<svg width="70" height="70" viewBox="0 0 70 70" fill="none" xmlns="http://www.w3.org/2000/svg">
<circle cx="35" cy="35" r="35" fill="#3685D7"/>
<path d="M49.2549 20.7452C48.1295 19.6199 46.6332 19.0001 45.0417 19.0001L24.9584 19C21.6729 19.0002 19 21.6731 19.0001 24.9584L19 45.0417C19.0001 48.3271 21.673 51 24.9584 51H45.0417C48.3271 51 51 48.3271 51 45.0417V24.9584C51 23.3669 50.3803 21.8706 49.2549 20.7452ZM49.125 45.0417C49.125 47.2932 47.2932 49.125 45.0417 49.125H24.9584C22.7069 49.125 20.8751 47.2932 20.875 45.0417L20.8751 24.9583C20.875 22.7069 22.7068 20.8751 24.9584 20.875L45.0417 20.8751C46.1324 20.8751 47.1578 21.2998 47.9291 22.071C48.7003 22.8423 49.125 23.8677 49.125 24.9584V45.0417Z" fill="white"/>
<path d="M40.6332 32.5932C40.2671 32.2271 39.6735 32.227 39.3074 32.5932L35.9375 35.9632L35.9374 25.9624C35.9374 25.4447 35.5177 25.0249 34.9999 25.0249C34.4822 25.0249 34.0624 25.4447 34.0624 25.9624L34.0625 35.9633L30.6924 32.5933C30.3263 32.2272 29.7327 32.2272 29.3666 32.5933C29.0004 32.9594 29.0004 33.553 29.3666 33.9191L34.3371 38.8895C34.5129 39.0653 34.7513 39.1641 34.9999 39.1641C35.2486 39.1641 35.4871 39.0653 35.6629 38.8895L40.6333 33.919C40.9993 33.5528 40.9993 32.9593 40.6332 32.5932Z" fill="white"/>
<path d="M44.0376 43.1001H25.9626C25.4449 43.1001 25.0251 43.5198 25.0251 44.0376C25.0251 44.5553 25.4449 44.9751 25.9626 44.9751H44.0376C44.5554 44.9751 44.9751 44.5553 44.9751 44.0376C44.9751 43.5198 44.5554 43.1001 44.0376 43.1001Z" fill="white"/>
</svg>
