<svg width="30" height="30" viewBox="0 0 30 30" fill="none" xmlns="http://www.w3.org/2000/svg">
<circle cx="15" cy="15" r="15" fill="#EDF6FF"/>
<path d="M22.5169 14.2728L14.091 14.2728C13.6894 14.2728 13.3637 14.5984 13.3637 15C13.3637 15.4017 13.6894 15.7273 14.091 15.7273L22.5169 15.7273L21.5766 16.6676C21.2926 16.9516 21.2926 17.4121 21.5766 17.6961C21.8606 17.9801 22.3211 17.9801 22.6051 17.6961L24.7868 15.5144C24.8037 15.4976 24.8196 15.48 24.8347 15.4616C24.8384 15.4571 24.8416 15.4522 24.8451 15.4476C24.8562 15.4335 24.8672 15.4193 24.8771 15.4044C24.88 15.4 24.8824 15.3954 24.8853 15.391C24.8953 15.3754 24.9051 15.3597 24.9139 15.3432C24.9156 15.34 24.917 15.3365 24.9187 15.3333C24.9279 15.3155 24.9367 15.2974 24.9444 15.2788C24.9454 15.2766 24.946 15.2741 24.947 15.2718C24.9549 15.2522 24.9622 15.2324 24.9684 15.212C24.9692 15.2094 24.9696 15.2067 24.9704 15.2041C24.9762 15.1841 24.9816 15.1639 24.9857 15.1432C24.987 15.137 24.9875 15.1307 24.9886 15.1245C24.9916 15.1073 24.9946 15.0901 24.9963 15.0726C24.9988 15.0486 25 15.0244 25 15C25 14.9757 24.9988 14.9515 24.9963 14.9274C24.9946 14.9097 24.9915 14.8924 24.9886 14.875C24.9875 14.869 24.987 14.8629 24.9857 14.8569C24.9816 14.836 24.9762 14.8156 24.9703 14.7954C24.9696 14.793 24.9692 14.7905 24.9684 14.7881C24.9622 14.7676 24.9549 14.7476 24.9469 14.7278C24.946 14.7257 24.9454 14.7234 24.9444 14.7213C24.9367 14.7025 24.9278 14.6844 24.9185 14.6665C24.9169 14.6633 24.9156 14.66 24.9139 14.6569C24.905 14.6403 24.8952 14.6244 24.885 14.6087C24.8823 14.6044 24.88 14.5999 24.8772 14.5957C24.8672 14.5807 24.8561 14.5665 24.8451 14.5523C24.8416 14.5478 24.8384 14.543 24.8348 14.5385C24.8196 14.5201 24.8037 14.5025 24.7869 14.4857L22.6052 12.304C22.4632 12.1619 22.277 12.091 22.0909 12.091C21.9048 12.091 21.7186 12.1619 21.5767 12.304C21.2927 12.588 21.2927 13.0485 21.5767 13.3325L22.5169 14.2728Z" fill="#3685D7"/>
<path d="M14.9491 20.9492C16.9343 20.9492 18.7812 19.9644 19.8899 18.3148C20.1139 17.9815 20.0252 17.5296 19.6919 17.3056C19.3585 17.0816 18.9067 17.1701 18.6826 17.5036C17.8447 18.7503 16.449 19.4947 14.9491 19.4947C12.4708 19.4946 10.4545 17.4784 10.4545 15C10.4545 12.5217 12.4708 10.5054 14.9491 10.5054C16.4446 10.5054 17.838 11.2464 18.6765 12.4876C18.9014 12.8204 19.3534 12.9079 19.6863 12.683C20.0191 12.4582 20.1067 12.0061 19.8818 11.6733C18.7724 10.0312 16.9284 9.0509 14.9491 9.0509C11.6688 9.0509 8.99996 11.7196 8.99996 15C8.99996 18.2804 11.6688 20.9492 14.9491 20.9492Z" fill="#3685D7"/>
</svg>
