<svg width="70" height="70" viewBox="0 0 70 70" fill="none" xmlns="http://www.w3.org/2000/svg">
<circle cx="35" cy="35" r="35" fill="#FF9700"/>
<path d="M27.04 35.8203C26.5505 35.8203 26.1523 36.2185 26.1523 36.708C26.1523 37.1975 26.5505 37.5957 27.04 37.5957C27.5295 37.5957 27.9102 37.1974 27.9102 36.708C27.9102 36.2186 27.5295 35.8203 27.04 35.8203Z" fill="white"/>
<path d="M35.0586 20C32.6354 20 30.6641 21.9714 30.6641 24.3945C30.6641 26.8177 32.6354 28.7891 35.0586 28.7891C37.4817 28.7891 39.4531 26.8177 39.4531 24.3945C39.4531 21.9714 37.4817 20 35.0586 20ZM35.0586 27.0312C33.6047 27.0312 32.4219 25.8484 32.4219 24.3945C32.4219 22.9406 33.6047 21.7578 35.0586 21.7578C36.5125 21.7578 37.6953 22.9406 37.6953 24.3945C37.6953 25.8484 36.5125 27.0312 35.0586 27.0312Z" fill="white"/>
<path d="M38.5742 32.3047H31.543C31.0576 32.3047 30.6641 32.6982 30.6641 33.1836C30.6641 33.669 31.0576 34.0625 31.543 34.0625H38.5742C39.0596 34.0625 39.4531 33.669 39.4531 33.1836C39.4531 32.6982 39.0596 32.3047 38.5742 32.3047Z" fill="white"/>
<path d="M48.9703 33.3345C48.6271 32.9911 48.0706 32.9911 47.7273 33.3344C47.3841 33.6777 47.3841 34.2341 47.7273 34.5774C48.0593 34.9094 48.2422 35.3508 48.2422 35.8203C48.2422 36.7896 47.4536 37.5781 46.4844 37.5781H46.444C45.9985 32.6576 41.8511 28.7891 36.8164 28.7891H35.0586H32.4219C31.8627 28.7891 31.2218 28.8525 30.602 28.9666C29.4379 27.7302 27.8446 27.0312 26.1523 27.0312C25.667 27.0312 25.2734 27.4248 25.2734 27.9102V31.8663C24.221 32.9888 23.451 34.3459 23.0316 35.8203H22.6367C21.1828 35.8203 20 37.0031 20 38.457V40.2734C20 41.7273 21.1828 42.9043 22.6367 42.9043C22.9379 42.9043 23.3578 42.9051 23.6917 42.9069C24.3037 44.1108 25.1561 45.1979 26.1485 46.0275C26.1523 47.1928 26.1523 49.0994 26.1523 49.1211C26.1523 49.6065 26.5459 50 27.0312 50H30.5469C31.0323 50 31.4258 49.6065 31.4258 49.1211V48.1966C31.7579 48.2262 32.0986 48.2422 32.4219 48.2422H36.8164V49.1211C36.8164 49.6065 37.2099 50 37.6953 50H41.2109C41.6963 50 42.0898 49.6065 42.0898 49.1211C42.0898 49.1083 42.0898 47.965 42.0928 46.6758C43.3379 45.8586 44.3904 44.7379 45.1561 43.4091C45.8776 42.1569 46.3156 40.7638 46.4438 39.336H46.4844C48.4229 39.336 50 37.7589 50 35.8204C50 34.8813 49.6343 33.9985 48.9703 33.3345ZM40.7746 45.4245C40.504 45.5813 40.3371 45.87 40.3362 46.1826C40.3341 46.9399 40.333 47.6896 40.3325 48.2422H38.5742C38.5742 47.4183 38.5742 47.9186 38.5742 45.6055C38.5742 45.1201 38.1807 44.7266 37.6953 44.7266C37.2099 44.7266 36.8164 45.1201 36.8164 45.6055V46.4844H32.4219C32.0961 46.4844 31.7517 46.4655 31.4258 46.4311V45.6055C31.4258 45.1201 31.0323 44.7266 30.5469 44.7266C30.0615 44.7266 29.668 45.1201 29.668 45.6055C29.668 47.1587 29.668 47.2524 29.668 48.2422H27.9098C27.9093 47.4267 27.908 46.2446 27.9046 45.5973C27.9031 45.3227 27.7735 45.0646 27.5541 44.8996C26.5051 44.1104 25.618 42.9698 25.0562 41.6881C24.9215 41.3809 24.6239 41.1771 24.2888 41.1628C24.0561 41.1529 22.8717 41.1523 22.6367 41.1523C22.1521 41.1523 21.7578 40.7581 21.7578 40.2734V38.457C21.7578 37.9724 22.1521 37.5781 22.6367 37.5781H23.6892C23.6902 37.5781 23.6911 37.5783 23.6921 37.5783C23.6935 37.5783 23.6949 37.5781 23.6963 37.5781C24.1616 37.5781 24.4899 37.2828 24.5814 36.9072C24.6161 36.7645 24.6878 36.4706 24.7044 36.3655C25.0698 35.0379 25.783 33.8233 26.7698 32.849C26.9371 32.6839 27.0312 32.4586 27.0312 32.2235V28.8795C28.0263 29.087 28.9281 29.6444 29.5861 30.4776C29.798 30.746 30.1464 30.8671 30.4791 30.788C31.124 30.6348 31.8321 30.5469 32.4219 30.5469H36.8164C41.1781 30.5469 44.7266 34.0954 44.7266 38.457C44.7266 41.2991 43.1753 44.034 40.7746 45.4245Z" fill="white"/>
</svg>
