<svg width="71" height="67" viewBox="0 0 71 67" fill="none" xmlns="http://www.w3.org/2000/svg">
<ellipse cx="35.971" cy="33.7311" rx="34.9991" ry="33.2474" fill="#FF9700"/>
<path d="M42.6519 31.8906C42.6519 31.2434 42.1272 30.7188 41.48 30.7188H29.4097C28.7625 30.7188 28.2378 31.2434 28.2378 31.8906C28.2378 32.5379 28.7625 33.0625 29.4097 33.0625H41.48C42.1272 33.0625 42.6519 32.5379 42.6519 31.8906Z" fill="white"/>
<path d="M29.4097 35.4062C28.7625 35.4062 28.2378 35.9309 28.2378 36.5781C28.2378 37.2254 28.7625 37.75 29.4097 37.75H36.7404C37.3876 37.75 37.9123 37.2254 37.9123 36.5781C37.9123 35.9309 37.3876 35.4062 36.7404 35.4062H29.4097Z" fill="white"/>
<path d="M32.1636 46.6562H28.2443C26.952 46.6562 25.9006 45.6048 25.9006 44.3125V23.6875C25.9006 22.3952 26.952 21.3438 28.2443 21.3438H42.6519C43.9442 21.3438 44.9956 22.3952 44.9956 23.6875V30.8945C44.9956 31.5418 45.5203 32.0664 46.1675 32.0664C46.8147 32.0664 47.3394 31.5418 47.3394 30.8945V23.6875C47.3394 21.1028 45.2366 19 42.6519 19H28.2443C25.6596 19 23.5568 21.1028 23.5568 23.6875V44.3125C23.5568 46.8972 25.6596 49 28.2443 49H32.1636C32.8108 49 33.3355 48.4754 33.3355 47.8281C33.3355 47.1809 32.8108 46.6562 32.1636 46.6562Z" fill="white"/>
<path d="M49.4151 35.9672C48.0443 34.5964 45.814 34.5964 44.4441 35.9662L38.0104 42.3858C37.8737 42.5221 37.773 42.69 37.7168 42.8747L36.3157 47.4875C36.1914 47.8965 36.2997 48.3406 36.5981 48.6465C36.8217 48.8756 37.1255 49 37.437 49C37.5413 49 37.6465 48.9861 37.7498 48.9574L42.4798 47.6472C42.6744 47.5933 42.8519 47.49 42.9948 47.3473L49.4151 40.9391C50.7859 39.5683 50.7859 37.338 49.4151 35.9672ZM41.5572 45.4708L39.1776 46.13L39.8739 43.8373L44.2151 39.5058L45.8727 41.1634L41.5572 45.4708ZM47.7587 39.2811L47.5316 39.5077L45.8743 37.8504L46.1006 37.6245C46.5575 37.1676 47.3009 37.1676 47.7579 37.6245C48.2148 38.0815 48.2148 38.8249 47.7587 39.2811Z" fill="white"/>
<path d="M41.48 26.0312H29.4097C28.7625 26.0312 28.2378 26.5559 28.2378 27.2031C28.2378 27.8504 28.7625 28.375 29.4097 28.375H41.48C42.1272 28.375 42.6519 27.8504 42.6519 27.2031C42.6519 26.5559 42.1272 26.0312 41.48 26.0312Z" fill="white"/>
</svg>
