<svg width="18" height="18" viewBox="0 0 18 18" fill="none" xmlns="http://www.w3.org/2000/svg">
<g clip-path="url(#clip0)">
<path d="M15.8026 2.15088H2.20112C0.986965 2.15088 0 3.13784 0 4.352V13.6481C0 14.8622 0.986965 15.8492 2.20112 15.8492H15.7989C17.013 15.8492 18 14.8622 18 13.6481V4.35572C18.0037 3.14157 17.0168 2.15088 15.8026 2.15088ZM16.9981 13.6481C16.9981 14.3073 16.4618 14.8436 15.8026 14.8436H2.20112C1.5419 14.8436 1.00559 14.3073 1.00559 13.6481V4.35572C1.00559 3.6965 1.5419 3.16019 2.20112 3.16019H15.7989C16.4581 3.16019 16.9944 3.6965 16.9944 4.35572V13.6481H16.9981Z" fill="white"/>
<path d="M11.3519 8.88474L15.7542 4.93688C15.959 4.75066 15.9776 4.43409 15.7914 4.22552C15.6052 4.02068 15.2886 4.00206 15.08 4.18828L9.00928 9.63707L7.82493 8.57934C7.8212 8.57562 7.81748 8.57189 7.81748 8.56817C7.79141 8.5421 7.76534 8.51975 7.73554 8.49741L2.91618 4.18456C2.70761 3.99834 2.39104 4.01696 2.20482 4.22552C2.0186 4.43409 2.03722 4.75066 2.24579 4.93688L6.70016 8.91826L2.26441 13.071C2.06329 13.2609 2.05212 13.5775 2.24206 13.7823C2.34262 13.8866 2.4767 13.9425 2.61078 13.9425C2.73368 13.9425 2.85659 13.8978 2.95342 13.8084L7.45621 9.5961L8.67781 10.6873C8.77465 10.773 8.89383 10.814 9.01301 10.814C9.13219 10.814 9.25509 10.7693 9.3482 10.6836L10.6033 9.55886L15.08 13.8121C15.1769 13.9052 15.3035 13.9499 15.4264 13.9499C15.5605 13.9499 15.6908 13.8978 15.7914 13.7935C15.9813 13.5924 15.9739 13.2721 15.7728 13.0821L11.3519 8.88474Z" fill="white"/>
</g>
<defs>
<clipPath id="clip0">
<rect width="18" height="18" fill="white"/>
</clipPath>
</defs>
</svg>
