<svg width="20" height="20" viewBox="0 0 20 20" fill="none" xmlns="http://www.w3.org/2000/svg">
<path d="M10 0C6.00606 0 2.75676 3.2493 2.75676 7.2432C2.75676 12.1998 9.23875 19.4763 9.51473 19.7836C9.77395 20.0723 10.2265 20.0718 10.4853 19.7836C10.7613 19.4763 17.2432 12.1998 17.2432 7.2432C17.2432 3.2493 13.9939 0 10 0ZM10 18.3488C7.81848 15.7575 4.06113 10.645 4.06113 7.24328C4.06113 3.96852 6.72528 1.30438 10 1.30438C13.2747 1.30438 15.9389 3.96852 15.9389 7.24324C15.9388 10.6451 12.1821 15.7566 10 18.3488Z" fill="white"/>
<path d="M9.99999 3.59912C7.99054 3.59912 6.35577 5.23393 6.35577 7.24338C6.35577 9.25283 7.99058 10.8876 9.99999 10.8876C12.0094 10.8876 13.6442 9.25283 13.6442 7.24338C13.6442 5.23393 12.0094 3.59912 9.99999 3.59912ZM9.99999 9.58326C8.70975 9.58326 7.66015 8.53361 7.66015 7.24338C7.66015 5.95314 8.70979 4.9035 9.99999 4.9035C11.2902 4.9035 12.3398 5.95314 12.3398 7.24338C12.3398 8.53361 11.2902 9.58326 9.99999 9.58326Z" fill="white"/>
</svg>
