<svg width="18" height="18" viewBox="0 0 18 18" fill="none" xmlns="http://www.w3.org/2000/svg">
<g clip-path="url(#clip0)">
<path d="M14.4905 17.0503C14.3499 17.0503 14.2103 17.0087 14.0905 16.9275L9.56456 13.8574L7.13711 15.6041C6.94673 15.741 6.70134 15.7755 6.48028 15.6964C6.25949 15.6172 6.09182 15.4343 6.03197 15.2076L4.81311 10.5885L0.458013 8.92321C0.183842 8.81833 0.00201159 8.55603 1.65783e-05 8.26248C-0.00197843 7.96893 0.176242 7.70416 0.449083 7.59558L17.0088 1.00635C17.0839 0.974433 17.1634 0.956003 17.2436 0.951063C17.2723 0.949353 17.3011 0.949353 17.3297 0.950968C17.4958 0.960848 17.6589 1.02849 17.7862 1.15332C17.7994 1.16624 17.8119 1.17944 17.8238 1.19322C17.9292 1.31368 17.9872 1.46055 17.9981 1.61018C18.0008 1.6478 18.0006 1.68589 17.9973 1.72399C17.995 1.75116 17.9911 1.77823 17.9856 1.80512L15.1904 16.4712C15.1454 16.7068 14.9851 16.904 14.7635 16.9959C14.6757 17.0323 14.5829 17.0503 14.4905 17.0503ZM9.96194 12.4051L13.9935 15.1396L16.1684 3.72783L8.31312 11.2866L9.94294 12.3922C9.9495 12.3963 9.95577 12.4007 9.96194 12.4051ZM6.60587 11.797L7.14566 13.8423L8.30865 13.0055L6.7858 11.9724C6.71502 11.9246 6.65441 11.8649 6.60587 11.797ZM2.67295 8.24433L5.66337 9.38766C5.87759 9.46955 6.03928 9.64967 6.0978 9.8714L6.47705 11.3087C6.49443 11.1429 6.56958 10.9869 6.69165 10.8694L14.1766 3.66703L2.67295 8.24433Z" fill="#3685D7"/>
</g>
<defs>
<clipPath id="clip0">
<rect width="18" height="18" fill="white"/>
</clipPath>
</defs>
</svg>
