<svg width="93" height="67" viewBox="0 0 93 67" fill="none" xmlns="http://www.w3.org/2000/svg">
<path d="M22.1569 16.3771C21.6573 16.2773 21.3326 15.803 21.4325 15.3037C21.5324 14.8045 22.0071 14.48 22.5066 14.5798L42.6652 18.7984C43.1648 18.9233 43.4895 19.3975 43.3896 19.8968C43.2647 20.3711 42.7901 20.6956 42.2905 20.5957L22.1569 16.3771ZM28.1271 22.0435C27.6275 21.9437 27.3027 21.4694 27.4027 20.9702C27.5276 20.4959 28.0022 20.1714 28.5018 20.2712L37.0948 22.0435C37.5694 22.1683 37.8941 22.6426 37.7942 23.1419C37.6943 23.6161 37.2197 23.9407 36.7201 23.8408L28.1271 22.0435ZM47.5862 14.7546L59.1518 5.74323C60.7505 1.9989 60.7755 -3.39293 64.6473 2.87258L64.7722 3.09724L76.8873 7.09119C77.8116 7.39073 78.461 7.84005 78.461 8.81358V13.5564C78.461 14.1305 78.0114 14.5798 77.4619 14.5798H63.8979C63.6481 14.5798 63.5232 14.7047 63.5232 14.9792C63.5232 15.3537 63.5232 15.0791 63.5232 15.803C63.5232 15.9777 63.5732 16.0776 63.6981 16.1525C63.9729 16.3022 64.2726 16.452 64.7222 16.7765C65.4467 17.2758 66.271 17.8998 67.0204 18.6736C67.8947 19.5723 68.6441 20.6207 68.9688 21.7939C69.3435 23.042 69.2186 24.4149 68.2693 25.7629C68.0196 26.1124 67.7448 26.4618 67.3951 26.7863C65.5965 28.5337 61.9245 29.9815 57.8279 31.1048C49.9843 33.2765 40.442 34.3998 40.0923 34.4497C39.5178 34.4997 39.0182 34.1003 38.9682 33.5511C38.9183 33.0019 39.318 32.5027 39.8675 32.4528C40.2172 32.4278 49.5596 31.3045 57.2533 29.1827C61.0752 28.1343 64.4225 26.8363 65.9462 25.3635C66.221 25.1139 66.3959 24.8643 66.5707 24.6396C67.1203 23.8658 67.1952 23.0919 66.9954 22.368C66.7706 21.5693 66.221 20.7954 65.5466 20.1214C64.8971 19.4724 64.1727 18.8983 63.5482 18.4739C63.0986 18.1744 62.7988 18.0246 62.574 17.8998C62.1993 17.7001 61.9995 17.5753 61.7746 17.2758C61.4749 16.8514 61.4749 16.5269 61.4749 15.6532C61.4749 15.2289 61.4749 16.5768 61.4749 15.3537V13.6562C61.4749 13.1071 61.9495 12.6578 62.4991 12.6578H75.9631C76.2379 12.6578 76.4127 12.4331 76.4127 12.2584C76.4127 12.0587 76.4377 11.7841 76.4377 10.5859C76.4377 9.16305 76.5376 9.21297 75.6633 8.93839C68.0445 6.41721 67.8947 6.39225 63.848 5.04429C63.6231 4.9694 63.4233 4.84459 63.2984 4.61993C61.5498 1.49966 62.6739 2.44822 60.9503 6.91645C60.8754 7.06623 60.7755 7.216 60.6256 7.34081L48.4855 16.7765C48.2607 16.9512 47.9609 17.0511 47.6612 16.9762L14.3633 10.2863C13.8387 10.1865 13.489 9.66229 13.5889 9.11312C13.6888 8.58892 14.2134 8.21449 14.763 8.3393L47.5862 14.7546Z" fill="#FF1654"/>
<path d="M76.113 58.0642V52.4477C76.113 51.4992 75.9631 50.6255 75.6383 49.8517C75.3386 49.0529 74.864 48.3539 74.2395 47.7049C73.615 47.0559 72.9156 46.5567 72.1412 46.2322C71.3668 45.9076 70.5175 45.7579 69.5933 45.7579C68.669 45.7579 67.7947 45.9326 67.0204 46.2571C66.246 46.5816 65.5216 47.0809 64.8721 47.7299C64.2227 48.3789 63.7231 49.1028 63.3983 49.9016C63.0736 50.6754 62.8987 51.5491 62.8987 52.4727C62.8987 53.3963 63.0736 54.245 63.3733 55.0188C63.6981 55.7927 64.1977 56.4916 64.8471 57.1157C66.1461 58.3388 67.7198 58.9629 69.5933 58.9629C70.3676 58.9629 71.0671 58.838 71.7165 58.6384C72.341 58.4137 72.9405 58.1141 73.4651 57.6898C73.565 57.5899 73.6899 57.54 73.8398 57.54C74.1396 57.54 74.3894 57.7896 74.3894 58.0892C74.4143 59.0627 76.113 59.3373 76.113 58.0642ZM67.6698 56.916C67.0703 56.6913 66.5458 56.3169 66.0711 55.8675C65.5716 55.4182 65.2218 54.894 64.972 54.3199C64.7222 53.7458 64.5974 53.1217 64.5974 52.4477C64.5974 51.7738 64.7222 51.1497 64.972 50.5506C65.2218 49.9515 65.5965 49.4273 66.0711 48.9281C67.0703 47.9296 68.2444 47.4303 69.5933 47.4303C70.2677 47.4303 70.8922 47.5551 71.4668 47.8048C72.0413 48.0544 72.5658 48.4288 73.0405 48.9281C73.4901 49.4023 73.8398 49.9515 74.0646 50.5256C74.2894 51.1247 74.4143 51.7488 74.4143 52.4228C74.4143 53.0967 74.2894 53.7208 74.0646 54.2949C73.8398 54.8691 73.4901 55.3933 73.0405 55.8426C72.5658 56.3169 72.0413 56.6663 71.4668 56.891C70.8922 57.1157 70.2677 57.2405 69.5933 57.2405C68.8938 57.2654 68.2694 57.1406 67.6698 56.916ZM80.4344 65.3282V58.189C80.4344 58.0642 80.4594 57.9644 80.5593 57.8645C80.7342 57.6149 81.0839 57.565 81.3337 57.7397C81.9332 58.189 82.5827 58.5385 83.2571 58.7632C83.9316 58.9878 84.631 59.0877 85.3804 59.0877C87.2289 59.0877 88.8026 58.4387 90.1016 57.1656C91.4005 55.8675 92.025 54.3199 92.025 52.4477C92.025 45.0589 81.9582 43.3865 79.2354 49.9266C78.9107 50.7004 78.7358 51.5491 78.7358 52.4477V65.3282C78.7108 66.4515 80.4344 66.4265 80.4344 65.3282ZM80.8091 54.3449C80.5593 53.7458 80.4344 53.1467 80.4344 52.4727V52.4477C80.4344 51.7738 80.5593 51.1497 80.7841 50.5506C81.034 49.9765 81.3837 49.4273 81.8833 48.953C82.8325 48.0045 83.9816 47.5302 85.3554 47.5302C86.0299 47.5302 86.6544 47.655 87.2539 47.8797C87.8534 48.1293 88.378 48.4787 88.8526 48.978H88.8776C89.3522 49.4772 89.7019 50.0264 89.9267 50.6005C90.1765 51.1747 90.2764 51.7987 90.2764 52.4477C90.2764 53.1217 90.1515 53.7458 89.9267 54.3199C89.7019 54.894 89.3272 55.4432 88.8526 55.8925C87.8784 56.866 86.7043 57.3403 85.3554 57.3403C84.681 57.3403 84.0565 57.2155 83.482 56.9908C82.8824 56.7412 82.3579 56.3918 81.9082 55.9175C81.4086 55.4682 81.0589 54.944 80.8091 54.3449ZM58.2026 49.627C58.3774 50.0514 58.4524 50.5007 58.4524 50.975V58.1391C58.4524 59.2624 60.1759 59.2624 60.1759 58.1391V50.925C60.151 50.2011 60.0261 49.5272 59.7513 48.9281C59.5015 48.329 59.1018 47.7548 58.6022 47.2556C57.5781 46.2322 56.3541 45.7329 54.8803 45.7329C54.1559 45.7329 53.4814 45.8577 52.8819 46.1073C52.2824 46.357 51.7079 46.7564 51.2083 47.2556C50.7087 47.7548 50.309 48.329 50.0592 48.9281C49.8094 49.5272 49.6595 50.1762 49.6595 50.9001V50.925V58.1391C49.6595 59.2624 51.3831 59.2624 51.3831 58.1391V50.975C51.3831 50.5007 51.483 50.0514 51.6329 49.627C51.7828 49.2026 52.0576 48.8282 52.4073 48.4787C52.757 48.1293 53.1317 47.8797 53.5314 47.7049C53.956 47.5302 54.4057 47.4303 54.8803 47.4303C55.3799 47.4303 55.8295 47.5302 56.2292 47.7049C56.6538 47.8797 57.0535 48.1542 57.3782 48.4787C57.7779 48.8282 58.0277 49.2276 58.2026 49.627ZM38.069 54.7942C38.2688 54.0952 38.4187 53.4213 38.4686 52.7473L38.5186 50.9999V50.975C38.5186 50.5007 38.5935 50.0514 38.7684 49.627C38.9433 49.2026 39.1931 48.8282 39.5428 48.4787C39.8675 48.1293 40.2672 47.8797 40.6669 47.7049C41.0915 47.5302 41.5411 47.4303 42.0158 47.4303C42.5153 47.4303 42.965 47.5302 43.3896 47.7049C43.8143 47.8797 44.189 48.1542 44.5387 48.4787C44.8884 48.8282 45.1382 49.2026 45.3131 49.627C45.4879 50.0514 45.5629 50.5007 45.5629 50.975V58.1391C45.5629 59.2624 47.2865 59.2624 47.2865 58.1391V50.925C47.2615 50.2011 47.1366 49.5272 46.8868 48.9281C46.637 48.329 46.2373 47.7548 45.7377 47.2556C44.7136 46.2322 43.4896 45.7329 42.0158 45.7329C40.5919 45.7329 39.3679 46.2322 38.3437 47.2556C37.8442 47.7548 37.4695 48.329 37.1947 48.9281C36.9449 49.5272 36.795 50.1762 36.795 50.9001C36.795 50.925 36.795 50.925 36.795 50.925V52.2231V52.248C36.77 52.922 36.6951 53.571 36.5452 54.1701C36.4203 54.7692 36.2205 55.3433 35.9457 55.8675C35.9457 55.8925 35.9457 55.8925 35.9207 55.8925C35.571 56.5665 35.0215 57.0907 34.297 57.4651C33.3728 58.0642 34.2221 59.537 35.1963 58.9379H35.2213C35.621 58.7132 35.9957 58.4137 36.3204 58.0892C36.6451 57.7647 36.9449 57.3653 37.1947 56.9409C37.5944 56.1921 37.8691 55.4931 38.069 54.7942ZM30.675 64.5544C31.7241 63.506 32.2487 62.2579 32.2487 60.7851V46.6565C32.2487 45.5332 30.5251 45.5332 30.5251 46.6565V53.7707C30.5251 54.245 30.4252 54.6943 30.2753 55.1187C30.1005 55.543 29.8507 55.9175 29.501 56.2669C29.1512 56.6164 28.7765 56.866 28.3519 57.0408C27.9272 57.2155 27.4776 57.2904 27.003 57.2904C26.5284 57.2904 26.0787 57.2155 25.6541 57.0408C25.2544 56.866 24.8797 56.6164 24.53 56.2669C24.1803 55.9175 23.9305 55.543 23.7556 55.1436C23.5808 54.7193 23.4809 54.27 23.4809 53.7957V46.6815C23.4809 45.5831 21.7822 45.5582 21.7822 46.6815V53.8207C21.8072 55.2185 22.3318 56.4417 23.331 57.4402L23.356 57.4651C24.3551 58.4636 25.5791 58.9629 27.003 58.9629C27.5026 58.9629 27.9772 58.888 28.4018 58.7881C28.8265 58.6633 29.2512 58.4886 29.6259 58.2639C29.7258 58.189 29.8257 58.1641 29.9506 58.1641C30.2503 58.1641 30.5251 58.4137 30.5251 58.7132V60.7851C30.5251 61.8085 30.1754 62.6573 29.476 63.3562C29.1263 63.7057 28.7266 63.9803 28.277 64.155C27.8273 64.3297 27.3777 64.4046 26.8531 64.4046C26.1287 64.4046 25.4792 64.2299 24.9297 63.8804C24.3801 63.5559 23.9305 63.0567 23.5808 62.4076C23.5558 62.3827 23.5558 62.3577 23.5558 62.3328C23.256 61.5839 21.9321 61.8585 21.9571 62.7571C21.9571 62.8819 22.0071 62.9818 22.057 63.1066C22.2818 63.5559 22.5566 63.9553 22.8813 64.3297C23.2061 64.7042 23.6058 65.0037 24.0304 65.3033C24.4551 65.5529 24.9047 65.7775 25.3543 65.9023C25.8289 66.0272 26.3285 66.102 26.8531 66.102C27.5775 66.102 28.277 65.9772 28.9014 65.7026C29.5509 65.478 30.1254 65.0786 30.675 64.5544ZM19.0844 58.1641V51.2246C19.0844 50.8751 19.0844 51.2246 19.0844 50.8751C19.0595 49.4772 18.5599 48.304 17.5607 47.3055C17.0611 46.7813 16.4866 46.4069 15.887 46.1573C15.2875 45.9076 14.6131 45.7828 13.8887 45.7828C13.0893 45.7828 12.3649 45.9326 11.7155 46.2322C11.066 46.5317 10.4914 46.981 9.99186 47.5801C9.96688 47.6051 9.9419 47.63 9.91692 47.655C9.66712 47.8547 9.31741 47.8297 9.11757 47.5801C8.11838 46.4069 6.81944 45.8078 5.22074 45.8078C4.49634 45.8078 3.82188 45.9326 3.22237 46.1822C1.29894 46.9311 0 48.8532 0 50.925V58.1391C0 59.2125 1.7236 59.3623 1.7236 58.1391V50.925C1.7236 50.4508 1.79853 50.0014 1.97339 49.602C2.14825 49.1777 2.39805 48.8033 2.74776 48.4787L2.77274 48.4538C3.12245 48.1293 3.49715 47.8797 3.9218 47.7299C4.34646 47.5551 4.77111 47.4803 5.22074 47.4803C5.67038 47.4803 6.09503 47.5551 6.51969 47.7299C6.91936 47.9046 7.29405 48.1293 7.66875 48.4538C7.69373 48.4787 7.69373 48.4787 7.71871 48.5037C8.04344 48.8532 8.29324 49.2526 8.44312 49.652C8.61798 50.0514 8.69291 50.5007 8.69291 50.95V58.1641C8.69291 59.2624 10.4165 59.3623 10.4165 58.1641V50.95C10.4165 50.4757 10.4914 50.0264 10.6663 49.627C10.8412 49.2026 11.091 48.8282 11.4407 48.5037L11.4657 48.4787C11.8154 48.1542 12.1901 47.9046 12.6147 47.7548C13.0394 47.5801 13.464 47.5052 13.9137 47.5052C14.3633 47.5052 14.7879 47.5801 15.2126 47.7548C15.6123 47.9046 15.962 48.1542 16.3117 48.4538C16.3367 48.4787 16.3617 48.4787 16.3866 48.5037C16.7114 48.8532 16.9862 49.2276 17.161 49.627C17.3359 50.0264 17.4108 50.4757 17.4108 50.95V58.1641C17.3608 59.3623 19.0844 59.2374 19.0844 58.1641Z" fill="#FF1654"/>
</svg>
