<svg width="1920" height="4377" viewBox="0 0 1920 4377" fill="none" xmlns="http://www.w3.org/2000/svg">
<path d="M1648.52 3583.84C1757.12 3577.15 1927.43 3583.84 1927.43 3583.84V4334.2C1927.43 4334.2 1838.42 4338.25 1781.76 4334.2C1667 4326 1611.85 4281.69 1497.38 4271.21C1363.97 4258.98 1288.56 4293.05 1154.34 4289.94C986.72 4286.07 894.179 4264.95 729.762 4238.51C601.541 4217.9 534.838 4178.99 404.121 4175.92C242.411 4172.11 0.425499 4250.47 0.425499 4250.47V3571.88C0.425499 3571.88 295.818 3542.43 485.656 3546.36C655.689 3549.88 749.553 3569.38 918.684 3583.84C1090.1 3598.5 1185.53 3628.2 1357.68 3620.92C1472.52 3616.06 1533.85 3590.9 1648.52 3583.84Z" fill="url(#paint0_linear)"/>
<path d="M1621.08 3701.01C1738.42 3694.99 1922.43 3701.01 1922.43 3701.01V4375.38C1922.43 4375.38 1826.26 4379.02 1765.04 4375.38C1641.05 4368.02 1581.47 4328.19 1457.79 4318.77C1313.65 4307.78 1232.17 4338.4 1087.15 4335.61C906.053 4332.12 806.068 4313.14 628.427 4289.38C489.892 4270.86 417.824 4235.89 276.593 4233.13C191.535 4231.46 85.9216 4247.3 -0.074501 4263.99V3679.01C109.092 3672.3 253.611 3665.41 364.686 3667.32C548.396 3670.48 649.809 3688.01 832.545 3701.01C1017.75 3714.18 1120.86 3740.88 1306.85 3734.33C1430.93 3729.96 1497.19 3707.36 1621.08 3701.01Z" fill="url(#paint1_linear)"/>
<path d="M1139.61 2843.67C905.28 2885.6 704.78 2859.54 489.088 2825.06C313.717 2797.04 81.5259 2783.69 0.846402 2779.69L0.397115 2544.13L-0.0745001 2068L1.07821 2056.75C38.9171 2067.49 141.151 2095.92 214.607 2110.72C425.359 2153.21 555.041 2154 775.068 2159.37C972.72 2164.2 1081.04 2136.15 1278.66 2143.47C1486.52 2151.18 1597.87 2192.94 1805.71 2201.25C1853.8 2203.17 1877.23 2207.58 1920.43 2212.5L1920.43 2453L1921.81 2816.22C1724.9 2832.04 1603.91 2736.4 1411.54 2760.84C1289.61 2776.32 1257.53 2822.58 1139.61 2843.67Z" fill="url(#paint2_linear)" fill-opacity="0.5"/>
<path d="M0.425499 2813.57V2123.85V1983C35.1825 1993.58 129.067 2021.47 196.317 2035.06C389.264 2074.04 507.054 2068.89 707.054 2064.79C886.716 2061.11 984.044 2023.81 1163.77 2023C1352.81 2022.15 1455.46 2064.94 1644.5 2064.79C1745.92 2064.71 1834.38 2084.37 1915.94 2077.93C1917.77 2077.78 1918.6 2077.62 1920.43 2077.45V2725C1873.47 2742.39 1819.03 2758.92 1772.62 2766.05C1594.4 2793.42 1480.99 2689.17 1307.21 2726.23C1197.06 2749.72 1169.63 2804.37 1063.33 2834.12C852.094 2893.24 669.062 2872.65 471.926 2843.11C274.79 2813.57 0.425499 2813.57 0.425499 2813.57Z" fill="url(#paint3_linear)"/>
<path d="M1360.76 1277.2C1637.05 1251.67 1691.9 1256.15 1880.94 1301.05C1893.55 1304.04 1906.86 1307.65 1920.43 1311.63V482.672C1816.71 485.039 1666.17 476.549 1469.84 435.379C1058.74 349.172 559.642 417.028 370.974 464.504C207.758 505.575 84.7156 507.719 0.425537 498.607V1383C41.2377 1373.31 84.8376 1363.6 121.98 1356.8C237.642 1335.59 303.893 1318.36 424.995 1317.84C519.349 1317.43 569.686 1335.42 663.768 1339.67C938.272 1352.07 1084.46 1302.74 1360.76 1277.2Z" fill="url(#paint4_linear)"/>
<path d="M1739.34 1270.44C1815.05 1289.61 1920.43 1336.08 1920.43 1336.08V502.704C1920.43 502.704 1739.34 555.092 1385.43 475.976C1031.51 396.859 601.848 459.134 439.425 502.704C142.925 582.242 0.425171 502.704 0.425171 502.704V1378C0.425171 1378 134.869 1339.23 225.07 1321.6C324.642 1302.14 381.676 1286.33 485.931 1285.85C567.16 1285.48 610.494 1301.98 691.488 1305.88C927.806 1317.27 1053.66 1271.99 1291.52 1248.56C1529.38 1225.12 1576.59 1229.23 1739.34 1270.44Z" fill="url(#paint5_linear)"/>
<rect x="0.425499" width="1920" height="622" fill="white"/>
<defs>
<linearGradient id="paint0_linear" x1="994.252" y1="4311.08" x2="1005.44" y2="3504.01" gradientUnits="userSpaceOnUse">
<stop stop-color="#C8E3FF"/>
<stop offset="1" stop-color="#C4C4C4" stop-opacity="0"/>
<stop offset="1" stop-color="#E4E4E4" stop-opacity="0.91"/>
</linearGradient>
<linearGradient id="paint1_linear" x1="914.192" y1="4354.6" x2="922.56" y2="3629.22" gradientUnits="userSpaceOnUse">
<stop stop-color="#C8E3FF" stop-opacity="0.51"/>
<stop offset="1" stop-color="#C4C4C4" stop-opacity="0"/>
<stop offset="1" stop-color="#E4E4E4" stop-opacity="0.91"/>
</linearGradient>
<linearGradient id="paint2_linear" x1="1154.13" y1="2103.6" x2="1122.75" y2="2875.95" gradientUnits="userSpaceOnUse">
<stop stop-color="#C4C4C4"/>
<stop offset="1" stop-color="#C8E3FF"/>
</linearGradient>
<linearGradient id="paint3_linear" x1="1049.22" y1="1983" x2="1049.65" y2="2759.94" gradientUnits="userSpaceOnUse">
<stop stop-color="#DBEDFF"/>
<stop offset="1" stop-color="#EDF6FF"/>
<stop offset="1" stop-color="white"/>
</linearGradient>
<linearGradient id="paint4_linear" x1="1057.1" y1="156.262" x2="1008.6" y2="1419.5" gradientUnits="userSpaceOnUse">
<stop stop-color="#E5E5E5" stop-opacity="0.11"/>
<stop offset="1" stop-color="#E5EEF8"/>
</linearGradient>
<linearGradient id="paint5_linear" x1="970.426" y1="562.74" x2="964.577" y2="1378.03" gradientUnits="userSpaceOnUse">
<stop offset="0.104374" stop-color="white"/>
<stop offset="1" stop-color="#C8E3FF"/>
</linearGradient>
</defs>
</svg>
