<svg width="14" height="10" viewBox="0 0 14 13" fill="none" xmlns="http://www.w3.org/2000/svg">
<circle cx="7.49121" cy="6.5" r="6.5" fill="#75AEE8"/>
<path d="M6.73741 7.448C6.73741 7.052 6.82541 6.72567 7.00141 6.469C7.18474 6.205 7.44874 5.919 7.79341 5.611C8.05741 5.37633 8.25174 5.17467 8.37641 5.006C8.50841 4.83 8.57441 4.632 8.57441 4.412C8.57441 4.104 8.44974 3.85467 8.20041 3.664C7.95108 3.47333 7.61741 3.378 7.19941 3.378C6.40741 3.378 5.80974 3.66033 5.40641 4.225L4.33941 3.532C4.65474 3.09933 5.06174 2.76933 5.56041 2.542C6.05908 2.30733 6.64574 2.19 7.32041 2.19C8.14174 2.19 8.79441 2.36967 9.27841 2.729C9.76974 3.081 10.0154 3.56867 10.0154 4.192C10.0154 4.49267 9.96408 4.75667 9.86141 4.984C9.76608 5.21133 9.64874 5.40567 9.50941 5.567C9.37008 5.721 9.18674 5.90067 8.95941 6.106C8.68074 6.35533 8.47174 6.57533 8.33241 6.766C8.20041 6.95667 8.13441 7.184 8.13441 7.448H6.73741ZM7.44141 10.077C7.18474 10.077 6.97208 9.99633 6.80341 9.835C6.64208 9.66633 6.56141 9.461 6.56141 9.219C6.56141 8.977 6.64208 8.77533 6.80341 8.614C6.97208 8.45267 7.18474 8.372 7.44141 8.372C7.69074 8.372 7.89608 8.45267 8.05741 8.614C8.22608 8.77533 8.31041 8.977 8.31041 9.219C8.31041 9.461 8.22608 9.66633 8.05741 9.835C7.89608 9.99633 7.69074 10.077 7.44141 10.077Z" fill="white"/>
</svg>
