<svg width="70" height="70" viewBox="0 0 70 70" fill="none" xmlns="http://www.w3.org/2000/svg">
<circle cx="35" cy="35" r="35" fill="#3685D7"/>
<path d="M47.6667 19H22.3333C20.4933 19.0022 19.0022 20.4933 19 22.3333V47.6666C19.0022 49.5067 20.4933 50.9978 22.3333 51H47.6666C49.5067 50.9978 50.9978 49.5067 50.9999 47.6667V22.3333C50.9978 20.4933 49.5067 19.0022 47.6667 19ZM49.6667 47.6667C49.6667 48.7712 48.7713 49.6667 47.6667 49.6667H22.3333C21.2288 49.6667 20.3333 48.7712 20.3333 47.6667V22.3333C20.3333 21.2287 21.2288 20.3333 22.3333 20.3333H47.6666C48.7712 20.3333 49.6666 21.2287 49.6666 22.3333V47.6667H49.6667Z" fill="white"/>
<path d="M48.3334 24.3333H21.6667V25.6666H48.3334V24.3333Z" fill="white"/>
<path d="M23.6666 21.6667H22.3333V23.0001H23.6666V21.6667Z" fill="white"/>
<path d="M26.3333 21.6667H25V23.0001H26.3333V21.6667Z" fill="white"/>
<path d="M47.6666 21.6667H46.3333V23.0001H47.6666V21.6667Z" fill="white"/>
<path d="M45.0001 28.3333H25.0001C24.2637 28.3333 23.6667 28.9302 23.6667 29.6666V32.3333C23.6667 33.0696 24.2637 33.6666 25.0001 33.6666H45.0001C45.7364 33.6666 46.3334 33.0696 46.3334 32.3333V29.6666C46.3334 28.9303 45.7364 28.3333 45.0001 28.3333ZM45.0001 32.3333H25.0001V29.6666H45.0001V32.3333Z" fill="white"/>
<path d="M45.0001 35.6667H25.0001C24.2637 35.6667 23.6667 36.2637 23.6667 37.0001V39.6667C23.6667 40.4031 24.2637 41.0001 25.0001 41.0001H45.0001C45.7364 41.0001 46.3334 40.4031 46.3334 39.6667V37.0001C46.3334 36.2637 45.7364 35.6667 45.0001 35.6667ZM45.0001 39.6667H25.0001V37.0001H45.0001V39.6667Z" fill="white"/>
<path d="M29.6667 43H24.3333C23.9651 43 23.6666 43.2985 23.6666 43.6667V45.6667C23.6667 46.4031 24.2636 47 25 47H29C29.7364 47 30.3333 46.4031 30.3333 45.6667V43.6667C30.3333 43.2985 30.0349 43 29.6667 43ZM29 45.6667H25V44.3334H29V45.6667Z" fill="white"/>
<path d="M37.6667 43H32.3334C31.9652 43 31.6667 43.2985 31.6667 43.6667V45.6667C31.6667 46.4031 32.2636 47 33 47H37C37.7364 47 38.3333 46.4031 38.3333 45.6667V43.6667C38.3333 43.2985 38.0349 43 37.6667 43ZM37 45.6667H33V44.3334H37V45.6667Z" fill="white"/>
<path d="M46.3333 43H45V44.3333H46.3333V43Z" fill="white"/>
<path d="M43.6666 43H42.3333V44.3333H43.6666V43Z" fill="white"/>
<path d="M46.3333 45.6667H40.3333V47.0001H46.3333V45.6667Z" fill="white"/>
</svg>
