<svg width="13" height="7" viewBox="0 0 13 7" fill="none" xmlns="http://www.w3.org/2000/svg">
<path d="M6.62671 6.87786L12.2298 1.27452C12.3099 1.19434 12.3501 1.10206 12.3501 0.997911C12.3501 0.893719 12.3099 0.801488 12.2298 0.721343L11.6285 0.120238C11.5484 0.039967 11.4563 0 11.352 0C11.2476 0 11.1556 0.039967 11.0754 0.120238L6.34997 4.84569L1.62445 0.120238C1.5443 0.039967 1.45207 0 1.34801 0C1.24369 0 1.15146 0.039967 1.07131 0.120238L0.470293 0.721385C0.390064 0.80153 0.350097 0.893761 0.350097 0.997954C0.350097 1.1021 0.390149 1.19434 0.470293 1.27452L6.0734 6.87757C6.15351 6.95767 6.24578 6.99776 6.34997 6.99776C6.45416 6.99776 6.54639 6.95796 6.62671 6.87786Z" fill="#3685D7"/>
</svg>
