<svg width="71" height="67" viewBox="0 0 71 67" fill="none" xmlns="http://www.w3.org/2000/svg">
    <ellipse cx="35.9863" cy="33.2981" rx="34.9991" ry="33.2476" fill="#FF9700"/>
    <g clip-path="url(#clip0)">
        <path d="M52.9588 18.6131C52.883 17.2228 51.7773 16.1172 50.387 16.0413C47.5816 15.8881 42.0921 16.0371 36.8429 18.7522C34.167 20.1363 31.3369 22.483 29.0784 25.1906C29.0506 25.224 29.0235 25.2575 28.9959 25.291L23.8703 25.6869C23.0266 25.7521 22.2751 26.1943 21.8085 26.9001L18.3117 32.1892C17.9578 32.7244 17.9015 33.3943 18.1611 33.981C18.4207 34.5678 18.9542 34.9767 19.5882 35.075L23.9065 35.7438C23.8913 35.8277 23.876 35.9116 23.862 35.9956C23.7182 36.8555 24.0031 37.7397 24.6242 38.3607L30.6393 44.3759C31.1543 44.8908 31.8501 45.1747 32.5631 45.1747C32.7099 45.1747 32.8576 45.1626 33.0046 45.1381C33.0885 45.1241 33.1724 45.1088 33.2563 45.0935L33.9251 49.4119C34.0234 50.0459 34.4323 50.5795 35.019 50.839C35.2631 50.9471 35.5214 51.0004 35.7786 51.0004C36.1397 51.0003 36.4983 50.8952 36.8109 50.6885L42.1 47.1916C42.8058 46.7249 43.2479 45.9734 43.313 45.1298L43.709 40.0043C43.7424 39.9767 43.776 39.9496 43.8094 39.9218C46.517 37.6633 48.8638 34.8332 50.2479 32.1572C52.963 26.9078 53.1119 21.4182 52.9588 18.6131ZM40.969 45.4808L35.9096 48.8259L35.2577 44.6173C37.396 43.9886 39.5113 42.9817 41.5264 41.6327L41.2685 44.9718C41.2525 45.1801 41.1432 45.3657 40.969 45.4808ZM32.0894 42.9258L26.0743 36.9106C25.9208 36.7571 25.8499 36.5414 25.8846 36.3337C26.0635 35.2643 26.3414 34.2464 26.6853 33.2874L35.7107 42.3128C34.559 42.7253 33.5274 42.9714 32.6664 43.1154C32.4583 43.15 32.2429 43.0792 32.0894 42.9258ZM24.0283 27.7316L27.3672 27.4737C26.0182 29.4888 25.0113 31.6041 24.3826 33.7424L20.1741 33.0906L23.5192 28.0311C23.6345 27.8568 23.8201 27.7477 24.0283 27.7316ZM42.4959 38.3468C40.8394 39.7286 39.2313 40.728 37.7492 41.4512L27.5485 31.2505C28.4958 29.3157 29.652 27.7045 30.6532 26.5043C32.7433 23.9986 35.3428 21.837 37.7852 20.5737C42.6028 18.0818 47.6785 17.9476 50.2753 18.089C50.6191 18.1077 50.8924 18.3811 50.9112 18.7248C51.0527 21.3217 50.9183 26.3974 48.4264 31.215C47.1631 33.6573 45.0016 36.2568 42.4959 38.3468Z" fill="white"/>
        <path d="M41.9751 32.1494C43.2877 32.1492 44.6009 31.6495 45.6002 30.6502C46.5686 29.6819 47.1018 28.3944 47.1018 27.025C47.1018 25.6557 46.5686 24.3682 45.6002 23.3999C43.6013 21.4008 40.3487 21.401 38.3499 23.3999C37.3815 24.3682 36.8483 25.6557 36.8483 27.025C36.8483 28.3944 37.3816 29.6819 38.3499 30.6502C39.3495 31.6497 40.662 32.1495 41.9751 32.1494ZM39.7999 24.8499C40.3995 24.2502 41.1872 23.9504 41.9749 23.9504C42.7627 23.9504 43.5504 24.2502 44.1501 24.8499C44.7311 25.4309 45.051 26.2033 45.051 27.025C45.051 27.8466 44.7311 28.6191 44.1501 29.2001C42.9508 30.3994 40.9992 30.3994 39.7998 29.2001C39.2188 28.6191 38.8988 27.8466 38.8988 27.025C38.8988 26.2034 39.2189 25.4309 39.7999 24.8499Z" fill="white"/>
        <path d="M19.046 44.8434C19.3084 44.8434 19.5708 44.7433 19.771 44.543L23.1188 41.1953C23.5192 40.7948 23.5192 40.1456 23.1188 39.7452C22.7184 39.3447 22.0691 39.3447 21.6687 39.7452L18.321 43.0929C17.9205 43.4934 17.9205 44.1426 18.321 44.543C18.5211 44.7433 18.7836 44.8434 19.046 44.8434Z" fill="white"/>
        <path d="M26.1868 42.8133C25.7864 42.4128 25.1372 42.4128 24.7367 42.8133L18.3004 49.2497C17.8999 49.6501 17.8999 50.2993 18.3004 50.6998C18.5006 50.9 18.763 51.0001 19.0254 51.0001C19.2878 51.0001 19.5503 50.9 19.7504 50.6997L26.1867 44.2634C26.5873 43.8629 26.5873 43.2137 26.1868 42.8133Z" fill="white"/>
        <path d="M27.8048 45.8811L24.457 49.2289C24.0566 49.6294 24.0566 50.2786 24.457 50.679C24.6572 50.8792 24.9197 50.9794 25.182 50.9794C25.4444 50.9794 25.7069 50.8793 25.9071 50.679L29.2548 47.3313C29.6553 46.9308 29.6553 46.2816 29.2548 45.8811C28.8544 45.4807 28.2052 45.4807 27.8048 45.8811Z" fill="white"/>
    </g>
    <defs>
        <clipPath id="clip0">
            <rect width="35" height="35" fill="white" transform="translate(18 16)"/>
        </clipPath>
    </defs>
</svg>
