<svg width="80" height="80" viewBox="0 0 80 80" fill="none" xmlns="http://www.w3.org/2000/svg">
<circle cx="40" cy="40" r="40" fill="#3685D7"/>
<g clip-path="url(#clip0)">
<path d="M59.827 21.2058C59.7666 20.661 59.3366 20.2307 58.7915 20.1703C49.5179 19.1404 41.6126 22.8501 35.1642 29.488C33.3188 31.3877 31.7182 33.3985 30.3519 35.3391C28.0396 35.2451 25.4758 36.2912 23.6582 38.1089L20.3434 41.4237C19.9683 41.7987 19.892 42.3792 20.1572 42.8385C20.4224 43.2978 20.9629 43.5215 21.4756 43.3844C22.2446 43.1778 23.4943 42.9377 24.6949 42.8818C25.1337 42.8614 25.4984 42.8678 25.8014 42.891C25.0699 44.2978 24.5093 45.4764 24.3235 45.7715C24.0323 46.2348 24.0998 46.8375 24.4867 47.2245L26.4048 49.1425C23.6133 52.9496 23.5672 54.8993 23.577 55.1755C23.5975 55.7605 24.0537 56.3086 24.8093 56.3086C25.4636 56.3086 27.3401 56.0309 30.7563 53.494L32.7738 55.5115C33.1635 55.9012 33.7723 55.9665 34.2362 55.6687C34.5517 55.4657 35.6611 54.9286 36.9913 54.2334C37.0133 55.2249 36.8787 56.6809 36.5867 58.6545C36.4206 59.7739 37.7814 60.4477 38.5746 59.6549L41.8894 56.3401C43.5987 54.6308 44.5899 52.092 44.5166 49.7104C46.561 48.2819 48.6878 46.5967 50.6736 44.6494C57.2483 38.2019 60.8439 30.3565 59.827 21.2058ZM57.5852 22.4118C57.7723 24.9387 57.5727 27.388 56.9913 29.7583C55.5475 29.3036 54.1361 28.4104 52.8614 27.136C51.5821 25.8564 50.687 24.4391 50.2341 22.9901C52.6035 22.4173 55.0544 22.2232 57.5852 22.4118ZM24.542 40.5399L25.3153 39.7663C26.2507 38.8312 27.4671 38.1577 28.6768 37.855C28.0448 38.8581 27.4814 39.816 26.9846 40.7001C26.2171 40.5307 25.3638 40.4993 24.542 40.5399ZM26.7597 46.1829C27.0133 45.6824 27.32 45.055 27.883 43.9911L29.4257 45.5341C28.8517 46.1499 28.3335 46.735 27.8666 47.2895L26.7597 46.1829ZM32.4906 45.7346C33.3445 44.881 34.1633 44.7251 35.1804 44.7031C35.1581 45.6943 34.9991 46.5409 34.148 47.392C30.5097 51.0303 28.0158 52.6551 26.5244 53.3802C27.2602 51.8601 28.8892 49.336 32.4906 45.7346ZM33.8086 53.2318L32.6001 52.023C33.1519 51.5543 33.7351 51.0346 34.3503 50.4584L35.9925 52.1006C34.9128 52.677 34.4623 52.894 33.8086 53.2318ZM40.2317 54.6827L39.2936 55.6211C39.3696 54.4843 39.3433 53.656 39.2359 53.017C40.0977 52.5318 41.0337 51.9815 42.0145 51.366C41.735 52.605 41.1066 53.808 40.2317 54.6827ZM38.126 50.9195L36.0248 48.8181C37.5797 47.1073 37.5217 45.4587 37.5217 43.5327C37.5217 42.8855 36.9971 42.3609 36.3498 42.3609C34.5505 42.3609 32.819 42.2644 31.0645 43.8581L29.058 41.8515C34.5371 32.2437 40.8704 26.1609 47.9862 23.656C48.5495 25.4789 49.646 27.2351 51.2043 28.7934C52.7552 30.3446 54.5032 31.4383 56.3181 32.0038C53.7986 39.0805 47.7173 45.4099 38.126 50.9195Z" fill="white"/>
<path d="M49.5468 30.4505C47.262 28.1659 43.5443 28.1659 41.2598 30.4505C38.9752 32.7353 38.9752 36.453 41.2598 38.7375C43.5443 41.0221 47.262 41.0224 49.5468 38.7375C51.8314 36.453 51.8314 32.7353 49.5468 30.4505ZM47.8894 37.0801C46.5186 38.451 44.2877 38.451 42.9172 37.0801C41.5463 35.7093 41.5463 33.4787 42.9172 32.1079C44.2877 30.7373 46.5183 30.737 47.8894 32.1079C49.2603 33.4787 49.2603 35.7093 47.8894 37.0801Z" fill="white"/>
</g>
<defs>
<clipPath id="clip0">
<rect width="40" height="40" fill="white" transform="translate(20 20)"/>
</clipPath>
</defs>
</svg>
