<svg width="71" height="72" viewBox="0 0 71 72" fill="none" xmlns="http://www.w3.org/2000/svg">
<ellipse cx="35.875" cy="35.25" rx="35" ry="35" fill="#FF9700"/>
<path d="M51 23.8125C51 22.2616 49.7383 21 48.1875 21H23.8125C22.2617 21 21 22.2616 21 23.8125V29.4375C21 30.1573 21.2721 30.8145 21.7184 31.3125C21.2721 31.8105 21 32.4677 21 33.1875V38.8125C21 39.5323 21.2721 40.1895 21.7184 40.6875C21.2721 41.1855 21 41.8427 21 42.5625V48.1875C21 49.7384 22.2617 51 23.8125 51H48.1875C49.7383 51 51 49.7384 51 48.1875V42.5625C51 41.8427 50.7279 41.1855 50.2816 40.6875C50.7279 40.1895 51 39.5323 51 38.8125V33.1875C51 32.4677 50.7279 31.8105 50.2816 31.3125C50.7279 30.8145 51 30.1573 51 29.4375V23.8125ZM22.875 23.8125C22.875 23.2956 23.2956 22.875 23.8125 22.875H48.1875C48.7044 22.875 49.125 23.2956 49.125 23.8125V29.4375C49.125 29.9544 48.7044 30.375 48.1875 30.375H23.8125C23.2956 30.375 22.875 29.9544 22.875 29.4375V23.8125ZM49.125 33.1875V38.8125C49.125 39.3294 48.7044 39.75 48.1875 39.75H23.8125C23.2956 39.75 22.875 39.3294 22.875 38.8125V33.1875C22.875 32.6706 23.2956 32.25 23.8125 32.25H48.1875C48.7044 32.25 49.125 32.6706 49.125 33.1875ZM49.125 48.1875C49.125 48.7044 48.7044 49.125 48.1875 49.125H23.8125C23.2956 49.125 22.875 48.7044 22.875 48.1875V42.5625C22.875 42.0456 23.2956 41.625 23.8125 41.625H48.1875C48.7044 41.625 49.125 42.0456 49.125 42.5625V48.1875Z" fill="white"/>
<path d="M46.3125 28.5C46.8302 28.5 47.25 28.0803 47.25 27.5625V25.6875C47.25 25.1697 46.8302 24.75 46.3125 24.75C45.7948 24.75 45.375 25.1697 45.375 25.6875V27.5625C45.375 28.0803 45.7948 28.5 46.3125 28.5Z" fill="white"/>
<path d="M42.5625 28.5C43.0802 28.5 43.5 28.0803 43.5 27.5625V25.6875C43.5 25.1697 43.0802 24.75 42.5625 24.75C42.0448 24.75 41.625 25.1697 41.625 25.6875V27.5625C41.625 28.0803 42.0448 28.5 42.5625 28.5Z" fill="white"/>
<path d="M31.3125 27.5625H38.8125C39.3302 27.5625 39.75 27.1428 39.75 26.625C39.75 26.1072 39.3302 25.6875 38.8125 25.6875H31.3125C30.7948 25.6875 30.375 26.1072 30.375 26.625C30.375 27.1428 30.7948 27.5625 31.3125 27.5625Z" fill="white"/>
<path d="M26.625 37.875C27.6589 37.875 28.5 37.0339 28.5 36C28.5 34.9661 27.6589 34.125 26.625 34.125C25.5911 34.125 24.75 34.9661 24.75 36C24.75 37.0339 25.5911 37.875 26.625 37.875Z" fill="white"/>
<path d="M26.625 43.5C25.5911 43.5 24.75 44.3411 24.75 45.375C24.75 46.4089 25.5911 47.25 26.625 47.25C27.6589 47.25 28.5 46.4089 28.5 45.375C28.5 44.3411 27.6589 43.5 26.625 43.5Z" fill="white"/>
<path d="M26.625 28.5C27.6589 28.5 28.5 27.6589 28.5 26.625C28.5 25.5911 27.6589 24.75 26.625 24.75C25.5911 24.75 24.75 25.5911 24.75 26.625C24.75 27.6589 25.5911 28.5 26.625 28.5Z" fill="white"/>
<path d="M46.3125 37.875C46.8302 37.875 47.25 37.4553 47.25 36.9375V35.0625C47.25 34.5447 46.8302 34.125 46.3125 34.125C45.7948 34.125 45.375 34.5447 45.375 35.0625V36.9375C45.375 37.4553 45.7948 37.875 46.3125 37.875Z" fill="white"/>
<path d="M42.5625 37.875C43.0802 37.875 43.5 37.4553 43.5 36.9375V35.0625C43.5 34.5447 43.0802 34.125 42.5625 34.125C42.0448 34.125 41.625 34.5447 41.625 35.0625V36.9375C41.625 37.4553 42.0448 37.875 42.5625 37.875Z" fill="white"/>
<path d="M31.3125 36.9375H38.8125C39.3302 36.9375 39.75 36.5178 39.75 36C39.75 35.4822 39.3302 35.0625 38.8125 35.0625H31.3125C30.7948 35.0625 30.375 35.4822 30.375 36C30.375 36.5178 30.7948 36.9375 31.3125 36.9375Z" fill="white"/>
<path d="M46.3125 43.5C45.7948 43.5 45.375 43.9197 45.375 44.4375V46.3125C45.375 46.8303 45.7948 47.25 46.3125 47.25C46.8302 47.25 47.25 46.8303 47.25 46.3125V44.4375C47.25 43.9197 46.8302 43.5 46.3125 43.5Z" fill="white"/>
<path d="M42.5625 43.5C42.0448 43.5 41.625 43.9197 41.625 44.4375V46.3125C41.625 46.8303 42.0448 47.25 42.5625 47.25C43.0802 47.25 43.5 46.8303 43.5 46.3125V44.4375C43.5 43.9197 43.0802 43.5 42.5625 43.5Z" fill="white"/>
<path d="M38.8125 44.4375H31.3125C30.7948 44.4375 30.375 44.8572 30.375 45.375C30.375 45.8928 30.7948 46.3125 31.3125 46.3125H38.8125C39.3302 46.3125 39.75 45.8928 39.75 45.375C39.75 44.8572 39.3302 44.4375 38.8125 44.4375Z" fill="white"/>
</svg>
