<svg width="30" height="28" viewBox="0 0 30 28" fill="none" xmlns="http://www.w3.org/2000/svg">
<rect width="30" height="28" fill="#3685D7"/>
<g clip-path="url(#clip0)">
<path d="M16.3688 19.5046L23.8396 12.0335C23.9464 11.9266 24 11.8035 24 11.6647C24 11.5257 23.9464 11.4028 23.8396 11.2959L23.0379 10.4944C22.9311 10.3874 22.8083 10.3341 22.6692 10.3341C22.53 10.3341 22.4073 10.3874 22.3004 10.4944L15.9998 16.795L9.69913 10.4944C9.59227 10.3874 9.4693 10.3341 9.33054 10.3341C9.19145 10.3341 9.06848 10.3874 8.96162 10.4944L8.16026 11.296C8.05329 11.4028 8 11.5258 8 11.6647C8 11.8036 8.0534 11.9266 8.16026 12.0335L15.6311 19.5042C15.7379 19.611 15.8609 19.6645 15.9998 19.6645C16.1388 19.6645 16.2617 19.6114 16.3688 19.5046Z" fill="#F8F8F8"/>
</g>
<defs>
<clipPath id="clip0">
<rect width="16" height="16" fill="white" transform="translate(24 6.99927) rotate(90)"/>
</clipPath>
</defs>
</svg>
