<svg width="40" height="38" viewBox="0 0 40 38" fill="none" xmlns="http://www.w3.org/2000/svg">
<path d="M40 11.0119V0H0V11.0119H2.34558V13.2084H0V24.22H2.34558V26.4168H0V37.4285H40V26.4165H37.6544V24.22H40V13.2084H37.6544V11.0119H40ZM2.34375 2.19307H37.6562V8.81884H2.34375V2.19307ZM37.6562 35.2354H2.34375V28.6096H37.6562V35.2354ZM35.3107 26.4165H4.68933V24.22H35.3107V26.4165ZM37.6562 22.027H2.34375V15.4015H37.6562V22.027ZM35.3107 13.2084H4.68933V11.0119H35.3107V13.2084Z" fill="#3685D7"/>
<path d="M25.1535 4.40894H35.3098V6.60229H25.1535V4.40894Z" fill="#3685D7"/>
<path d="M25.1535 17.6179H35.3098V19.8113H25.1535V17.6179Z" fill="#3685D7"/>
<path d="M25.1535 30.8264H35.3098V33.0195H25.1535V30.8264Z" fill="#3685D7"/>
<path d="M4.69025 4.40894H7.03583V6.60229H4.69025V4.40894Z" fill="#3685D7"/>
<path d="M9.38171 4.40894H11.7273V6.60229H9.38171V4.40894Z" fill="#3685D7"/>
<path d="M4.69025 17.6179H7.03583V19.8113H4.69025V17.6179Z" fill="#3685D7"/>
<path d="M9.38171 17.6179H11.7273V19.8113H9.38171V17.6179Z" fill="#3685D7"/>
<path d="M4.69025 30.8264H7.03583V33.0195H4.69025V30.8264Z" fill="#3685D7"/>
<path d="M9.38171 30.8264H11.7273V33.0195H9.38171V30.8264Z" fill="#3685D7"/>
</svg>
