<svg width="70" height="70" viewBox="0 0 70 70" fill="none" xmlns="http://www.w3.org/2000/svg">
<circle cx="35" cy="35" r="35" fill="#3685D7"/>
<g clip-path="url(#clip0)">
<path d="M50.9623 21.3889C50.893 20.1177 49.882 19.1069 48.6109 19.0376C46.046 18.8974 41.027 19.0337 36.2278 21.5161C33.7812 22.7816 31.1937 24.9271 29.1288 27.4026C29.1033 27.4331 29.0786 27.4638 29.0533 27.4944L24.3671 27.8564C23.5957 27.916 22.9086 28.3203 22.482 28.9656L19.2849 33.8013C18.9613 34.2907 18.9099 34.9031 19.1472 35.4396C19.3846 35.9761 19.8723 36.3499 20.452 36.4397L24.4002 37.0512C24.3863 37.128 24.3723 37.2047 24.3595 37.2814C24.228 38.0677 24.4885 38.8761 25.0564 39.4439L30.5559 44.9434C31.0267 45.4142 31.6629 45.6738 32.3148 45.6738C32.449 45.6738 32.584 45.6627 32.7184 45.6403C32.7951 45.6275 32.8718 45.6135 32.9486 45.5996L33.5601 49.5478C33.6499 50.1275 34.0238 50.6153 34.5602 50.8526C34.7833 50.9514 35.0195 51.0001 35.2547 51.0001C35.5848 51.0001 35.9127 50.9039 36.1985 50.715L41.0342 47.5178C41.6795 47.0911 42.0838 46.4041 42.1433 45.6327L42.5053 40.9466C42.5358 40.9213 42.5666 40.8966 42.5971 40.8711C45.0727 38.8062 47.2183 36.2187 48.4837 33.7721C50.9662 28.9726 51.1022 23.9536 50.9623 21.3889ZM40.0002 45.9537L35.3745 49.012L34.7785 45.1642C36.7335 44.5894 38.6674 43.6687 40.5098 42.4354L40.274 45.4882C40.2593 45.6787 40.1595 45.8484 40.0002 45.9537ZM31.8817 43.6176L26.3821 38.1181C26.2418 37.9777 26.177 37.7805 26.2088 37.5906C26.3723 36.6129 26.6263 35.6822 26.9408 34.8054L35.1926 43.0572C34.1396 43.4344 33.1964 43.6594 32.4092 43.791C32.219 43.8226 32.022 43.7579 31.8817 43.6176ZM24.5115 29.7258L27.5643 29.49C26.3309 31.3324 25.4103 33.2664 24.8355 35.2214L20.9877 34.6254L24.0461 29.9997C24.1515 29.8403 24.3211 29.7405 24.5115 29.7258ZM41.3962 39.4312C39.8817 40.6945 38.4115 41.6082 37.0563 42.2694L27.73 32.9431C28.5961 31.1741 29.6532 29.7011 30.5686 28.6037C32.4795 26.3127 34.8562 24.3364 37.0893 23.1814C41.4939 20.9031 46.1346 20.7804 48.5088 20.9097C48.8231 20.9268 49.073 21.1767 49.0902 21.4911C49.2196 23.8653 49.0967 28.5059 46.8183 32.9106C45.6634 35.1436 43.6871 37.5202 41.3962 39.4312Z" fill="white"/>
<path d="M40.9201 33.7653C42.1202 33.7652 43.3209 33.3083 44.2345 32.3946C45.1199 31.5093 45.6074 30.3322 45.6074 29.0802C45.6074 27.8282 45.1199 26.6511 44.2345 25.7657C42.4069 23.9381 39.4332 23.9382 37.6057 25.7657C36.7203 26.6511 36.2327 27.8282 36.2327 29.0802C36.2327 30.3322 36.7204 31.5093 37.6057 32.3946C38.5195 33.3085 39.7195 33.7654 40.9201 33.7653ZM38.9314 27.0915C39.4796 26.5432 40.1998 26.2691 40.92 26.2691C41.6402 26.2691 42.3604 26.5432 42.9087 27.0915C43.4399 27.6227 43.7324 28.3289 43.7324 29.0801C43.7324 29.8313 43.4399 30.5376 42.9087 31.0688C41.8122 32.1654 40.0279 32.1653 38.9313 31.0688C38.4001 30.5376 38.1075 29.8314 38.1075 29.0802C38.1075 28.329 38.4002 27.6227 38.9314 27.0915Z" fill="white"/>
<path d="M19.9563 45.3709C20.1962 45.3709 20.4361 45.2794 20.6191 45.0963L23.68 42.0355C24.0461 41.6693 24.0461 41.0758 23.68 40.7097C23.3139 40.3435 22.7203 40.3435 22.3541 40.7097L19.2934 43.7705C18.9273 44.1366 18.9273 44.7302 19.2934 45.0963C19.4764 45.2793 19.7163 45.3709 19.9563 45.3709Z" fill="white"/>
<path d="M26.4851 43.5148C26.119 43.1487 25.5254 43.1487 25.1593 43.5148L19.2747 49.3995C18.9085 49.7656 18.9085 50.3592 19.2747 50.7253C19.4577 50.9084 19.6976 50.9999 19.9375 50.9999C20.1775 50.9999 20.4174 50.9084 20.6004 50.7253L26.485 44.8406C26.8512 44.4745 26.8512 43.881 26.4851 43.5148Z" fill="white"/>
<path d="M27.9643 46.32L24.9035 49.3808C24.5374 49.7469 24.5374 50.3405 24.9035 50.7066C25.0866 50.8897 25.3265 50.9813 25.5664 50.9813C25.8062 50.9813 26.0462 50.8898 26.2292 50.7066L29.2901 47.6458C29.6562 47.2797 29.6562 46.6861 29.2901 46.32C28.924 45.9539 28.3304 45.9539 27.9643 46.32Z" fill="white"/>
</g>
<defs>
<clipPath id="clip0">
<rect width="32" height="32" fill="white" transform="translate(19 19)"/>
</clipPath>
</defs>
</svg>
