<svg width="18" height="18" viewBox="0 0 18 18" fill="none" xmlns="http://www.w3.org/2000/svg">
<path d="M6.37498 0H2.625C2.00474 0 1.5 0.504738 1.5 1.125V16.875C1.5 17.4953 2.00474 18 2.625 18H6.37501C6.99527 18 7.50001 17.4953 7.50001 16.875V1.125C7.49998 0.504738 6.99524 0 6.37498 0Z" fill="#3685D7"/>
<path d="M15.375 0H11.625C11.0047 0 10.5 0.504738 10.5 1.125V16.875C10.5 17.4953 11.0047 18 11.625 18H15.375C15.9953 18 16.5 17.4953 16.5 16.875V1.125C16.5 0.504738 15.9952 0 15.375 0Z" fill="#3685D7"/>
</svg>
