<svg width="201" height="22" viewBox="0 0 201 22" fill="none" xmlns="http://www.w3.org/2000/svg">
<g clip-path="url(#clip0)">
<path d="M1.11783 3.46667H3.85902L4.47439 0.283203H8.78198L8.16661 3.46667H10.5722L11.1875 0.283203H15.4951L14.8797 3.46667H17.0615L16.9496 6.93437H14.2644L13.7049 9.94729H15.8867L15.7748 13.415H12.9777L12.3623 16.5985H8.11067L8.72604 13.415H6.3205L5.70513 16.5985H1.39754L2.01291 13.415H-0.112915L-0.00102953 9.94729H2.74017L3.29959 6.93437H1.11783V3.46667ZM6.93587 9.94729H9.34141L9.90084 6.93437H7.55124L6.93587 9.94729Z" fill="#ED2426"/>
<path d="M41.3417 0.28418L42.8521 6.82165L47.0478 0.28418H51.6351L41.2298 16.5426H36.6425L39.8312 11.4831L36.6984 0.28418H41.3417Z" fill="#171723"/>
<path d="M53.0898 0.28418H59.4113C62.9917 0.28418 64.614 1.53483 64.614 3.69503C64.6411 4.62756 64.3806 5.54536 63.8691 6.32003C63.3575 7.09471 62.6204 7.68749 61.7609 8.01545C62.4207 8.16259 63.0098 8.5376 63.4281 9.0766C63.8463 9.6156 64.0677 10.2853 64.0546 10.9715C64.0638 11.2192 64.045 11.4672 63.9986 11.7105C63.4392 14.5529 61.3134 16.5426 56.6701 16.5426H50.0129L53.0898 0.28418ZM59.5232 11.0852C59.5232 10.2893 58.9078 9.94826 57.6212 9.94826H55.7191L55.1037 13.0749H57.0058C58.4603 13.0749 59.1876 12.6769 59.4673 11.4831C59.5173 11.357 59.5365 11.2205 59.5232 11.0852ZM60.1945 4.77514C60.1945 4.03612 59.6351 3.80873 58.5162 3.80873H56.8939L56.3345 6.59426H57.9568C59.2994 6.59426 59.9148 6.19633 60.1386 5.17307C60.1845 5.04588 60.2035 4.9103 60.1945 4.77514Z" fill="#171723"/>
<path d="M78.5997 0.28418L80.7815 16.5426H76.0264L75.7467 13.8707H70.3202L69.0335 16.5426H64.2784L72.7817 0.28418H78.5997ZM72.1104 10.1757H75.411L74.8516 4.43405L72.1104 10.1757Z" fill="#171723"/>
<path d="M89.8999 11.3126H88.3335L87.3265 16.5426H82.8511L85.9839 0.28418H92.0257C95.5501 0.28418 97.8437 1.64852 97.8437 4.4909C97.8317 4.90972 97.7943 5.32738 97.7318 5.74155C97.0046 9.55033 93.9277 11.3126 89.8999 11.3126ZM93.2564 5.22992C93.2564 4.20666 92.5292 3.80873 91.2425 3.80873H89.788L89.0048 7.8449H90.4593C91.9697 7.8449 92.9208 7.27643 93.2005 5.79839C93.2005 5.62785 93.2564 5.40046 93.2564 5.22992Z" fill="#171723"/>
<path d="M120.389 3.97927H115.914L116.641 0.28418H130.123L129.396 3.97927H124.92L122.459 16.5994H117.983L120.389 3.97927Z" fill="#171723"/>
<path d="M136.053 11.3126H134.486L133.479 16.5426H129.004L132.137 0.28418H138.234C141.759 0.28418 144.052 1.64852 144.052 4.4909C144.04 4.90972 144.003 5.32738 143.941 5.74155C143.157 9.55033 140.081 11.3126 136.053 11.3126ZM139.409 5.22992C139.409 4.20666 138.682 3.80873 137.395 3.80873H135.941L135.158 7.8449H136.612C138.123 7.8449 139.074 7.27643 139.353 5.79839C139.4 5.61276 139.418 5.42118 139.409 5.22992Z" fill="#171723"/>
<path d="M144.78 10.5736C144.78 4.43411 149.087 0 154.514 0C158.71 0 161.003 2.50129 161.003 6.31008C161.003 12.3928 156.64 16.8269 151.269 16.8269C147.129 16.8269 144.78 14.3824 144.78 10.5736ZM156.416 6.87855C156.416 4.88889 155.465 3.69509 153.843 3.69509C151.549 3.69509 149.423 6.19638 149.423 9.94832C149.423 11.8811 150.374 13.0749 151.996 13.0749C154.234 13.1318 156.416 10.6873 156.416 6.87855Z" fill="#171723"/>
<path d="M164.919 0.28418H169.283L167.549 9.1524L174.486 0.28418H178.905L175.772 16.5426H171.409L173.143 7.67436L166.206 16.5426H161.786L164.919 0.28418Z" fill="#171723"/>
<path d="M184.723 3.97927H180.248L180.975 0.28418H194.457L193.73 3.97927H189.254L186.793 16.5994H182.317L184.723 3.97927Z" fill="#171723"/>
<path d="M108.641 0C112.053 0 115.41 1.81912 115.186 6.25323H111.214C110.99 4.37726 109.648 3.86563 107.914 3.86563C105.116 3.86563 103.382 6.19638 102.879 8.81137C102.431 11.199 103.886 12.9044 106.235 12.9044C107.104 12.942 107.964 12.7126 108.702 12.2461C109.441 11.7796 110.024 11.0977 110.375 10.2894H114.515C113.004 15.0078 108.977 16.8269 105.508 16.8269C101.312 16.8269 97.6202 13.9277 98.6271 8.29974C99.6341 2.67184 104.221 0 108.641 0Z" fill="#171723"/>
<path d="M29.7615 0C33.1741 0 36.5306 1.81912 36.3069 6.25323H32.3349C32.1111 4.37726 30.7685 3.86563 29.0343 3.86563C26.2372 3.86563 24.5029 6.19638 23.9994 8.81137C23.5519 11.199 25.0064 12.9044 27.356 12.9044C28.2248 12.942 29.0845 12.7126 29.823 12.2461C30.5615 11.7796 31.1445 11.0977 31.4958 10.2894H35.6355C34.1251 15.0078 30.0972 16.8269 26.6287 16.8269C22.433 16.8269 18.7408 13.9277 19.7478 8.29974C20.8666 2.61499 25.398 0 29.7615 0Z" fill="#171723"/>
<path d="M197.142 16.8274C198.625 16.8274 199.827 15.5803 199.827 14.0419C199.827 12.5035 198.625 11.2563 197.142 11.2563C195.659 11.2563 194.457 12.5035 194.457 14.0419C194.457 15.5803 195.659 16.8274 197.142 16.8274Z" fill="#ED2426"/>
</g>
<defs>
<clipPath id="clip0">
<rect width="200.667" height="22" fill="white"/>
</clipPath>
</defs>
</svg>
