<svg width="80" height="80" viewBox="0 0 80 80" fill="none" xmlns="http://www.w3.org/2000/svg">
<circle cx="40" cy="40" r="40" fill="#3685D7"/>
<path d="M42.4473 37.272C45.5513 37.656 47.9193 38.712 49.5513 40.44C51.1833 42.168 51.9993 44.328 51.9993 46.92C51.9993 48.872 51.5033 50.648 50.5113 52.248C49.5193 53.848 48.0153 55.128 45.9993 56.088C44.0153 57.016 41.5833 57.48 38.7032 57.48C36.3033 57.48 33.9833 57.144 31.7433 56.472C29.5353 55.768 27.6473 54.808 26.0793 53.592L28.7673 48.744C29.9833 49.768 31.4553 50.584 33.1833 51.192C34.9433 51.768 36.7513 52.056 38.6073 52.056C40.8153 52.056 42.5433 51.608 43.7913 50.712C45.0713 49.784 45.7113 48.536 45.7113 46.968C45.7113 45.4 45.1033 44.184 43.8873 43.32C42.7033 42.424 40.8793 41.976 38.4153 41.976H35.3433V37.704L42.9753 28.632H27.7113V23.4H50.6073V27.576L42.4473 37.272Z" fill="white"/>
</svg>
