<svg width="80" height="80" viewBox="0 0 80 80" fill="none" xmlns="http://www.w3.org/2000/svg">
<circle cx="40" cy="40" r="40" fill="#3685D7"/>
<path d="M52.4792 51.72V57H27.7113V52.824L41.0553 40.152C42.5593 38.712 43.5673 37.464 44.0793 36.408C44.6233 35.32 44.8953 34.248 44.8953 33.192C44.8953 31.624 44.3673 30.424 43.3113 29.592C42.2553 28.76 40.7033 28.344 38.6553 28.344C35.2313 28.344 32.6073 29.512 30.7833 31.848L26.4153 28.488C27.7273 26.728 29.4873 25.368 31.6953 24.408C33.9353 23.416 36.4313 22.92 39.1833 22.92C42.8313 22.92 45.7433 23.784 47.9193 25.512C50.0953 27.24 51.1833 29.592 51.1833 32.568C51.1833 34.392 50.7993 36.104 50.0312 37.704C49.2633 39.304 47.7913 41.128 45.6153 43.176L36.6393 51.72H52.4792Z" fill="white"/>
</svg>
