<svg width="70" height="70" viewBox="0 0 70 70" fill="none" xmlns="http://www.w3.org/2000/svg">
<circle cx="35" cy="35" r="35" fill="#FF9700"/>
<path d="M45.6055 34.712H42.6689C42.2692 34.712 41.8822 34.7666 41.514 34.867C40.7875 33.439 39.3044 32.4578 37.5954 32.4578H32.4046C30.6956 32.4578 29.2125 33.439 28.486 34.867C28.1178 34.7666 27.7308 34.712 27.3311 34.712H24.3945C21.9714 34.712 20 36.6834 20 39.1065V43.8009C20 45.2548 21.1828 46.4377 22.6367 46.4377H47.3633C48.8172 46.4377 50 45.2548 50 43.8009V39.1065C50 36.6834 48.0286 34.712 45.6055 34.712ZM28.0101 36.8524V44.6799H22.6367C22.1521 44.6799 21.7578 44.2856 21.7578 43.801V39.1066C21.7578 37.6527 22.9406 36.4699 24.3945 36.4699H27.3311C27.5697 36.4699 27.8008 36.5023 28.0207 36.562C28.0144 36.6581 28.0101 36.7548 28.0101 36.8524ZM40.2321 44.6799H29.7679V36.8524C29.7679 35.3985 30.9507 34.2156 32.4046 34.2156H37.5954C39.0493 34.2156 40.2321 35.3985 40.2321 36.8524V44.6799ZM48.2422 43.801C48.2422 44.2856 47.8479 44.6799 47.3633 44.6799H41.9899V36.8524C41.9899 36.7547 41.9856 36.658 41.9793 36.5619C42.1992 36.5023 42.4303 36.4698 42.6689 36.4698H45.6055C47.0594 36.4698 48.2422 37.6526 48.2422 39.1065V43.801Z" fill="white"/>
<path d="M25.8629 26.4124C23.7097 26.4124 21.9579 28.1641 21.9579 30.3174C21.9578 32.4707 23.7097 34.2224 25.8629 34.2224C28.0161 34.2224 29.768 32.4707 29.768 30.3174C29.768 28.1641 28.0162 26.4124 25.8629 26.4124ZM25.8629 32.4646C24.6789 32.4646 23.7156 31.5014 23.7156 30.3174C23.7156 29.1334 24.6789 28.1702 25.8629 28.1702C27.0469 28.1702 28.0101 29.1334 28.0101 30.3174C28.0101 31.5014 27.0469 32.4646 25.8629 32.4646Z" fill="white"/>
<path d="M35 21.5623C32.1233 21.5623 29.783 23.9026 29.783 26.7793C29.783 29.656 32.1233 31.9964 35 31.9964C37.8767 31.9964 40.2171 29.656 40.2171 26.7793C40.2171 23.9027 37.8767 21.5623 35 21.5623ZM35 30.2386C33.0926 30.2386 31.5408 28.6868 31.5408 26.7793C31.5408 24.8719 33.0926 23.3201 35 23.3201C36.9075 23.3201 38.4593 24.8719 38.4593 26.7793C38.4593 28.6868 36.9075 30.2386 35 30.2386Z" fill="white"/>
<path d="M44.1371 26.4124C41.9839 26.4124 40.2321 28.1641 40.2321 30.3174C40.2321 32.4707 41.9839 34.2224 44.1371 34.2224C46.2904 34.2224 48.0421 32.4707 48.0421 30.3174C48.0421 28.1641 46.2904 26.4124 44.1371 26.4124ZM44.1371 32.4646C42.9532 32.4646 41.9899 31.5014 41.9899 30.3174C41.9899 29.1334 42.9532 28.1702 44.1371 28.1702C45.3211 28.1702 46.2843 29.1334 46.2843 30.3174C46.2843 31.5014 45.3211 32.4646 44.1371 32.4646Z" fill="white"/>
</svg>
