<svg width="70" height="70" viewBox="0 0 70 70" fill="none" xmlns="http://www.w3.org/2000/svg">
<circle cx="35" cy="35" r="35" fill="#FF9700"/>
<g clip-path="url(#clip0)">
<path d="M35.5362 49.94C37.8303 49.6141 39.8414 47.2197 41.1069 43.6836C39.2775 43.2739 37.4106 43.054 35.5362 43.0278V49.94Z" fill="white"/>
<path d="M39.2013 49.3775C39.3369 49.3382 39.472 49.2987 39.606 49.2552C39.7191 49.2189 39.8306 49.1796 39.9422 49.1406C40.0741 49.095 40.2055 49.0482 40.3364 48.9984C40.448 48.956 40.5584 48.911 40.6692 48.866C40.7969 48.8123 40.9244 48.7589 41.0506 48.7052C41.1608 48.6568 41.2702 48.606 41.3797 48.5549C41.5035 48.4966 41.6268 48.4371 41.7491 48.3754C41.8564 48.3206 41.9635 48.2649 42.0708 48.2075C42.191 48.1431 42.3104 48.0774 42.429 48.0099C42.5363 47.9492 42.6397 47.8882 42.7442 47.8253C42.8604 47.7539 42.9761 47.6824 43.091 47.6109C43.1939 47.5455 43.2965 47.479 43.3979 47.4104C43.5109 47.3342 43.6225 47.2549 43.7335 47.1756C43.8332 47.1041 43.9324 47.0329 44.0298 46.9611C44.1372 46.8784 44.2471 46.7928 44.3547 46.7069C44.4503 46.6308 44.5456 46.5551 44.6395 46.4768C44.7466 46.3878 44.8492 46.2957 44.9532 46.2035C45.0443 46.1226 45.1359 46.0425 45.2249 45.9595C45.3273 45.864 45.427 45.765 45.5268 45.6668C45.6132 45.5815 45.7006 45.4975 45.7852 45.41C45.8009 45.3938 45.8158 45.3762 45.832 45.3595C44.6626 44.7555 43.4308 44.2814 42.1583 43.9458C41.4964 46.0564 40.3186 47.9691 38.7316 49.51C38.7751 49.4987 38.8185 49.4896 38.862 49.4783C38.9767 49.4461 39.0892 49.4108 39.2013 49.3775Z" fill="white"/>
<path d="M50 35.5061H43.5714C43.5471 38.0162 43.1829 40.5113 42.4889 42.9238C43.9042 43.3018 45.2699 43.8453 46.558 44.543C48.6727 41.9942 49.8833 38.8162 50 35.5061Z" fill="white"/>
<path d="M35.5362 34.4338H42.4991C42.4719 32.0125 42.1167 29.6061 41.4436 27.28C39.5047 27.7222 37.5245 27.9583 35.5362 27.9845V34.4338Z" fill="white"/>
<path d="M35.5362 20V26.9122C37.4106 26.8857 39.2775 26.6661 41.1069 26.2564C39.8414 22.7203 37.8303 20.3259 35.5362 20Z" fill="white"/>
<path d="M35.5362 41.9554C37.5245 41.9818 39.5047 42.218 41.4436 42.6602C42.1167 40.3341 42.4719 37.9274 42.4991 35.5061H35.5362V41.9554Z" fill="white"/>
<path d="M46.558 25.397C45.2699 26.0947 43.9042 26.6381 42.4889 27.0162C43.1829 29.4286 43.5471 31.9238 43.5714 34.4338H50C49.883 31.124 48.6725 27.9461 46.558 25.397Z" fill="white"/>
<path d="M45.8336 24.5835C45.8179 24.5675 45.8029 24.5503 45.7875 24.5338C45.7027 24.4463 45.6147 24.362 45.5283 24.2769C45.4288 24.1788 45.3296 24.0796 45.227 23.9843C45.1383 23.9015 45.0464 23.8233 44.9553 23.7408C44.8513 23.6486 44.7474 23.5557 44.6406 23.4667C44.5479 23.3884 44.4529 23.3135 44.3586 23.2384C44.2513 23.1515 44.1413 23.0651 44.0309 22.9821C43.934 22.9091 43.8358 22.8384 43.7371 22.7677C43.6251 22.6871 43.5125 22.6067 43.3984 22.53C43.2981 22.4624 43.1963 22.3965 43.0944 22.3318C42.9784 22.2572 42.8627 22.1842 42.7447 22.1135C42.6413 22.0514 42.5368 21.9902 42.4321 21.9307C42.3122 21.8622 42.192 21.7957 42.0708 21.7307C41.9635 21.6771 41.8564 21.6187 41.7491 21.565C41.6258 21.5027 41.5014 21.4428 41.3739 21.3839C41.2666 21.3328 41.1577 21.2831 41.0472 21.2346C40.9202 21.1783 40.7919 21.1276 40.6639 21.0739C40.5534 21.0289 40.4435 20.9844 40.332 20.9419C40.2019 20.8922 40.0699 20.8456 39.938 20.8001C39.8264 20.7608 39.7149 20.7218 39.6018 20.6851C39.4678 20.6417 39.3337 20.6021 39.196 20.5623C39.0845 20.5296 38.9725 20.4964 38.8596 20.4665C38.8164 20.4547 38.7725 20.4456 38.729 20.4343C40.316 21.9752 41.4936 23.8877 42.1556 25.9985C43.4295 25.6629 44.6631 25.1885 45.8336 24.5835Z" fill="white"/>
<path d="M20 34.4338H26.4286C26.453 31.9238 26.8171 29.4286 27.5109 27.0162C26.0959 26.6384 24.7301 26.0949 23.4421 25.397C21.3273 27.9458 20.1168 31.124 20 34.4338Z" fill="white"/>
<path d="M34.4638 49.94V43.0278C32.5894 43.0543 30.7225 43.2739 28.8931 43.6836C30.1584 47.2197 32.1697 49.6141 34.4638 49.94Z" fill="white"/>
<path d="M34.4639 35.5061H27.5009C27.5281 37.9274 27.8831 40.3341 28.5565 42.6602C30.4953 42.2177 32.4753 41.9816 34.4639 41.9554V35.5061Z" fill="white"/>
<path d="M34.4638 20C32.1697 20.3259 30.1584 22.7203 28.8931 26.2564C30.7225 26.6663 32.5894 26.886 34.4638 26.9122V20Z" fill="white"/>
<path d="M34.4639 27.9845C32.4755 27.9583 30.4953 27.7222 28.5565 27.28C27.8831 29.6061 27.5281 32.0125 27.5009 34.4338H34.4639V27.9845Z" fill="white"/>
<path d="M31.2668 20.4338C31.2234 20.4451 31.1799 20.4543 31.1365 20.4655C31.0229 20.4959 30.9108 20.5297 30.7977 20.5624C30.6631 20.6016 30.5296 20.6412 30.3945 20.6841C30.2807 20.721 30.1686 20.7603 30.0566 20.7993C29.9254 20.8456 29.794 20.8917 29.6641 20.9409C29.5521 20.9839 29.4416 21.0284 29.3306 21.0739C29.2031 21.1276 29.0754 21.1813 28.9494 21.2347C28.839 21.2831 28.7298 21.3339 28.6204 21.3849C28.4965 21.4433 28.3732 21.5027 28.251 21.5645C28.1436 21.6192 28.0363 21.6753 27.9292 21.7323C27.8091 21.7967 27.6899 21.8627 27.5716 21.9303C27.4643 21.9902 27.3588 22.0517 27.2554 22.1146C27.1389 22.1847 27.0237 22.2572 26.909 22.329C26.8059 22.3949 26.7035 22.4614 26.6022 22.53C26.4891 22.6062 26.3776 22.6855 26.2666 22.7649C26.1668 22.8363 26.0676 22.9075 25.97 22.9795C25.8603 23.062 25.7556 23.1479 25.6451 23.2335C25.5498 23.3096 25.4537 23.3853 25.3605 23.4641C25.2532 23.5526 25.1513 23.6442 25.0479 23.7358C24.9563 23.8175 24.8639 23.8969 24.7743 23.9814C24.6725 24.0764 24.5733 24.1751 24.4738 24.2731C24.3874 24.3584 24.2995 24.4427 24.2146 24.5304C24.1992 24.5466 24.1843 24.5644 24.168 24.5809C25.3372 25.1851 26.5692 25.6593 27.8418 25.9949C28.5036 23.8853 29.6806 21.974 31.2668 20.4338Z" fill="white"/>
<path d="M24.4715 45.6629C24.5712 45.7611 24.6704 45.8603 24.7728 45.9558C24.8618 46.0383 24.9534 46.1166 25.0448 46.199C25.1487 46.2915 25.2527 46.3841 25.3595 46.4731C25.4521 46.5509 25.5466 46.626 25.6414 46.7014C25.7488 46.7883 25.8558 46.8747 25.9694 46.9583C26.066 47.0308 26.1642 47.1009 26.2624 47.1729C26.3744 47.2533 26.4875 47.3337 26.6017 47.4109C26.7019 47.4784 26.8038 47.5444 26.9056 47.6093C27.0216 47.6837 27.1373 47.7567 27.2554 47.8274C27.3588 47.8897 27.4632 47.9507 27.568 48.0104C27.6879 48.079 27.808 48.1455 27.9292 48.2102C28.0363 48.2638 28.1436 48.3222 28.251 48.3759C28.3743 48.4382 28.4986 48.4981 28.6261 48.5573C28.7335 48.6078 28.8424 48.6576 28.9529 48.7063C29.0798 48.7625 29.2078 48.8133 29.3361 48.867C29.4466 48.912 29.5566 48.9565 29.6681 48.9989C29.7982 49.0489 29.9301 49.0955 30.0621 49.1411C30.1736 49.1801 30.2851 49.2194 30.3982 49.2558C30.5323 49.2992 30.6663 49.339 30.804 49.3785C30.9155 49.4113 31.0276 49.4445 31.1401 49.4746C31.1836 49.4864 31.2276 49.4956 31.271 49.5068C29.684 47.9656 28.5065 46.0532 27.8444 43.9424C26.5718 44.2783 25.3398 44.7524 24.1707 45.3569C24.1864 45.3728 24.2013 45.3901 24.217 45.4066C24.2974 45.4935 24.384 45.5778 24.4715 45.6629Z" fill="white"/>
<path d="M23.4421 44.543C24.7301 43.8453 26.0959 43.3018 27.5109 42.9238C26.8171 40.5113 26.453 38.0162 26.4286 35.5061H20C20.117 38.816 21.3273 41.9939 23.4421 44.543Z" fill="white"/>
</g>
<defs>
<clipPath id="clip0">
<rect width="30" height="30" fill="white" transform="translate(20 20)"/>
</clipPath>
</defs>
</svg>
