<svg width="810" height="731" viewBox="0 0 810 731" fill="none" xmlns="http://www.w3.org/2000/svg">
<path fill-rule="evenodd" clip-rule="evenodd" d="M323.557 597.196C383.706 629.195 450.278 665.564 513.331 655.308C575.37 645.218 602.052 586.721 641.564 545.472C678.683 506.722 735.059 476.34 736.715 422.106C738.356 368.356 685.893 321.544 649.863 273.713C617.078 230.191 589.715 178.16 537.044 157.04C485.579 136.404 436.21 168.927 382.487 166.502C313.007 163.366 236.372 113.482 178.381 140.852C118.829 168.959 95.5795 238.266 95.4422 301.979C95.3096 363.536 135.806 422.572 177.658 476.735C216.087 526.469 265.836 566.49 323.557 597.196Z" fill="url(#paint0_linear)"/>
<defs>
<linearGradient id="paint0_linear" x1="297.863" y1="586.389" x2="512.137" y2="144.611" gradientUnits="userSpaceOnUse">
<stop stop-color="#E5E5E5"/>
<stop offset="1" stop-color="#C8E3FF"/>
</linearGradient>
</defs>
</svg>
