<svg width="77" height="76" viewBox="0 0 77 76" fill="none" xmlns="http://www.w3.org/2000/svg">
<g clip-path="url(#clip0)">
<path d="M30.7814 53.7325L28.4179 52.4407C26.7533 51.5309 24.6611 52.1443 23.7514 53.8088L21.9675 57.0726C21.0577 58.7372 21.6712 60.8293 23.3357 61.7391L25.6993 63.0309C27.3639 63.9407 29.456 63.3273 30.3658 61.6627L32.1496 58.399C33.0621 56.7294 32.4461 54.6423 30.7814 53.7325Z" fill="#C8E3FF"/>
<path d="M27.9245 19.3585L31.9877 22.2847C33.2772 23.2115 35.0241 23.1343 36.2338 22.1039C37.7612 20.8031 39.3454 19.9839 40.9835 19.6514C43.3039 19.1822 45.6485 19.5885 48.0121 20.8804C50.4611 22.2189 52.0605 23.9291 52.808 26.003C53.5527 28.082 53.4307 30.0139 52.444 31.8193C51.7349 33.1168 50.6788 34.081 49.276 34.7119C48.3741 35.1072 45.9637 35.6577 42.052 36.3738C38.1352 37.0872 35.247 38.0818 33.3798 39.3472C31.4705 40.6419 30.0574 42.4624 28.883 44.42C27.8754 46.0964 28.4626 48.2722 30.1825 49.2122L32.6467 50.559C34.2157 51.4165 36.17 50.9238 37.1629 49.4418C37.8764 48.3753 38.527 47.6272 39.1247 47.2028C40.1389 46.4704 42.0756 45.8308 44.9273 45.2734C50.442 44.2054 54.274 43.0735 56.4362 41.8779C58.5906 40.6846 60.2322 39.0673 61.3509 37.0205C63.3711 33.3243 63.5699 29.2203 61.9395 24.7109C60.3141 20.2043 56.831 16.4915 51.5004 13.578C46.4313 10.8074 41.5924 9.94572 36.971 10.9924C33.0349 11.8846 29.9034 13.7783 27.5843 16.6711C26.897 17.5103 27.0574 18.7344 27.9245 19.3585Z" fill="#C8E3FF"/>
</g>
<defs>
<clipPath id="clip0">
<rect width="55.7686" height="55.7686" fill="white" transform="translate(27.186 0.288834) rotate(28.6591)"/>
</clipPath>
</defs>
</svg>
