<svg width="92" height="92" viewBox="0 0 92 92" fill="none" xmlns="http://www.w3.org/2000/svg">
<g clip-path="url(#clip0)">
<path d="M53.9497 67.2376L50.5568 68.2695C48.1673 68.9963 46.816 71.5288 47.5427 73.9183L48.9676 78.6035C49.6944 80.993 52.2269 82.3443 54.6164 81.6176L58.0094 80.5857C60.399 79.8589 61.7502 77.3264 61.0235 74.9369L59.5985 70.2517C58.8696 67.855 56.3393 66.5108 53.9497 67.2376Z" fill="#C8E3FF"/>
<path d="M18.9952 38.2453L25.4912 37.1214C27.5511 36.7631 29.0884 35.0494 29.2344 32.9623C29.4188 30.3272 30.1085 28.0827 31.3056 26.2359C33.0029 23.6218 35.5457 21.7916 38.9386 20.7596C42.4543 19.6904 45.5363 19.7625 48.1753 20.9711C50.8165 22.1868 52.5206 24.0819 53.3089 26.6735C53.8753 28.536 53.8087 30.4176 53.1091 32.3182C52.6497 33.5305 50.9459 36.3043 48.0143 40.6425C45.0755 44.9828 43.3489 48.6152 42.8179 51.5371C42.2757 54.5256 42.6853 57.532 43.4436 60.4404C44.0913 62.9328 46.6784 64.3859 49.1473 63.635L52.6847 62.5591C54.937 61.8741 56.2748 59.5823 55.7963 57.2829C55.4511 55.6292 55.3471 54.328 55.499 53.3748C55.7449 51.7462 56.9283 49.3357 59.0324 46.1405C63.1105 39.9709 65.5776 35.3245 66.4461 32.1895C67.3095 29.064 67.3016 26.03 66.408 23.0918C64.7942 17.7858 61.1185 13.8167 55.3758 11.194C49.6403 8.56908 42.9393 8.42247 35.2871 10.7498C28.0102 12.9629 22.7405 16.7188 19.4657 22.0288C16.6772 26.5522 15.5718 31.2419 16.1547 36.0886C16.3103 37.5082 17.6091 38.4854 18.9952 38.2453Z" fill="#C8E3FF"/>
</g>
<defs>
<clipPath id="clip0">
<rect width="73.4258" height="73.4258" fill="white" transform="translate(0.383545 21.3652) rotate(-16.9165)"/>
</clipPath>
</defs>
</svg>
