<svg width="46" height="45" viewBox="0 0 46 45" fill="none" xmlns="http://www.w3.org/2000/svg">
<g clip-path="url(#clip0)">
<path d="M27.339 31.8914L25.8302 32.5641C24.7676 33.0378 24.2868 34.2813 24.7577 35.3376L25.6811 37.4086C26.152 38.4649 27.3983 38.9383 28.4609 38.4646L29.9697 37.7919C31.0323 37.3181 31.5131 36.0747 31.0422 35.0184L30.1188 32.9473C29.6465 31.8879 28.4016 31.4176 27.339 31.8914Z" fill="#C8E3FF"/>
<path d="M9.55226 20.6022L12.4892 19.7059C13.4204 19.4208 14.0335 18.5431 13.9828 17.5748C13.9188 16.3524 14.1103 15.2801 14.5587 14.3609C15.1948 13.0598 16.2657 12.0697 17.7745 11.397C19.3379 10.7 20.7656 10.5531 22.053 10.9547C23.3417 11.3594 24.2362 12.1312 24.7469 13.2768C25.114 14.1002 25.1898 14.9692 24.9742 15.884C24.8306 16.4683 24.2006 17.8433 23.092 20.0093C21.9802 22.1767 21.3883 23.9478 21.3085 25.3223C21.2272 26.7281 21.5865 28.0866 22.1014 29.3796C22.5417 30.4878 23.8189 31.0048 24.9168 30.5153L26.4898 29.814C27.4914 29.3675 27.9796 28.2355 27.6285 27.2062C27.3754 26.4659 27.2537 25.8737 27.2699 25.4265C27.2914 24.6633 27.7015 23.4858 28.4926 21.8937C30.027 18.8186 30.9036 16.538 31.1273 15.0457C31.3492 13.5582 31.1738 12.1635 30.5948 10.8647C29.549 8.51921 27.6265 6.90889 24.8255 6.03839C22.0277 5.16646 18.9241 5.4905 15.5213 7.00765C12.2853 8.45038 10.0638 10.4852 8.85171 13.1182C7.81971 15.3609 7.57459 17.5819 8.11814 19.7764C8.27038 20.4201 8.92565 20.7936 9.55226 20.6022Z" fill="#C8E3FF"/>
</g>
<defs>
<clipPath id="clip0">
<rect width="34.2031" height="33.9998" fill="white" transform="translate(0 13.9277) rotate(-24.0295)"/>
</clipPath>
</defs>
</svg>
