<svg width="76" height="50" viewBox="0 0 76 50" fill="none" xmlns="http://www.w3.org/2000/svg">
<path d="M68.0212 22.9116C68.4251 20.7547 68.1979 18.6456 67.3899 16.5605C65.5466 11.8631 60.9515 8.53198 55.6995 8.07661C51.9878 7.74114 48.352 8.7715 45.5494 10.8807C42.8478 4.43365 36.0305 0 28.3547 0C28.3042 0 28.2536 0 28.2032 0C18.7348 0.0718559 10.5288 7.21391 9.97318 15.9375C9.84701 17.9985 10.0996 20.0116 10.756 21.9528C4.49437 23.3668 0 28.4957 0 34.6069C0 41.6529 4.79733 49.1782 18.2297 49.1782H61.7339C70.268 49.1782 75.9997 41.6529 75.9998 34.631C76 29.6221 72.8436 25.0686 68.0212 22.9116ZM61.7339 46.1342H18.2046C4.62084 46.1342 3.15621 38.0577 3.15621 34.5827C3.15621 29.406 7.3981 25.1162 13.0537 24.6129L15.2756 24.4213L14.3666 22.5042C13.407 20.467 12.9778 18.3341 13.1294 16.1052C13.5839 8.93944 20.3758 3.04373 28.2284 2.99597C28.2789 2.99597 28.3041 2.99597 28.3546 2.99597C35.4748 2.99597 41.7365 7.59743 43.2263 13.9481L43.9333 16.8959L45.9785 14.5951C48.2509 12.0308 51.7606 10.7126 55.3711 11.0243C59.4361 11.3838 62.9712 13.9481 64.3851 17.5669C65.1172 19.4363 65.193 21.3776 64.6124 23.3429L64.2083 24.709L65.6222 25.1882C69.9144 26.6261 72.8181 30.4127 72.8181 34.5827C72.8183 40.0469 68.2736 46.1342 61.7339 46.1342Z" fill="url(#paint0_linear)" fill-opacity="0.5"/>
<defs>
<linearGradient id="paint0_linear" x1="37.9999" y1="0" x2="37.9999" y2="49.1782" gradientUnits="userSpaceOnUse">
<stop stop-color="#C8E3FF"/>
<stop offset="0.479167" stop-color="#75AEE8"/>
</linearGradient>
</defs>
</svg>
