<svg width="44" height="41" viewBox="0 0 44 41" fill="none" xmlns="http://www.w3.org/2000/svg">
<path d="M22.6051 0.507886L25.0881 6.75335C27.0983 11.8097 31.3949 15.7956 36.8455 17.6599L43.5788 19.9635C43.8319 20.0501 44 20.2739 44 20.5242C44 20.7745 43.8319 20.9984 43.5788 21.085L36.8458 23.3886C31.3948 25.2532 27.0983 29.2391 25.0881 34.2951L22.6051 40.5409C22.5117 40.7757 22.2704 40.9316 22.0006 40.9316C21.7307 40.9316 21.4894 40.7757 21.396 40.5409L18.9123 34.2947C16.9021 29.2387 12.6055 25.2532 7.15491 23.3886L0.421229 21.085C0.168113 20.9984 -8.43881e-07 20.7745 -8.54359e-07 20.5242C-8.64838e-07 20.2739 0.168113 20.0501 0.421229 19.9635L7.15491 17.6599C12.6055 15.7952 16.9025 11.8097 18.9123 6.75371L21.396 0.507531C21.4894 0.272737 21.7307 0.116796 22.0006 0.116796C22.2704 0.116796 22.5117 0.273091 22.6051 0.507886Z" fill="url(#paint0_linear)" fill-opacity="0.8"/>
<defs>
<linearGradient id="paint0_linear" x1="44" y1="20.5242" x2="-8.54359e-07" y2="20.5242" gradientUnits="userSpaceOnUse">
<stop/>
<stop offset="0.0001" stop-color="#3685D7"/>
<stop offset="1" stop-color="#EDF6FF"/>
</linearGradient>
</defs>
</svg>
