<svg width="76" height="50" viewBox="0 0 76 50" fill="none" xmlns="http://www.w3.org/2000/svg">
<path d="M68.0212 23.4459C68.4251 21.2889 68.1979 19.1799 67.3899 17.0948C65.5466 12.3974 60.9515 9.06622 55.6995 8.61085C51.9878 8.27538 48.352 9.30574 45.5494 11.4149C42.8478 4.96789 36.0305 0.534241 28.3547 0.534241C28.3042 0.534241 28.2536 0.534241 28.2032 0.534241C18.7348 0.606097 10.5288 7.74815 9.97318 16.4717C9.84701 18.5327 10.0996 20.5458 10.756 22.4871C4.49437 23.9011 0 29.0299 0 35.1412C0 42.1871 4.79733 49.7124 18.2297 49.7124H61.7339C70.268 49.7124 75.9997 42.1871 75.9998 35.1653C76 30.1564 72.8436 25.6028 68.0212 23.4459ZM61.7339 46.6684H18.2046C4.62084 46.6684 3.15621 38.592 3.15621 35.117C3.15621 29.9402 7.3981 25.6504 13.0537 25.1472L15.2756 24.9555L14.3666 23.0384C13.407 21.0012 12.9778 18.8684 13.1294 16.6394C13.5839 9.47368 20.3758 3.57797 28.2284 3.53021C28.2789 3.53021 28.3041 3.53021 28.3546 3.53021C35.4748 3.53021 41.7365 8.13167 43.2263 14.4823L43.9333 17.4301L45.9785 15.1293C48.2509 12.565 51.7606 11.2468 55.3711 11.5585C59.4361 11.9181 62.9712 14.4823 64.3851 18.1012C65.1172 19.9706 65.193 21.9118 64.6124 23.8771L64.2083 25.2432L65.6222 25.7224C69.9144 27.1604 72.8181 30.9469 72.8181 35.117C72.8183 40.5811 68.2736 46.6684 61.7339 46.6684Z" fill="url(#paint0_linear)" fill-opacity="0.5"/>
<defs>
<linearGradient id="paint0_linear" x1="37.9999" y1="0.534241" x2="37.9999" y2="49.7124" gradientUnits="userSpaceOnUse">
<stop stop-color="#C8E3FF"/>
<stop offset="0.479167" stop-color="#75AEE8"/>
</linearGradient>
</defs>
</svg>
