<svg width="51" height="31" viewBox="0 0 51 31" fill="none" xmlns="http://www.w3.org/2000/svg">
<path d="M45.6458 14.7105C45.9169 13.4116 45.7644 12.1416 45.2222 10.8859C43.9852 8.05716 40.9016 6.05114 37.3773 5.77692C34.8866 5.5749 32.4467 6.19538 30.566 7.46553C28.7531 3.58314 24.1784 0.913208 19.0275 0.913208C18.9936 0.913208 18.9597 0.913208 18.9258 0.913208C12.572 0.956479 7.06537 5.25741 6.69253 10.5107C6.60786 11.7519 6.7774 12.9641 7.21787 14.1332C3.01596 14.9847 0 18.0732 0 21.7534C0 25.9965 3.21926 30.5282 12.2331 30.5282H41.4267C47.1535 30.5282 50.9998 25.9965 50.9999 21.7679C51 18.7516 48.8819 16.0094 45.6458 14.7105ZM41.4267 28.6951H12.2162C3.10083 28.6951 2.11799 23.8315 2.11799 21.7388C2.11799 18.6214 4.96451 16.0381 8.75971 15.735L10.2508 15.6197L9.64076 14.4652C8.99678 13.2384 8.70881 11.954 8.81051 10.6117C9.11552 6.29652 13.6732 2.74614 18.9427 2.71737C18.9766 2.71737 18.9935 2.71737 19.0274 2.71737C23.8055 2.71737 28.0074 5.48836 29.0071 9.31271L29.4816 11.0879L30.854 9.70232C32.3789 8.15813 34.7341 7.36431 37.1569 7.55199C39.8847 7.76851 42.257 9.31271 43.2058 11.492C43.6971 12.6177 43.748 13.7867 43.3583 14.9702L43.0872 15.7929L44.0359 16.0815C46.9162 16.9474 48.8648 19.2276 48.8648 21.7388C48.8649 25.0293 45.8152 28.6951 41.4267 28.6951Z" fill="url(#paint0_linear)" fill-opacity="0.5"/>
<defs>
<linearGradient id="paint0_linear" x1="25.4999" y1="0.913208" x2="25.4999" y2="30.5282" gradientUnits="userSpaceOnUse">
<stop stop-color="#C8E3FF"/>
<stop offset="0.479167" stop-color="#75AEE8"/>
</linearGradient>
</defs>
</svg>
