<svg width="95" height="94" viewBox="0 0 95 94" fill="none" xmlns="http://www.w3.org/2000/svg">
<path d="M85.0265 44.8141C85.5314 42.0035 85.2473 39.2553 84.2374 36.5383C81.9333 30.4173 76.1893 26.0766 69.6243 25.4833C64.9847 25.0461 60.44 26.3888 56.9367 29.1371C53.5597 20.7363 45.0382 14.959 35.4434 14.959C35.3803 14.959 35.317 14.959 35.254 14.959C23.4185 15.0526 13.161 24.3591 12.4665 35.7265C12.3088 38.4121 12.6246 41.0353 13.445 43.5648C5.61797 45.4073 0 52.0905 0 60.0538C0 69.2351 5.99667 79.041 22.7871 79.041H77.1673C87.8349 79.041 94.9996 69.2351 94.9998 60.0852C95 53.5583 91.0545 47.6248 85.0265 44.8141ZM77.1673 75.0745H22.7558C5.77605 75.0745 3.94527 64.5504 3.94527 60.0223C3.94527 53.2767 9.24762 47.6868 16.3171 47.031L19.0946 46.7813L17.9583 44.2832C16.7587 41.6286 16.2223 38.8494 16.4117 35.945C16.9799 26.6076 25.4697 18.9251 35.2855 18.8629C35.3486 18.8629 35.3801 18.8629 35.4432 18.8629C44.3435 18.8629 52.1706 24.8589 54.0329 33.1341L54.9166 36.9753L57.4731 33.9772C60.3136 30.6358 64.7007 28.9181 69.2139 29.3242C74.2951 29.7928 78.7141 33.1341 80.4814 37.8497C81.3965 40.2856 81.4913 42.8152 80.7655 45.3761L80.2604 47.1562L82.0277 47.7806C87.393 49.6544 91.0226 54.5885 91.0226 60.0223C91.0228 67.1424 85.3419 75.0745 77.1673 75.0745Z" fill="url(#paint0_linear)" fill-opacity="0.5"/>
<defs>
<linearGradient id="paint0_linear" x1="47.4999" y1="14.959" x2="47.4999" y2="79.041" gradientUnits="userSpaceOnUse">
<stop stop-color="#C8E3FF"/>
<stop offset="0.479167" stop-color="#75AEE8"/>
</linearGradient>
</defs>
</svg>
