<svg width="137" height="81" viewBox="0 0 137 81" fill="none" xmlns="http://www.w3.org/2000/svg">
<path d="M122.617 37.6341C123.345 34.1449 122.936 30.7331 121.479 27.3601C118.156 19.7613 109.873 14.3726 100.406 13.636C93.7149 13.0933 87.1608 14.7601 82.1087 18.172C77.2388 7.74286 64.9498 0.570679 51.1131 0.570679C51.0221 0.570679 50.9309 0.570679 50.8399 0.570679C33.772 0.686918 18.9795 12.2404 17.978 26.3523C17.7505 29.6863 18.2059 32.9428 19.3892 36.0831C8.1017 38.3705 0 46.6672 0 56.5532C0 67.9513 8.64782 80.1247 32.8614 80.1247H111.283C126.667 80.1247 136.999 67.9513 137 56.5922C137 48.4894 131.31 41.1233 122.617 37.6341ZM111.283 75.2005H32.8162C8.32967 75.2005 5.68949 62.1355 5.68949 56.514C5.68949 48.1398 13.336 41.2003 23.531 40.3862L27.5364 40.0762L25.8977 36.9749C24.1678 33.6794 23.3943 30.2292 23.6675 26.6235C24.4868 15.0317 36.73 5.49443 50.8854 5.41716C50.9764 5.41716 51.0219 5.41716 51.1128 5.41716C63.948 5.41716 75.2355 12.8608 77.9211 23.1341L79.1956 27.9026L82.8823 24.1807C86.9786 20.0325 93.3052 17.9001 99.8138 18.4043C107.141 18.9859 113.514 23.1341 116.063 28.9882C117.382 32.0122 117.519 35.1525 116.472 38.3317L115.744 40.5416L118.293 41.3168C126.03 43.643 131.264 49.7683 131.264 56.514C131.264 65.3532 123.072 75.2005 111.283 75.2005Z" fill="url(#paint0_linear)" fill-opacity="0.5"/>
<defs>
<linearGradient id="paint0_linear" x1="68.4999" y1="0.570679" x2="68.4999" y2="80.1247" gradientUnits="userSpaceOnUse">
<stop stop-color="#C8E3FF"/>
<stop offset="0.479167" stop-color="#75AEE8"/>
</linearGradient>
</defs>
</svg>
