<svg width="41" height="43" fill="none" xmlns="http://www.w3.org/2000/svg"><mask id="a" fill="#fff"><path d="M19.936 1.041l-2.314 6.424c-1.873 5.2-5.876 9.3-10.955 11.217l-6.274 2.37a.614.614 0 00-.393.576c0 .258.157.488.393.577l6.273 2.37c5.08 1.917 9.083 6.017 10.956 11.217l2.314 6.424a.601.601 0 00.564.402c.25 0 .476-.16.563-.402l2.314-6.425c1.873-5.2 5.877-9.299 10.956-11.217l6.275-2.369a.614.614 0 00.392-.577.614.614 0 00-.392-.576l-6.275-2.37c-5.08-1.917-9.083-6.016-10.956-11.217l-2.314-6.424A.601.601 0 0020.5.639a.601.601 0 00-.564.402z"/></mask><path d="M19.936 1.041L16.173-.314l3.763 1.355zm-2.314 6.424L13.86 6.109l3.763 1.356zM6.667 18.682L5.254 14.94l1.413 3.742zm-6.274 2.37l1.413 3.742-1.413-3.742zm0 1.153l1.413-3.742-1.413 3.742zm6.273 2.37l-1.413 3.742 1.413-3.743zm10.956 11.217l3.764-1.356-3.764 1.356zm2.314 6.424l-3.763 1.355 3.763-1.355zm1.127 0l-3.764-1.356 3.764 1.356zm2.314-6.425l3.763 1.356-3.763-1.355zm10.956-11.217l1.413 3.743-1.413-3.743zm6.275-2.369l1.413 3.742-1.413-3.742zm0-1.153l1.413-3.742-1.413 3.742zm-6.275-2.37l1.413-3.742-1.413 3.742zM23.377 7.465l3.764-1.355-3.764 1.355zm-2.314-6.424l-3.764 1.356 3.764-1.356zM20.5.639v-4 4zm-4.327-.953l-2.314 6.423 7.527 2.711L23.7 2.397 16.172-.314zm-2.314 6.423c-1.485 4.123-4.644 7.336-8.605 8.831l2.825 7.485c6.197-2.34 11.045-7.326 13.307-13.605l-7.527-2.71zM5.254 14.94l-6.275 2.37 2.827 7.484 6.274-2.37-2.826-7.484zm-6.275 2.37A4.614 4.614 0 00-4 21.628h8c0 1.36-.83 2.65-2.194 3.166l-2.827-7.484zM-4 21.628a4.614 4.614 0 002.98 4.32l2.826-7.485A3.386 3.386 0 014 21.628h-8zm2.98 4.32l6.273 2.369 2.827-7.485-6.274-2.369-2.827 7.484zm6.273 2.369c3.962 1.495 7.121 4.708 8.606 8.83l7.527-2.71c-2.262-6.279-7.11-11.265-13.307-13.605l-2.826 7.485zm8.606 8.83l2.314 6.424 7.527-2.71-2.314-6.425-7.527 2.711zm2.314 6.424a4.601 4.601 0 004.327 3.047v-8a3.4 3.4 0 013.2 2.242l-7.527 2.711zm4.327 3.047a4.601 4.601 0 004.326-3.047l-7.527-2.71a3.399 3.399 0 013.2-2.243v8zm4.326-3.047l2.314-6.424-7.526-2.711-2.315 6.424 7.527 2.712zm2.314-6.424c1.485-4.122 4.644-7.335 8.606-8.83l-2.826-7.485c-6.197 2.34-11.045 7.326-13.306 13.604l7.526 2.711zm8.606-8.83l6.274-2.37-2.826-7.484-6.274 2.37 2.826 7.484zm6.275-2.37A4.614 4.614 0 0045 21.628h-8c0-1.358.83-2.65 2.194-3.165l2.827 7.484zM45 21.628a4.614 4.614 0 00-2.98-4.318l-2.826 7.484A3.386 3.386 0 0137 21.628h8zm-2.98-4.318l-6.274-2.37-2.826 7.484 6.274 2.37 2.826-7.484zm-6.274-2.37c-3.962-1.496-7.121-4.708-8.605-8.83l-7.527 2.71c2.26 6.28 7.11 11.265 13.306 13.604l2.826-7.484zM27.14 6.11L24.826-.315l-7.527 2.712 2.315 6.424L27.14 6.11zM24.826-.315A4.601 4.601 0 0020.5-3.36v8a3.399 3.399 0 01-3.2-2.242l7.526-2.712zM20.5-3.36a4.601 4.601 0 00-4.327 3.047l7.526 2.711a3.399 3.399 0 01-3.2 2.242v-8z" fill="#C8E3FF" mask="url(#a)"/></svg>