<svg width="80" height="80" fill="none" xmlns="http://www.w3.org/2000/svg"><circle cx="40" cy="40" r="40" fill="url(#paint0_linear)"/><path d="M24.655 24.664v34.65c0 .368.298.666.666.666h25.321a.666.666 0 00.666-.666V31.328c0-.015-.007-.027-.008-.042a.629.629 0 00-.034-.171c-.008-.022-.013-.042-.022-.063a.66.66 0 00-.134-.195l-6.663-6.664a.65.65 0 00-.43-.19c-.01.002-.024-.005-.038-.005H25.322a.666.666 0 00-.667.666zm24.378 5.997h-4.388v-4.388l4.388 4.389zm-23.045-5.33h17.325v5.997c0 .368.298.666.666.666h5.997v26.654H25.988V25.33z" fill="#fff"/><path d="M52.641 54.65v1.332h2a.666.666 0 00.666-.666v-34.65A.666.666 0 0054.64 20H29.32a.666.666 0 00-.667.666v2h1.333v-1.334h23.988V54.65H52.64z" fill="#fff"/><path d="M29.986 33.327h15.992v1.332H29.986v-1.332zm0-3.998h5.33v1.332h-5.33V29.33zm0 7.996h10.661v1.332H29.986v-1.332zm11.994 0h3.998v1.332H41.98v-1.332zm-11.994 3.997h15.992v1.333H29.986v-1.333zm0 7.997h15.992v1.332H29.986V49.32zm5.997-3.999h9.995v1.333h-9.995v-1.332zm-5.997 0h4.664v1.333h-4.664v-1.332zm0 7.997h2.665v1.332h-2.665v-1.332zm3.998 0h11.994v1.332H33.984v-1.332z" fill="#fff"/><defs><linearGradient id="paint0_linear" x1="18.5" y1="5" x2="80" y2="155" gradientUnits="userSpaceOnUse"><stop stop-color="#3685D7"/><stop offset=".805" stop-color="#A3C8EE"/></linearGradient></defs></svg>