<svg width="18" height="14" fill="none" xmlns="http://www.w3.org/2000/svg"><path d="M15.803.15H2.2A2.203 2.203 0 000 2.353v9.296c0 1.214.987 2.201 2.201 2.201H15.8a2.203 2.203 0 002.2-2.2V2.355A2.2 2.2 0 0015.803.15zm1.195 11.498c0 .66-.536 1.196-1.195 1.196H2.2c-.66 0-1.195-.537-1.195-1.196V2.356c0-.66.536-1.196 1.195-1.196h13.6c.66 0 1.195.536 1.195 1.196v9.292h.004z" fill="#001C46"/><path d="M11.352 6.885l4.402-3.948a.505.505 0 00.037-.712.505.505 0 00-.711-.037L9.01 7.637 7.824 6.579a.745.745 0 00-.09-.082L2.917 2.184a.502.502 0 00-.711.041.502.502 0 00.04.712L6.7 6.918l-4.436 4.153a.505.505 0 00.69.737l4.502-4.212 1.222 1.091a.503.503 0 00.67-.003l1.255-1.125 4.477 4.253a.502.502 0 10.693-.73l-4.421-4.197z" fill="#001C46"/></svg>