<svg width="82" height="82" fill="none" xmlns="http://www.w3.org/2000/svg"><circle cx="40.794" cy="40.794" r="40" transform="rotate(1.149 40.794 40.794)" fill="url(#paint0_linear)"/><g clip-path="url(#clip0)" fill="#fff"><path d="M56.627 27.46H24.96a4.172 4.172 0 00-4.166 4.167v18.334a4.172 4.172 0 004.166 4.166h31.667a4.172 4.172 0 004.167-4.166V31.627a4.172 4.172 0 00-4.167-4.167zm2.5 22.5c0 1.379-1.122 2.5-2.5 2.5H24.96a2.503 2.503 0 01-2.5-2.5V31.628c0-1.378 1.122-2.5 2.5-2.5h31.667c1.378 0 2.5 1.122 2.5 2.5v18.334z"/><path d="M59.96 32.46H21.627a.834.834 0 00-.833.834v5c0 .46.373.833.833.833h38.334c.46 0 .833-.373.833-.833v-5a.834.834 0 00-.834-.834zm-.833 5H22.46v-3.333h36.667v3.333zm-22.5 6.667h-10a.834.834 0 000 1.667h10a.834.834 0 000-1.667zm0 3.333h-10a.834.834 0 000 1.667h10a.834.834 0 000-1.667zm16.667-5h-1.667a2.503 2.503 0 00-2.5 2.5v1.667c0 1.378 1.122 2.5 2.5 2.5h1.667c1.378 0 2.5-1.122 2.5-2.5V44.96c0-1.378-1.122-2.5-2.5-2.5zm.833 4.167c0 .46-.373.834-.833.834h-1.667a.834.834 0 01-.833-.834v-1.666c0-.46.373-.834.833-.834h1.667c.46 0 .833.373.833.834v1.666z"/></g><defs><linearGradient id="paint0_linear" x1="19.294" y1="5.794" x2="80.794" y2="155.794" gradientUnits="userSpaceOnUse"><stop stop-color="#3685D7"/><stop offset=".805" stop-color="#A3C8EE"/></linearGradient><clipPath id="clip0"><path fill="#fff" transform="translate(20.794 20.794)" d="M0 0h40v40H0z"/></clipPath></defs></svg>