<svg width="87" height="56" fill="none" xmlns="http://www.w3.org/2000/svg"><path d="M74.428 26.114c.133-.755.216-1.529.216-2.32 0-7.39-6.02-13.379-13.443-13.379-1.617 0-3.166.3-4.607.823C52.217 4.484 44.609 0 35.934 0c-13.58 0-24.586 10.955-24.586 24.47 0 .635.047 1.258.096 1.881C4.872 27.993 0 33.894 0 40.941 0 49.257 6.774 56 15.13 56h56.738c8.355 0 15.13-6.743 15.13-15.059 0-7.445-5.436-13.613-12.57-14.827z" fill="url(#paint0_linear)" fill-opacity=".35"/><defs><linearGradient id="paint0_linear" x1="43.499" y1="0" x2="43.499" y2="56" gradientUnits="userSpaceOnUse"><stop stop-color="#3686D7"/><stop offset=".365" stop-color="#73ADE8"/><stop offset="1" stop-color="#C8E3FF"/><stop offset="1" stop-opacity="0"/></linearGradient></defs></svg>