<svg width="59" height="37" fill="none" xmlns="http://www.w3.org/2000/svg"><path d="M49.405 14.307C49.068 6.364 42.115 0 33.615 0c-5.762 0-10.99 2.928-13.77 7.586a8.697 8.697 0 00-4.12-1.027c-4.297 0-7.846 3.084-8.29 7.03C2.95 15.453 0 19.665 0 24.348c0 3.08 1.254 5.992 3.532 8.199 2.273 2.202 5.316 3.463 8.568 3.55.07.002 6.253.003 18.379.003 15.642 0 17.07-.002 17.224-.003h.043c3.027-.095 5.858-1.278 7.97-3.332 2.117-2.06 3.282-4.774 3.282-7.644 0-5.376-4.114-9.898-9.593-10.814zm-1.732 19.047h-.014c-.243.001-7.295.002-17.18.002-8.607 0-17.871 0-18.311-.002-5.194-.148-9.26-4.101-9.26-9.006 0-3.834 2.578-7.255 6.416-8.514.591-.194.985-.724.976-1.315l-.002-.082-.001-.013c0-2.824 2.435-5.121 5.428-5.121 1.367 0 2.673.481 3.679 1.356.348.303.83.427 1.293.332a1.437 1.437 0 001.032-.807c2.022-4.52 6.688-7.44 11.887-7.44 7.11 0 12.894 5.457 12.894 12.166 0 .159-.005.33-.016.555-.034.75.576 1.387 1.37 1.43 4.613.248 8.227 3.862 8.227 8.226 0 4.462-3.696 8.074-8.418 8.233z" fill="#C8E3FF"/></svg>