<svg width="64" height="64" fill="none" xmlns="http://www.w3.org/2000/svg"><path d="M57.281 30.512c.34-1.914.149-3.785-.532-5.635-1.552-4.167-5.422-7.122-9.844-7.526-3.126-.298-6.188.616-8.548 2.487-2.275-5.72-8.015-9.653-14.48-9.653h-.127c-7.973.064-14.884 6.4-15.352 14.14a14.575 14.575 0 00.66 5.336C3.785 30.916 0 35.466 0 40.888c0 6.251 4.04 12.927 15.351 12.927h36.635C59.173 53.815 64 47.14 64 40.91c0-4.444-2.658-8.483-6.719-10.397zm-5.295 20.603H15.33c-11.439 0-12.672-7.166-12.672-10.249 0-4.592 3.572-8.398 8.335-8.845l1.87-.17-.765-1.7c-.808-1.808-1.17-3.7-1.042-5.678.383-6.357 6.103-11.588 12.715-11.63h.107c5.995 0 11.269 4.082 12.523 9.717l.595 2.615 1.723-2.041c1.913-2.275 4.869-3.445 7.91-3.168 3.422.319 6.4 2.594 7.59 5.804.617 1.659.68 3.381.191 5.125l-.34 1.212 1.19.425c3.615 1.276 6.06 4.635 6.06 8.334 0 4.848-3.827 10.249-9.334 10.249z" fill="url(#paint0_linear)" fill-opacity=".5"/><defs><linearGradient id="paint0_linear" x1="32" y1="10.185" x2="32" y2="53.815" gradientUnits="userSpaceOnUse"><stop stop-color="#C8E3FF"/><stop offset=".479" stop-color="#75AEE8"/></linearGradient></defs></svg>