<svg width="105" height="67" fill="none" xmlns="http://www.w3.org/2000/svg"><path d="M89.963 31.377c.158-.89.258-1.801.258-2.733 0-8.71-7.196-15.77-16.07-15.77-1.933 0-3.784.354-5.507.97C63.412 5.884 54.317.6 43.947.6c-16.233 0-29.39 12.912-29.39 28.84 0 .748.056 1.482.114 2.217C6.815 33.59.991 40.547.991 48.852.991 58.653 9.09 66.6 19.078 66.6h67.824c9.988 0 18.087-7.947 18.087-17.748 0-8.774-6.498-16.044-15.026-17.475z" fill="url(#paint0_linear)" fill-opacity=".5"/><defs><linearGradient id="paint0_linear" x1="52.99" y1=".6" x2="52.99" y2="66.6" gradientUnits="userSpaceOnUse"><stop stop-color="#3686D7"/><stop offset=".365" stop-color="#73ADE8"/><stop offset="1" stop-color="#C8E3FF"/><stop offset="1" stop-opacity="0"/></linearGradient></defs></svg>