<svg width="64" height="44" fill="none" xmlns="http://www.w3.org/2000/svg"><path d="M9.246 20.518a11.23 11.23 0 01-.158-1.822c0-5.807 4.428-10.513 9.889-10.513 1.19 0 2.329.235 3.389.647C25.586 3.523 31.183 0 37.564 0c9.99 0 18.087 8.608 18.087 19.227 0 .498-.035.988-.071 1.477 4.834 1.29 8.418 5.927 8.418 11.464 0 6.534-4.983 11.832-11.13 11.832H11.13C4.984 44 0 38.702 0 32.168c0-5.85 3.998-10.696 9.246-11.65z" fill="url(#paint0_linear)" fill-opacity=".5"/><defs><linearGradient id="paint0_linear" x1="31.999" y1="0" x2="31.999" y2="44" gradientUnits="userSpaceOnUse"><stop stop-color="#3686D7"/><stop offset=".365" stop-color="#73ADE8"/><stop offset="1" stop-color="#C8E3FF"/><stop offset="1" stop-opacity="0"/></linearGradient></defs></svg>