<svg width="48" height="34" fill="none" xmlns="http://www.w3.org/2000/svg"><path d="M5.04 15.884c-.256-1.435-.112-2.839.398-4.226a8.777 8.777 0 017.383-5.645c2.345-.223 4.64.462 6.411 1.866 1.706-4.29 6.012-7.24 10.86-7.24h.095c5.98.047 11.163 4.8 11.514 10.604.08 1.372-.08 2.711-.494 4.003 3.954.94 6.793 4.353 6.793 8.42 0 4.688-3.03 9.695-11.514 9.695H9.01c-5.39 0-9.01-5.007-9.01-9.68 0-3.332 1.993-6.362 5.04-7.797zm3.97 15.452h27.492c8.58 0 9.505-5.374 9.505-7.686 0-3.445-2.68-6.3-6.252-6.634l-1.403-.128.574-1.275a8.89 8.89 0 00.782-4.258c-.287-4.768-4.577-8.691-9.536-8.723h-.08c-4.497 0-8.452 3.062-9.393 7.288l-.446 1.961-1.292-1.53c-1.435-1.707-3.652-2.584-5.932-2.377a6.763 6.763 0 00-5.693 4.354c-.463 1.243-.51 2.535-.144 3.843l.255.909-.893.319c-2.71.956-4.544 3.476-4.544 6.25 0 3.636 2.87 7.687 7 7.687z" fill="url(#paint0_linear)" fill-opacity=".5"/><defs><linearGradient id="paint0_linear" x1="24" y1=".639" x2="24" y2="33.361" gradientUnits="userSpaceOnUse"><stop stop-color="#C8E3FF"/><stop offset=".479" stop-color="#75AEE8"/></linearGradient></defs></svg>