<svg width="65" height="39" fill="none" xmlns="http://www.w3.org/2000/svg"><path d="M55.608 18.163a8.7 8.7 0 00.16-1.613c0-5.14-4.497-9.306-10.043-9.306-1.208 0-2.366.208-3.442.572C39.013 3.12 33.329 0 26.847 0 16.702 0 8.478 7.62 8.478 17.02c0 .441.035.875.072 1.308C3.64 19.47 0 23.574 0 28.476 0 34.26 5.061 38.95 11.304 38.95h42.39c6.243 0 11.304-4.69 11.304-10.474 0-5.178-4.06-9.468-9.39-10.313z" fill="url(#paint0_linear)" fill-opacity=".5"/><defs><linearGradient id="paint0_linear" x1="32.499" y1="0" x2="32.499" y2="38.95" gradientUnits="userSpaceOnUse"><stop stop-color="#C8E3FF"/><stop offset="1" stop-color="#75AEE8"/><stop offset="1" stop-color="#FBFDFF"/></linearGradient></defs></svg>