<svg width="66" height="66" fill="none" xmlns="http://www.w3.org/2000/svg"><path d="M55.268 28.562c-.377-9.417-8.156-16.963-17.663-16.963A17.647 17.647 0 0022.2 20.594a9.295 9.295 0 00-4.61-1.218c-4.807 0-8.777 3.656-9.273 8.334A13.952 13.952 0 000 40.468a13.86 13.86 0 003.951 9.721 13.866 13.866 0 009.585 4.21c.077.002 6.995.003 20.56.003 17.499 0 19.097-.003 19.268-.004h.048a12.957 12.957 0 008.915-3.95A12.951 12.951 0 0066 41.382c0-6.374-4.603-11.734-10.732-12.821zM53.33 51.145h-.015c-.272.001-8.161.002-19.22.002-9.627 0-19.991 0-20.483-.002A10.63 10.63 0 013.253 40.467c0-4.546 2.884-8.602 7.177-10.095a1.626 1.626 0 001.092-1.559l-.002-.096-.001-.016a6.08 6.08 0 016.073-6.072c1.529 0 2.99.57 4.114 1.608a1.625 1.625 0 002.602-.563 14.405 14.405 0 0113.297-8.822c7.953 0 14.424 6.47 14.424 14.425 0 .188-.005.391-.017.658a1.626 1.626 0 001.532 1.695c5.16.295 9.203 4.579 9.203 9.753a9.727 9.727 0 01-9.417 9.762z" fill="url(#paint0_linear)" fill-opacity=".6"/><defs><linearGradient id="paint0_linear" x1="33" y1="11.599" x2="33" y2="54.401" gradientUnits="userSpaceOnUse"><stop stop-color="#C4C4C4"/><stop offset=".505" stop-color="#3685D7"/></linearGradient></defs></svg>