<svg width="75" height="52" fill="none" xmlns="http://www.w3.org/2000/svg"><path d="M67.126 23.82c.399-2.242.174-4.435-.623-6.602-1.819-4.884-6.353-8.348-11.536-8.821-3.663-.349-7.251.723-10.017 2.915C42.284 4.61 35.556 0 27.982 0h-.15C18.488.075 10.39 7.5 9.842 16.57a17.08 17.08 0 00.772 6.254C4.435 24.294 0 29.626 0 35.98c0 7.325 4.734 15.15 17.99 15.15h42.932C69.343 51.13 75 43.304 75 36.004c0-5.208-3.115-9.942-7.874-12.184zm-6.204 24.145H17.965c-13.405 0-14.85-8.397-14.85-12.01 0-5.382 4.186-9.842 9.767-10.366l2.193-.199-.897-1.993c-.947-2.118-1.37-4.335-1.221-6.653.448-7.45 7.15-13.58 14.9-13.63h.125c7.026 0 13.205 4.785 14.675 11.388l.698 3.064 2.019-2.392c2.242-2.666 5.706-4.036 9.269-3.712 4.011.373 7.5 3.04 8.895 6.802.722 1.943.797 3.962.224 6.005l-.398 1.42 1.395.498c4.236 1.495 7.101 5.432 7.101 9.768 0 5.68-4.485 12.01-10.938 12.01z" fill="#3685D7" fill-opacity=".5"/></svg>