<svg width="55" height="37" fill="none" xmlns="http://www.w3.org/2000/svg"><path d="M49.226 17.402c.292-1.56.128-3.086-.457-4.594C47.435 9.41 44.11 7 40.31 6.67c-2.686-.242-5.317.503-7.346 2.028C31.008 4.036 26.075.83 20.52.83h-.11C13.558.881 7.62 6.047 7.217 12.357c-.09 1.49.092 2.947.567 4.351C3.253 17.731 0 21.441 0 25.861c0 5.096 3.472 10.54 13.193 10.54h31.483C50.852 36.4 55 30.957 55 25.878c0-3.623-2.284-6.916-5.774-8.476zm-4.55 16.797H13.174c-9.83 0-10.89-5.842-10.89-8.355 0-3.745 3.07-6.848 7.163-7.212l1.608-.138-.658-1.387c-.695-1.474-1.005-3.016-.895-4.629.328-5.183 5.244-9.447 10.926-9.482h.092c5.153 0 9.684 3.329 10.762 7.922l.512 2.132 1.48-1.664c1.645-1.855 4.184-2.808 6.797-2.583 2.942.26 5.5 2.115 6.524 4.733.53 1.352.584 2.756.164 4.178l-.292.988 1.023.346c3.106 1.04 5.207 3.78 5.207 6.796 0 3.952-3.288 8.355-8.021 8.355z" fill="url(#paint0_linear)" fill-opacity=".5"/><defs><linearGradient id="paint0_linear" x1="27.5" y1=".829" x2="27.5" y2="36.401" gradientUnits="userSpaceOnUse"><stop stop-color="#C8E3FF"/><stop offset=".479" stop-color="#75AEE8"/></linearGradient></defs></svg>