<svg width="44" height="44" fill="none" xmlns="http://www.w3.org/2000/svg"><path d="M39.38 20.977c.234-1.316.103-2.602-.365-3.874a8.046 8.046 0 00-6.768-5.175c-2.149-.204-4.254.424-5.876 1.71-1.564-3.932-5.511-6.636-9.955-6.636h-.088c-5.481.044-10.232 4.4-10.554 9.721a10.02 10.02 0 00.453 3.669C2.602 21.255 0 24.382 0 28.11c0 4.298 2.777 8.888 10.554 8.888h25.187c4.94 0 8.259-4.59 8.259-8.873 0-3.055-1.827-5.833-4.62-7.148zM35.74 35.14h-25.2c-7.865 0-8.713-4.926-8.713-7.045 0-3.158 2.456-5.774 5.73-6.081l1.287-.117-.526-1.17a8.15 8.15 0 01-.717-3.903c.263-4.37 4.196-7.966 8.742-7.996h.073c4.122 0 7.747 2.807 8.61 6.68l.41 1.799 1.183-1.404c1.316-1.564 3.348-2.368 5.438-2.178a6.2 6.2 0 015.219 3.99 5.592 5.592 0 01.131 3.524l-.234.833.819.292c2.485.878 4.166 3.187 4.166 5.73 0 3.333-2.631 7.046-6.417 7.046z" fill="url(#paint0_linear)" fill-opacity=".5"/><defs><linearGradient id="paint0_linear" x1="22" y1="7.002" x2="22" y2="36.998" gradientUnits="userSpaceOnUse"><stop stop-color="#C8E3FF"/><stop offset=".479" stop-color="#75AEE8"/></linearGradient></defs></svg>