<svg width="71" height="43" fill="none" xmlns="http://www.w3.org/2000/svg"><path d="M60.742 20.052c.108-.58.176-1.174.176-1.781 0-5.675-4.913-10.274-10.971-10.274-1.32 0-2.584.23-3.76.632C42.615 3.443 36.406 0 29.327 0 18.243 0 9.26 8.412 9.26 18.79c0 .487.038.965.079 1.444C3.976 21.494 0 26.025 0 31.437 0 37.823 5.529 43 12.348 43h46.304C65.472 43 71 37.823 71 31.437c0-5.716-4.436-10.453-10.258-11.385z" fill="url(#paint0_linear)" fill-opacity=".5"/><defs><linearGradient id="paint0_linear" x1="35.5" y1="0" x2="35.5" y2="43" gradientUnits="userSpaceOnUse"><stop stop-color="#fff"/><stop offset="1" stop-color="#FBFDFF"/><stop offset="1" stop-color="#C8E3FF"/></linearGradient></defs></svg>