<svg width="43" height="29" fill="none" xmlns="http://www.w3.org/2000/svg"><path d="M36.787 13.955c.066-.377.107-.764.107-1.159 0-3.693-2.975-6.686-6.644-6.686-.8 0-1.565.15-2.278.41C25.81 3.146 22.05.906 17.761.906 11.049.906 5.609 6.38 5.609 13.135c0 .317.023.628.047.94A7.513 7.513 0 000 21.363c0 4.157 3.348 7.526 7.478 7.526h28.044c4.13 0 7.478-3.37 7.478-7.525a7.51 7.51 0 00-6.213-7.41z" fill="url(#paint0_linear)" fill-opacity=".5"/><defs><linearGradient id="paint0_linear" x1="21.5" y1=".905" x2="21.5" y2="28.89" gradientUnits="userSpaceOnUse"><stop stop-color="#3686D7"/><stop offset=".365" stop-color="#73ADE8"/><stop offset="1" stop-color="#C8E3FF"/><stop offset="1" stop-opacity="0"/></linearGradient></defs></svg>