<svg width="37" height="24" fill="none" xmlns="http://www.w3.org/2000/svg"><path d="M33.116 11.164c.196-1.051.086-2.079-.308-3.095-.897-2.289-3.134-3.912-5.691-4.134-1.807-.163-3.577.339-4.942 1.367C20.86 2.16 17.541 0 13.805 0h-.075C9.12.035 5.127 3.515 4.855 7.766a7.63 7.63 0 00.381 2.93C2.188 11.387 0 13.886 0 16.864c0 3.433 2.336 7.1 8.875 7.1h21.18c4.154 0 6.945-3.667 6.945-7.089 0-2.44-1.537-4.66-3.884-5.71zm-3.061 11.315H8.863c-6.613 0-7.326-3.935-7.326-5.628 0-2.523 2.065-4.613 4.818-4.858l1.082-.094-.443-.934a6.228 6.228 0 01-.602-3.118c.221-3.491 3.528-6.364 7.35-6.387h.062c3.467 0 6.515 2.242 7.24 5.336l.345 1.437.995-1.121c1.107-1.25 2.815-1.892 4.573-1.74 1.979.175 3.7 1.424 4.388 3.188.357.91.394 1.856.111 2.814l-.197.666.689.233c2.09.7 3.503 2.546 3.503 4.578 0 2.662-2.213 5.628-5.396 5.628z" fill="#fff"/></svg>