<svg width="70" height="70" fill="none" xmlns="http://www.w3.org/2000/svg"><circle cx="35" cy="35" r="35" fill="#3685D7"/><path d="M49.255 20.745A5.92 5.92 0 0045.042 19H24.958A5.965 5.965 0 0019 24.958v20.084A5.965 5.965 0 0024.958 51h20.084A5.965 5.965 0 0051 45.042V24.958a5.92 5.92 0 00-1.745-4.213zm-.13 24.297a4.088 4.088 0 01-4.083 4.083H24.958a4.088 4.088 0 01-4.083-4.083V24.958a4.088 4.088 0 014.083-4.083h20.084c1.09 0 2.116.425 2.887 1.196a4.057 4.057 0 011.196 2.887v20.084z" fill="#fff"/><path d="M40.633 32.593a.937.937 0 00-1.326 0l-3.37 3.37v-10a.938.938 0 00-1.875 0v10l-3.37-3.37a.937.937 0 00-1.325 1.326l4.97 4.97a.937.937 0 001.326 0l4.97-4.97a.938.938 0 000-1.326zM44.038 43.1H25.963a.938.938 0 000 1.875h18.075a.938.938 0 000-1.875z" fill="#fff"/></svg>