<svg width="30" height="30" fill="none" xmlns="http://www.w3.org/2000/svg"><circle cx="15" cy="15" r="15" fill="#EDF6FF"/><path d="M22.517 14.273H14.09a.727.727 0 000 1.454h8.426l-.94.94a.727.727 0 001.028 1.03l2.182-2.183a.704.704 0 00.048-.052l.01-.014a.67.67 0 00.032-.044l.008-.013a.694.694 0 00.029-.048l.005-.01a.713.713 0 00.025-.054l.003-.007a.72.72 0 00.021-.06l.002-.008a.723.723 0 00.016-.06l.003-.02a.7.7 0 00.008-.197l-.008-.052-.003-.018a.7.7 0 00-.016-.062c0-.002 0-.005-.002-.007a.708.708 0 00-.021-.06l-.003-.007a.67.67 0 00-.025-.055l-.005-.01a.668.668 0 00-.029-.047l-.008-.013a.448.448 0 00-.032-.044l-.01-.013a.75.75 0 00-.048-.053l-2.182-2.182a.725.725 0 00-1.028 0 .727.727 0 000 1.028l.94.94z" fill="#3685D7"/><path d="M14.95 20.95a5.945 5.945 0 004.94-2.635.727.727 0 00-1.207-.811 4.492 4.492 0 01-3.734 1.99A4.5 4.5 0 0110.454 15a4.494 4.494 0 018.222-2.512.727.727 0 001.206-.815 5.947 5.947 0 00-4.933-2.622A5.956 5.956 0 009 15c0 3.28 2.669 5.95 5.95 5.95z" fill="#3685D7"/></svg>