<svg width="40" height="40" fill="none" xmlns="http://www.w3.org/2000/svg"><path d="M37.484 22.138a12.21 12.21 0 000-4.276L40 15.346l-2.516-6.29h-3.522c-.755-1.006-2.012-2.012-3.019-3.018V2.516L24.654 0l-2.516 2.516a12.21 12.21 0 00-4.276 0L15.346 0l-6.29 2.516v3.522C8.05 6.793 7.045 8.05 6.039 9.057H2.516L0 15.346l2.516 2.516a12.21 12.21 0 000 4.276L0 24.654l2.516 6.29h3.522c.755 1.006 2.012 2.012 3.019 3.018v3.522L15.346 40l2.516-2.516a12.21 12.21 0 004.276 0L24.654 40l6.29-2.516v-3.522c1.006-.755 2.012-2.012 3.018-3.019h3.522L40 24.654l-2.516-2.516zm-20.377 5.535c-4.276-1.761-6.29-6.541-4.528-10.566 1.76-4.277 6.54-6.29 10.566-4.529 4.277 1.761 6.29 6.541 4.528 10.567-1.51 4.276-6.29 6.289-10.566 4.528z" fill="#75AEE8"/></svg>