<svg width="33" height="33" fill="none" xmlns="http://www.w3.org/2000/svg"><path d="M30.17 18.288a9.767 9.767 0 000-3.422l2.013-2.012-2.012-5.032h-2.818c-.604-.805-1.61-1.61-2.415-2.415V2.59L19.906.577 17.894 2.59a9.768 9.768 0 00-3.421 0L12.46.577 7.429 2.59v2.817c-.806.604-1.61 1.61-2.416 2.415H2.196L.183 12.854l2.013 2.012a9.768 9.768 0 000 3.422L.183 20.3l2.013 5.032h2.817c.604.805 1.61 1.61 2.416 2.415v2.817l5.03 2.013 2.014-2.012a9.767 9.767 0 003.42 0l2.013 2.012 5.032-2.012v-2.818c.805-.604 1.61-1.61 2.415-2.415h2.818l2.012-5.032-2.012-2.012zm-16.3 4.427c-3.421-1.409-5.031-5.232-3.623-8.453 1.409-3.42 5.233-5.031 8.453-3.622 3.421 1.409 5.031 5.232 3.623 8.453-1.208 3.421-5.032 5.031-8.453 3.622z" fill="#C8E3FF"/></svg>