<svg width="131" height="127" fill="none" xmlns="http://www.w3.org/2000/svg"><path d="M122.199 70.04c.817-4.753.817-8.714 0-13.466l8.176-7.921-8.176-19.802h-11.447c-2.453-3.169-6.541-6.337-9.812-9.505V8.256L80.5.335l-8.175 7.92c-4.906-.791-8.994-.791-13.9 0L50.25.336l-20.44 7.92v11.09c-3.27 2.377-6.54 6.337-9.811 9.506H8.55L.375 48.653l8.176 7.92c-.818 4.753-.818 8.714 0 13.466L.375 77.96 8.55 97.762h11.447c2.453 3.169 6.54 6.337 9.811 9.506v11.089l20.44 7.921 8.176-7.921c4.906.792 8.994.792 13.9 0l8.176 7.921 20.439-7.921v-11.089c3.271-2.377 6.541-6.337 9.812-9.506h11.447l8.176-19.802-8.176-7.92zm-65.41 16.633C42.892 81.13 36.35 66.08 42.074 53.405c5.723-13.465 21.258-19.802 34.34-14.257 13.899 5.544 20.44 20.594 14.717 33.268C85.406 85.88 69.87 92.218 56.79 86.673z" fill="#C8E3FF"/></svg>