<svg width="424" height="410" fill="none" xmlns="http://www.w3.org/2000/svg"><path d="M284.283 105.002c-2.645-10.578-7.052-21.156-12.341-30.852l10.578-24.682-37.023-36.142-24.682 10.579c-9.697-5.289-19.393-9.697-30.852-12.342L181.148-14H129.14l-9.697 25.563c-10.578 2.645-21.156 7.052-30.852 12.342L63.908 13.326 27.767 49.469 38.345 74.15c-5.289 9.696-9.697 19.393-12.341 30.852L.44 114.698v52.009l25.564 9.696c2.644 10.578 7.052 21.157 12.341 30.852l-10.578 24.682 37.023 36.142 24.682-10.578c9.696 5.288 19.393 9.696 30.852 12.341l9.696 25.563h51.127l9.697-25.563c10.578-2.645 21.156-7.052 30.852-12.341l24.682 10.578 37.023-36.142-10.579-24.682c5.289-9.696 9.697-19.393 12.342-30.852l25.563-9.696v-52.009l-26.444-9.696zm-129.58 98.728c-35.26 0-63.468-28.208-63.468-63.468 0-35.26 28.208-63.468 63.468-63.468 35.26 0 63.468 28.208 63.468 63.468 0 35.26-28.208 63.468-63.468 63.468z" fill="#75AEE8"/><path d="M199.659 185.218a62.781 62.781 0 01-89.032 0l-22.918 22.919c37.023 37.023 97.846 37.023 134.868 0 37.023-37.023 37.023-96.965 0-134.869l-22.918 22.919a62.78 62.78 0 010 89.031z" fill="#C8E3FF"/><path d="M87.709 73.268c-37.024 37.023-37.024 96.965 0 134.869l22.918-22.919a62.781 62.781 0 010-89.031 62.782 62.782 0 0189.032 0l22.918-22.919c-37.022-37.023-97.845-37.023-134.868 0z" fill="#C8E3FF"/></svg>