<svg width="70" height="70" fill="none" xmlns="http://www.w3.org/2000/svg"><circle cx="35" cy="35" r="35" fill="#FF9700"/><path d="M27.04 35.82a.889.889 0 000 1.776c.49 0 .87-.399.87-.888 0-.49-.38-.888-.87-.888zM35.059 20a4.4 4.4 0 00-4.395 4.395 4.4 4.4 0 004.395 4.394 4.4 4.4 0 004.394-4.395A4.4 4.4 0 0035.06 20zm0 7.031a2.64 2.64 0 01-2.637-2.636 2.64 2.64 0 012.637-2.637 2.64 2.64 0 012.636 2.637 2.64 2.64 0 01-2.636 2.636zm3.515 5.274h-7.031a.879.879 0 000 1.758h7.031a.879.879 0 000-1.758z" fill="#fff"/><path d="M48.97 33.334a.879.879 0 10-1.243 1.243 1.76 1.76 0 01-1.243 3h-.04c-.446-4.92-4.593-8.788-9.628-8.788h-4.394c-.56 0-1.2.063-1.82.178a6.09 6.09 0 00-4.45-1.936.88.88 0 00-.879.88v3.955a9.645 9.645 0 00-2.241 3.954h-.395A2.64 2.64 0 0020 38.457v1.816a2.635 2.635 0 002.637 2.631c.3 0 .72.001 1.055.003a10.011 10.011 0 002.456 3.12c.004 1.166.004 3.072.004 3.094a.88.88 0 00.88.879h3.515a.879.879 0 00.879-.879v-.924c.332.03.673.045.996.045h4.394v.88a.88.88 0 00.88.878h3.515a.879.879 0 00.879-.879c0-.013 0-1.156.003-2.445a9.685 9.685 0 003.063-3.267 9.949 9.949 0 001.288-4.073h.04A3.52 3.52 0 0050 35.82c0-.939-.366-1.822-1.03-2.486zm-8.195 12.09a.88.88 0 00-.439.759l-.003 2.06h-1.759v-2.638a.879.879 0 00-1.758 0v.88h-4.394c-.326 0-.67-.02-.996-.054v-.825a.879.879 0 00-1.758 0v2.636H27.91c0-.815-.002-1.997-.005-2.645a.879.879 0 00-.35-.697c-1.05-.79-1.937-1.93-2.499-3.212a.879.879 0 00-.767-.525c-.233-.01-1.417-.01-1.652-.01a.88.88 0 01-.88-.88v-1.816a.88.88 0 01.88-.879h1.059c.466 0 .794-.295.885-.67.035-.144.107-.437.123-.543a7.89 7.89 0 012.066-3.516.879.879 0 00.261-.625V28.88a4.4 4.4 0 012.555 1.598c.212.268.56.39.893.31a8.816 8.816 0 011.943-.241h4.394c4.362 0 7.91 3.548 7.91 7.91 0 2.842-1.55 5.577-3.951 6.968z" fill="#fff"/></svg>