<svg width="71" height="67" fill="none" xmlns="http://www.w3.org/2000/svg"><ellipse cx="35.971" cy="33.731" rx="34.999" ry="33.247" fill="#FF9700"/><path d="M42.652 31.89c0-.647-.525-1.171-1.172-1.171H29.41a1.172 1.172 0 100 2.343h12.07c.647 0 1.172-.524 1.172-1.171zM29.41 35.406a1.172 1.172 0 000 2.344h7.33a1.172 1.172 0 100-2.344h-7.33z" fill="#fff"/><path d="M32.164 46.656h-3.92a2.346 2.346 0 01-2.343-2.343V23.686a2.346 2.346 0 012.343-2.343h14.408a2.346 2.346 0 012.344 2.343v7.207a1.172 1.172 0 102.343 0v-7.206A4.693 4.693 0 0042.652 19H28.244a4.693 4.693 0 00-4.687 4.688v20.625A4.693 4.693 0 0028.244 49h3.92a1.172 1.172 0 100-2.344z" fill="#fff"/><path d="M49.415 35.967a3.52 3.52 0 00-4.97 0l-6.435 6.419a1.172 1.172 0 00-.293.489l-1.401 4.612a1.172 1.172 0 001.434 1.47l4.73-1.31c.194-.054.372-.157.515-.3l6.42-6.408a3.52 3.52 0 000-4.972zm-7.858 9.504l-2.38.659.697-2.293 4.341-4.331 1.658 1.657-4.316 4.308zm6.202-6.19l-.227.227-1.658-1.658.227-.226a1.173 1.173 0 011.658 1.657zm-6.279-13.25H29.41a1.172 1.172 0 000 2.344h12.07a1.172 1.172 0 100-2.344z" fill="#fff"/></svg>