<svg width="18" height="18" fill="none" xmlns="http://www.w3.org/2000/svg"><g clip-path="url(#clip0)" fill="#fff"><path d="M15.803 2.15H2.2A2.203 2.203 0 000 4.353v9.296c0 1.214.987 2.201 2.201 2.201H15.8a2.203 2.203 0 002.2-2.2V4.355a2.2 2.2 0 00-2.197-2.205zm1.195 11.498c0 .66-.536 1.196-1.195 1.196H2.2c-.66 0-1.195-.537-1.195-1.196V4.356c0-.66.536-1.196 1.195-1.196h13.6c.66 0 1.195.536 1.195 1.196v9.292h.004z"/><path d="M11.352 8.885l4.402-3.948a.505.505 0 00.037-.711.505.505 0 00-.711-.038l-6.07 5.45-1.185-1.059a.744.744 0 00-.09-.082L2.917 4.185a.502.502 0 00-.711.04.502.502 0 00.04.712L6.7 8.918l-4.436 4.153a.505.505 0 00.69.737l4.502-4.212 1.222 1.091a.502.502 0 00.67-.003l1.255-1.125 4.477 4.253a.502.502 0 10.693-.73l-4.421-4.197z"/></g><defs><clipPath id="clip0"><path fill="#fff" d="M0 0h18v18H0z"/></clipPath></defs></svg>