<svg width="20" height="20" fill="none" xmlns="http://www.w3.org/2000/svg"><path d="M10 0C6.006 0 2.757 3.25 2.757 7.243c0 4.957 6.482 12.233 6.758 12.54a.65.65 0 00.97 0c.276-.307 6.758-7.583 6.758-12.54C17.243 3.25 13.993 0 10 0zm0 18.349c-2.182-2.591-5.939-7.704-5.939-11.106A5.946 5.946 0 0110 1.304a5.946 5.946 0 015.939 5.94c0 3.401-3.757 8.513-5.939 11.105z" fill="#fff"/><path d="M10 3.6a3.648 3.648 0 00-3.644 3.643A3.648 3.648 0 0010 10.888a3.648 3.648 0 003.644-3.645A3.648 3.648 0 0010 3.6zm0 5.983c-1.29 0-2.34-1.05-2.34-2.34 0-1.29 1.05-2.34 2.34-2.34 1.29 0 2.34 1.05 2.34 2.34 0 1.29-1.05 2.34-2.34 2.34z" fill="#fff"/></svg>