<svg width="18" height="18" fill="none" xmlns="http://www.w3.org/2000/svg"><g clip-path="url(#clip0)"><path d="M14.49 17.05a.713.713 0 01-.4-.123l-4.525-3.07-2.428 1.747a.713.713 0 01-1.105-.396l-1.219-4.62L.458 8.924a.713.713 0 01-.009-1.327l16.56-6.59a.712.712 0 01.977.8L15.19 16.47a.713.713 0 01-.7.58zm-4.528-4.645l4.031 2.735 2.175-11.412-7.855 7.559 1.63 1.105a.376.376 0 01.019.013zm-3.356-.608l.54 2.045 1.163-.837-1.523-1.033a.71.71 0 01-.18-.175zM2.673 8.244l2.99 1.144a.713.713 0 01.435.483l.38 1.438a.713.713 0 01.214-.44l7.485-7.202L2.673 8.244z" fill="#3685D7"/></g><defs><clipPath id="clip0"><path fill="#fff" d="M0 0h18v18H0z"/></clipPath></defs></svg>