<svg width="93" height="67" fill="none" xmlns="http://www.w3.org/2000/svg"><path d="M22.157 16.377a.911.911 0 01-.724-1.073.91.91 0 011.074-.724l20.158 4.218c.5.125.825.6.725 1.099a.953.953 0 01-1.1.699l-20.133-4.219zm5.97 5.667a.91.91 0 01-.724-1.074.954.954 0 011.099-.699l8.593 1.773c.474.124.8.599.7 1.098a.914.914 0 01-1.075.699l-8.593-1.797zm19.46-7.29l11.565-9.01c1.599-3.745 1.623-9.137 5.495-2.871l.125.224 12.115 3.994c.925.3 1.574.749 1.574 1.723v4.742c0 .575-.45 1.024-1 1.024H63.899c-.25 0-.375.125-.375.4v.823c0 .175.05.275.175.35.275.15.575.299 1.024.623.725.5 1.549 1.124 2.298 1.898.875.898 1.624 1.947 1.949 3.12.375 1.248.25 2.62-.7 3.969-.25.35-.524.699-.874 1.023-1.798 1.748-5.47 3.195-9.567 4.319-7.844 2.171-17.386 3.295-17.736 3.345-.574.05-1.074-.35-1.124-.899-.05-.55.35-1.048.9-1.098.35-.025 9.692-1.149 17.385-3.27 3.822-1.049 7.17-2.347 8.693-3.82.275-.25.45-.499.625-.723.55-.774.624-1.548.424-2.272-.224-.799-.774-1.573-1.448-2.247a14.204 14.204 0 00-1.999-1.647c-.45-.3-.75-.45-.974-.574-.375-.2-.575-.325-.8-.624-.3-.425-.3-.75-.3-1.623v-1.997c0-.549.476-.998 1.025-.998h13.464c.275 0 .45-.225.45-.4 0-.2.025-.474.025-1.672 0-1.423.1-1.373-.775-1.648-7.618-2.52-7.768-2.546-11.815-3.894-.225-.075-.425-.2-.55-.424-1.748-3.12-.624-2.172-2.348 2.296-.075.15-.175.3-.324.425l-12.14 9.435c-.225.175-.525.275-.825.2l-33.298-6.69c-.524-.1-.874-.624-.774-1.173a.983.983 0 011.174-.774l32.823 6.416zm28.526 43.31v-5.616c0-.949-.15-1.822-.475-2.596-.3-.8-.774-1.498-1.398-2.147-.625-.65-1.324-1.148-2.099-1.473-.774-.324-1.624-.474-2.548-.474-.924 0-1.798.175-2.573.5-.774.324-1.498.823-2.148 1.472-.65.649-1.149 1.373-1.474 2.172a6.645 6.645 0 00-.5 2.57c0 .924.176 1.773.475 2.547.325.774.825 1.473 1.474 2.097 1.3 1.223 2.873 1.847 4.746 1.847.775 0 1.474-.125 2.123-.325.625-.224 1.225-.524 1.75-.948.099-.1.224-.15.374-.15.3 0 .55.25.55.55.024.973 1.723 1.247 1.723-.026zm-8.443-1.148c-.6-.225-1.124-.6-1.599-1.048-.5-.45-.85-.974-1.099-1.548a4.641 4.641 0 01-.375-1.872c0-.674.125-1.298.375-1.897.25-.6.625-1.124 1.1-1.623.998-.998 2.172-1.498 3.521-1.498a4.65 4.65 0 011.874.375c.574.25 1.099.624 1.573 1.123.45.474.8 1.024 1.025 1.598.224.599.35 1.223.35 1.897a5.11 5.11 0 01-.35 1.872 4.525 4.525 0 01-1.025 1.548 4.58 4.58 0 01-1.573 1.048c-.575.225-1.2.35-1.874.35a4.88 4.88 0 01-1.923-.325zm12.764 8.412V58.19c0-.125.025-.225.125-.325a.557.557 0 01.775-.124c.6.449 1.249.798 1.923 1.023a6.633 6.633 0 002.123.325c1.849 0 3.423-.65 4.722-1.922 1.298-1.298 1.923-2.846 1.923-4.718 0-7.39-10.067-9.062-12.79-2.521a6.486 6.486 0 00-.5 2.52v12.881c-.024 1.123 1.7 1.099 1.7 0zm.375-10.983a4.728 4.728 0 01-.375-1.872v-.025c0-.674.125-1.298.35-1.897.25-.575.6-1.124 1.1-1.598.948-.949 2.098-1.423 3.471-1.423.675 0 1.3.125 1.899.35.6.25 1.124.599 1.599 1.098h.025c.474.5.824 1.048 1.049 1.622.25.575.35 1.199.35 1.848a5.11 5.11 0 01-.35 1.872 4.42 4.42 0 01-1.074 1.572c-.975.974-2.149 1.448-3.498 1.448a5.103 5.103 0 01-1.873-.35 4.53 4.53 0 01-1.574-1.073 4.26 4.26 0 01-1.099-1.572zm-22.606-4.718c.174.424.25.874.25 1.348v7.164c0 1.123 1.723 1.123 1.723 0v-7.214c-.025-.724-.15-1.398-.425-1.997a5.286 5.286 0 00-1.149-1.672c-1.024-1.024-2.248-1.523-3.722-1.523a5.19 5.19 0 00-1.998.374c-.6.25-1.174.65-1.674 1.149s-.899 1.073-1.149 1.672c-.25.6-.4 1.248-.4 1.972v7.24c0 1.123 1.724 1.123 1.724 0v-7.164c0-.474.1-.924.25-1.348.15-.424.425-.799.774-1.148.35-.35.725-.6 1.124-.774a3.52 3.52 0 011.35-.275c.499 0 .949.1 1.348.275.425.175.825.45 1.15.774.399.35.649.749.824 1.148zm-20.134 5.167c.2-.699.35-1.373.4-2.047l.05-1.747v-.025c0-.474.075-.924.25-1.348.174-.424.424-.799.774-1.148.325-.35.724-.6 1.124-.774a3.52 3.52 0 012.723 0c.424.175.799.45 1.149.774.35.35.6.724.774 1.148.175.424.25.874.25 1.348v7.164c0 1.123 1.723 1.123 1.723 0v-7.214c-.025-.724-.15-1.398-.4-1.997a5.266 5.266 0 00-1.148-1.672c-1.024-1.024-2.248-1.523-3.722-1.523-1.424 0-2.648.5-3.672 1.523a5.72 5.72 0 00-1.15 1.672c-.25.6-.399 1.248-.399 1.972v1.348a9.4 9.4 0 01-.25 1.922 6.527 6.527 0 01-.6 1.697c0 .026 0 .026-.024.026-.35.673-.9 1.198-1.624 1.572-.924.6-.075 2.072.9 1.473h.024c.4-.225.775-.524 1.1-.849a5.83 5.83 0 00.874-1.148c.4-.749.674-1.448.874-2.147zm-7.394 9.76c1.05-1.048 1.574-2.296 1.574-3.769V46.657c0-1.124-1.724-1.124-1.724 0v7.114c0 .474-.1.923-.25 1.348a3.455 3.455 0 01-.774 1.148c-.35.35-.725.599-1.15.774-.424.175-.873.25-1.348.25-.475 0-.924-.075-1.349-.25a3.633 3.633 0 01-1.124-.774 3.63 3.63 0 01-.774-1.123 3.514 3.514 0 01-.275-1.348v-7.114c0-1.099-1.699-1.124-1.699 0v7.139c.025 1.398.55 2.62 1.549 3.62l.025.024c1 .999 2.223 1.498 3.647 1.498.5 0 .974-.075 1.399-.175.424-.125.85-.3 1.224-.524.1-.075.2-.1.325-.1.3 0 .574.25.574.55v2.071c0 1.024-.35 1.872-1.049 2.571-.35.35-.75.624-1.199.799-.45.175-.9.25-1.424.25-.724 0-1.374-.175-1.923-.525-.55-.324-1-.823-1.35-1.472-.024-.025-.024-.05-.024-.075-.3-.75-1.624-.474-1.599.424 0 .125.05.225.1.35.225.449.5.848.824 1.223.325.374.725.674 1.15.973.424.25.874.475 1.323.6a5.91 5.91 0 001.5.199c.724 0 1.423-.125 2.047-.4.65-.224 1.224-.623 1.774-1.148zm-11.59-6.39v-7.289c-.026-1.398-.525-2.571-1.524-3.57a4.902 4.902 0 00-1.674-1.148 5.18 5.18 0 00-1.998-.374c-.8 0-1.524.15-2.173.45a4.92 4.92 0 00-1.724 1.347l-.075.075a.56.56 0 01-.8-.075c-.999-1.173-2.298-1.772-3.896-1.772-.725 0-1.4.125-1.999.374C1.3 46.932 0 48.853 0 50.925v7.214c0 1.073 1.724 1.223 1.724 0v-7.214c0-.474.075-.924.25-1.323.174-.424.424-.799.774-1.123l.025-.025c.35-.325.724-.574 1.149-.724a3.34 3.34 0 011.299-.25c.45 0 .874.075 1.299.25.4.175.774.4 1.149.724l.05.05c.324.35.574.749.724 1.148.175.4.25.849.25 1.298v7.214c0 1.098 1.723 1.198 1.723 0V50.95c0-.474.075-.924.25-1.323a3.13 3.13 0 01.775-1.123l.025-.025c.35-.325.724-.574 1.149-.724.424-.175.849-.25 1.299-.25.45 0 .874.075 1.299.25.4.15.749.4 1.099.699.025.025.05.025.075.05.324.35.6.724.774 1.123.175.4.25.849.25 1.323v7.214c-.05 1.198 1.673 1.073 1.673 0z" fill="#FF1654"/></svg>