<svg width="44" height="41" fill="none" xmlns="http://www.w3.org/2000/svg"><path d="M22.605.508l2.483 6.245c2.01 5.057 6.307 9.043 11.758 10.907l6.733 2.303c.253.087.421.31.421.561 0 .25-.168.474-.421.561l-6.733 2.304c-5.451 1.864-9.748 5.85-11.758 10.906l-2.483 6.246a.644.644 0 01-.604.39.644.644 0 01-.605-.39l-2.484-6.246c-2.01-5.056-6.306-9.042-11.757-10.906L.42 21.085a.601.601 0 01-.421-.56.6.6 0 01.421-.561l6.734-2.304c5.45-1.865 9.747-5.85 11.757-10.906L21.396.508a.644.644 0 01.605-.391c.27 0 .51.156.604.39z" fill="url(#paint0_linear)" fill-opacity=".8"/><defs><linearGradient id="paint0_linear" x1="44" y1="20.524" x2="0" y2="20.524" gradientUnits="userSpaceOnUse"><stop/><stop offset="0" stop-color="#3685D7"/><stop offset="1" stop-color="#EDF6FF"/></linearGradient></defs></svg>