<svg width="41" height="42" fill="none" xmlns="http://www.w3.org/2000/svg"><mask id="a" fill="#fff"><path d="M19.936.402L17.622 6.83c-1.873 5.203-5.876 9.305-10.955 11.223l-6.274 2.37A.615.615 0 000 21c0 .258.157.488.393.577l6.273 2.37c5.08 1.92 9.083 6.02 10.956 11.224l2.314 6.427A.601.601 0 0020.5 42c.25 0 .476-.16.563-.402l2.314-6.428c1.873-5.202 5.877-9.304 10.956-11.223l6.275-2.37A.615.615 0 0041 21a.615.615 0 00-.392-.577l-6.275-2.37c-5.08-1.92-9.083-6.02-10.956-11.223L21.063.402A.601.601 0 0020.5 0a.601.601 0 00-.564.402z"/></mask><path d="M19.936.402L16.173-.953 19.936.403zM17.622 6.83L13.86 5.474l3.763 1.355zM6.667 18.052L5.253 14.31l1.414 3.742zM.393 20.423l1.413 3.742-1.413-3.742zm0 1.154l1.413-3.742-1.413 3.742zm6.273 2.37L5.253 27.69l1.413-3.741zm10.956 11.224l3.764-1.355-3.764 1.355zm2.314 6.427l-3.763 1.355 3.763-1.355zm1.127 0l-3.764-1.355 3.764 1.355zm2.314-6.428l3.764 1.355-3.764-1.355zm10.956-11.223l1.414 3.742-1.414-3.741zm6.275-2.37l1.413 3.742-1.413-3.742zm0-1.154l1.413-3.742-1.413 3.742zm-6.275-2.37l1.414-3.742-1.414 3.741zM23.377 6.83l3.764-1.355-3.764 1.355zM21.063.402l-3.764 1.355L21.063.402zM20.5 0v-4 4zm-4.327-.952l-2.314 6.426 7.527 2.71L23.7 1.757l-7.527-2.71zm-2.314 6.426c-1.485 4.126-4.645 7.34-8.606 8.836l2.827 7.484c6.197-2.34 11.045-7.33 13.306-13.61l-7.527-2.71zm-8.606 8.837l-6.274 2.37 2.827 7.484 6.274-2.37-2.827-7.484zm-6.274 2.37A4.615 4.615 0 00-4 21h8a3.385 3.385 0 01-2.194 3.165L-1.02 16.68zM-4 21a4.614 4.614 0 002.979 4.319l2.827-7.484A3.385 3.385 0 014 21h-8zm2.979 4.319l6.274 2.37 2.827-7.483-6.274-2.37-2.827 7.483zm6.274 2.37c3.961 1.497 7.12 4.711 8.606 8.837l7.527-2.71c-2.261-6.28-7.109-11.27-13.306-13.61l-2.827 7.483zm8.606 8.837l2.314 6.427 7.527-2.71-2.314-6.427-7.527 2.71zm2.314 6.427A4.601 4.601 0 0020.5 46v-8a3.4 3.4 0 013.2 2.243l-7.527 2.71zM20.5 46a4.601 4.601 0 004.326-3.047l-7.527-2.71A3.399 3.399 0 0120.5 38v8zm4.326-3.047l2.315-6.428-7.527-2.71-2.315 6.428 7.527 2.71zm2.315-6.428c1.485-4.125 4.644-7.34 8.606-8.836l-2.828-7.483c-6.196 2.34-11.044 7.329-13.305 13.61l7.527 2.71zm8.606-8.836l6.274-2.37-2.827-7.484-6.275 2.37 2.828 7.484zm6.274-2.37A4.615 4.615 0 0045 21h-8c0-1.357.828-2.649 2.194-3.165l2.827 7.484zM45 21a4.615 4.615 0 00-2.979-4.319l-2.827 7.484A3.385 3.385 0 0137 21h8zm-2.979-4.319l-6.274-2.37-2.828 7.483 6.275 2.37 2.827-7.483zm-6.274-2.37c-3.962-1.497-7.122-4.711-8.606-8.836l-7.527 2.71c2.26 6.28 7.109 11.268 13.305 13.61l2.828-7.484zM27.14 5.474L24.826-.953 17.3 1.757l2.315 6.428 7.527-2.71zM24.826-.953A4.601 4.601 0 0020.5-4v8a3.399 3.399 0 01-3.2-2.243l7.526-2.71zM20.5-4a4.601 4.601 0 00-4.327 3.047l7.527 2.71A3.399 3.399 0 0120.5 4v-8z" fill="#C8E3FF" mask="url(#a)"/></svg>