<svg width="53" height="35" fill="none" xmlns="http://www.w3.org/2000/svg"><path d="M45.343 15.934c.08-.46.131-.932.131-1.415 0-4.509-3.667-8.164-8.19-8.164-.985 0-1.928.183-2.806.502C31.81 2.736 27.176 0 21.89 0 13.62 0 6.913 6.685 6.913 14.932c0 .387.029.767.059 1.147C2.968 17.081 0 20.682 0 24.982c0 5.074 4.127 9.189 9.217 9.189h34.566c5.09 0 9.217-4.115 9.217-9.19 0-4.542-3.311-8.306-7.657-9.047z" fill="url(#paint0_linear)" fill-opacity=".5"/><defs><linearGradient id="paint0_linear" x1="26.5" y1="0" x2="26.5" y2="34.171" gradientUnits="userSpaceOnUse"><stop stop-color="#3686D7"/><stop offset=".365" stop-color="#73ADE8"/><stop offset="1" stop-color="#C8E3FF"/><stop offset="1" stop-opacity="0"/></linearGradient></defs></svg>