<svg width="25" height="32" fill="none" xmlns="http://www.w3.org/2000/svg"><path d="M12.844.34l1.41 4.794c1.143 3.88 3.584 6.94 6.68 8.37l3.827 1.768c.143.066.239.238.239.43s-.096.364-.24.43L20.936 17.9c-3.097 1.431-5.538 4.49-6.68 8.37l-1.411 4.794c-.053.18-.19.3-.344.3-.153 0-.29-.12-.343-.3l-1.411-4.794c-1.143-3.88-3.584-6.939-6.68-8.37L.238 16.132c-.143-.066-.239-.238-.239-.43s.096-.364.24-.43l3.825-1.768c3.097-1.431 5.539-4.49 6.68-8.37L12.158.34c.053-.18.19-.3.343-.3.154 0 .29.12.344.3z" fill="url(#paint0_linear)" fill-opacity=".8"/><defs><linearGradient id="paint0_linear" x1="25" y1="15.702" x2="0" y2="15.702" gradientUnits="userSpaceOnUse"><stop/><stop offset="0" stop-color="#3685D7"/><stop offset="1" stop-color="#EDF6FF"/></linearGradient></defs></svg>