<svg width="1920" height="4377" fill="none" xmlns="http://www.w3.org/2000/svg"><path d="M1648.52 3583.84c108.6-6.69 278.91 0 278.91 0v750.36s-89.01 4.05-145.67 0c-114.76-8.2-169.91-52.51-284.38-62.99-133.41-12.23-208.82 21.84-343.04 18.73-167.62-3.87-260.161-24.99-424.578-51.43-128.221-20.61-194.924-59.52-325.641-62.59-161.71-3.81-403.696 74.55-403.696 74.55v-678.59s295.393-29.45 485.231-25.52c170.033 3.52 263.897 23.02 433.028 37.48 171.416 14.66 266.846 44.36 438.996 37.08 114.84-4.86 176.17-30.02 290.84-37.08z" fill="url(#paint0_linear)"/><path d="M1621.08 3701.01c117.34-6.02 301.35 0 301.35 0v674.37s-96.17 3.64-157.39 0c-123.99-7.36-183.57-47.19-307.25-56.61-144.14-10.99-225.62 19.63-370.64 16.84-181.097-3.49-281.082-22.47-458.723-46.23-138.535-18.52-210.603-53.49-351.834-56.25-85.058-1.67-190.671 14.17-276.668 30.86v-584.98c109.167-6.71 253.686-13.6 364.761-11.69 183.71 3.16 285.123 20.69 467.859 33.69 185.205 13.17 288.315 39.87 474.305 33.32 124.08-4.37 190.34-26.97 314.23-33.32z" fill="url(#paint1_linear)"/><path d="M1139.61 2843.67c-234.33 41.93-434.83 15.87-650.522-18.61-175.371-28.02-407.562-41.37-488.242-45.37l-.449-235.56L-.075 2068l1.153-11.25c37.84 10.74 140.073 39.17 213.529 53.97 210.752 42.49 340.434 43.28 560.461 48.65 197.652 4.83 305.972-23.22 503.592-15.9 207.86 7.71 319.21 49.47 527.05 57.78 48.09 1.92 71.52 6.33 114.72 11.25V2453l1.38 363.22c-196.91 15.82-317.9-79.82-510.27-55.38-121.93 15.48-154.01 61.74-271.93 82.83z" fill="url(#paint2_linear)" fill-opacity=".5"/><path d="M.425 2813.57V1983c34.757 10.58 128.642 38.47 195.892 52.06 192.947 38.98 310.737 33.83 510.737 29.73 179.662-3.68 276.99-40.98 456.716-41.79 189.04-.85 291.69 41.94 480.73 41.79 101.42-.08 189.88 19.58 271.44 13.14 1.83-.15 2.66-.31 4.49-.48V2725c-46.96 17.39-101.4 33.92-147.81 41.05-178.22 27.37-291.63-76.88-465.41-39.82-110.15 23.49-137.58 78.14-243.88 107.89-211.236 59.12-394.268 38.53-591.404 8.99-197.136-29.54-471.5-29.54-471.5-29.54z" fill="url(#paint3_linear)"/><path d="M1360.76 1277.2c276.29-25.53 331.14-21.05 520.18 23.85 12.61 2.99 25.92 6.6 39.49 10.58V482.672c-103.72 2.367-254.26-6.123-450.59-47.293-411.1-86.207-910.198-18.351-1098.866 29.125C207.758 505.575 84.716 507.719.426 498.607V1383c40.812-9.69 84.412-19.4 121.554-26.2 115.662-21.21 181.913-38.44 303.015-38.96 94.354-.41 144.691 17.58 238.773 21.83 274.504 12.4 420.692-36.93 696.992-62.47z" fill="url(#paint4_linear)"/><path d="M1739.34 1270.44c75.71 19.17 181.09 65.64 181.09 65.64V502.704s-181.09 52.388-535-26.728c-353.92-79.117-783.582-16.842-946.005 26.728-296.5 79.538-439 0-439 0V1378s134.444-38.77 224.645-56.4c99.572-19.46 156.606-35.27 260.861-35.75 81.229-.37 124.563 16.13 205.557 20.03 236.318 11.39 362.172-33.89 600.032-57.32 237.86-23.44 285.07-19.33 447.82 21.88z" fill="url(#paint5_linear)"/><path fill="#fff" d="M.425 0h1920v622H.425z"/><defs><linearGradient id="paint0_linear" x1="994.252" y1="4311.08" x2="1005.44" y2="3504.01" gradientUnits="userSpaceOnUse"><stop stop-color="#C8E3FF"/><stop offset="1" stop-color="#C4C4C4" stop-opacity="0"/><stop offset="1" stop-color="#E4E4E4" stop-opacity=".91"/></linearGradient><linearGradient id="paint1_linear" x1="914.192" y1="4354.6" x2="922.56" y2="3629.22" gradientUnits="userSpaceOnUse"><stop stop-color="#C8E3FF" stop-opacity=".51"/><stop offset="1" stop-color="#C4C4C4" stop-opacity="0"/><stop offset="1" stop-color="#E4E4E4" stop-opacity=".91"/></linearGradient><linearGradient id="paint2_linear" x1="1154.13" y1="2103.6" x2="1122.75" y2="2875.95" gradientUnits="userSpaceOnUse"><stop stop-color="#C4C4C4"/><stop offset="1" stop-color="#C8E3FF"/></linearGradient><linearGradient id="paint3_linear" x1="1049.22" y1="1983" x2="1049.65" y2="2759.94" gradientUnits="userSpaceOnUse"><stop stop-color="#DBEDFF"/><stop offset="1" stop-color="#EDF6FF"/><stop offset="1" stop-color="#fff"/></linearGradient><linearGradient id="paint4_linear" x1="1057.1" y1="156.262" x2="1008.6" y2="1419.5" gradientUnits="userSpaceOnUse"><stop stop-color="#E5E5E5" stop-opacity=".11"/><stop offset="1" stop-color="#E5EEF8"/></linearGradient><linearGradient id="paint5_linear" x1="970.426" y1="562.74" x2="964.577" y2="1378.03" gradientUnits="userSpaceOnUse"><stop offset=".104" stop-color="#fff"/><stop offset="1" stop-color="#C8E3FF"/></linearGradient></defs></svg>