<svg width="77" height="76" fill="none" xmlns="http://www.w3.org/2000/svg"><g clip-path="url(#clip0)" fill="#C8E3FF"><path d="M30.781 53.733l-2.363-1.292a3.441 3.441 0 00-4.667 1.368l-1.784 3.264a3.441 3.441 0 001.369 4.666l2.363 1.292a3.441 3.441 0 004.667-1.368l1.784-3.264a3.438 3.438 0 00-1.369-4.666zm-2.857-34.375l4.064 2.927a3.44 3.44 0 004.246-.181c1.527-1.3 3.111-2.12 4.75-2.453 2.32-.469 4.664-.063 7.028 1.23 2.45 1.338 4.048 3.048 4.796 5.122.745 2.079.623 4.01-.364 5.816-.71 1.298-1.765 2.262-3.168 2.893-.902.395-3.312.946-7.224 1.662-3.917.713-6.805 1.708-8.672 2.973-1.91 1.295-3.323 3.115-4.497 5.073a3.439 3.439 0 001.3 4.792l2.464 1.347a3.446 3.446 0 004.516-1.117c.713-1.067 1.364-1.815 1.962-2.24 1.014-.732 2.95-1.371 5.802-1.929 5.515-1.068 9.347-2.2 11.51-3.395 2.154-1.193 3.795-2.81 4.914-4.858 2.02-3.696 2.219-7.8.589-12.31-1.626-4.506-5.109-8.219-10.44-11.132-5.069-2.77-9.908-3.632-14.529-2.586-3.936.893-7.068 2.786-9.387 5.68a1.853 1.853 0 00.34 2.686z"/></g><defs><clipPath id="clip0"><path fill="#fff" transform="rotate(28.659 13.028 53.357)" d="M0 0h55.769v55.769H0z"/></clipPath></defs></svg>