<svg width="92" height="92" fill="none" xmlns="http://www.w3.org/2000/svg"><g clip-path="url(#clip0)" fill="#C8E3FF"><path d="M53.95 67.238l-3.393 1.031a4.531 4.531 0 00-3.014 5.65l1.425 4.684a4.531 4.531 0 005.648 3.015l3.393-1.032a4.53 4.53 0 003.014-5.65l-1.425-4.684a4.526 4.526 0 00-5.648-3.014zM18.995 38.245l6.496-1.124a4.53 4.53 0 003.743-4.159c.185-2.635.874-4.88 2.072-6.726 1.697-2.614 4.24-4.444 7.633-5.476 3.515-1.07 6.597-.998 9.236.211 2.642 1.216 4.346 3.11 5.134 5.703.566 1.862.5 3.744-.2 5.644-.46 1.213-2.163 3.986-5.095 8.325-2.939 4.34-4.665 7.972-5.196 10.894-.542 2.989-.133 5.995.626 8.903a4.527 4.527 0 005.703 3.195l3.538-1.076a4.537 4.537 0 003.111-5.276c-.345-1.654-.449-2.955-.297-3.908.246-1.629 1.43-4.04 3.533-7.234 4.079-6.17 6.546-10.816 7.414-13.951.864-3.126.856-6.16-.038-9.098-1.614-5.306-5.29-9.275-11.032-11.898-5.736-2.625-12.437-2.772-20.089-.444-7.277 2.213-12.546 5.969-15.821 11.279-2.789 4.523-3.894 9.213-3.311 14.06a2.44 2.44 0 002.84 2.156z"/></g><defs><clipPath id="clip0"><path fill="#fff" transform="rotate(-16.917 72.029 9.393)" d="M0 0h73.426v73.426H0z"/></clipPath></defs></svg>