<svg width="46" height="45" fill="none" xmlns="http://www.w3.org/2000/svg"><g clip-path="url(#clip0)" fill="#C8E3FF"><path d="M27.339 31.891l-1.509.673a2.104 2.104 0 00-1.072 2.774l.923 2.07a2.104 2.104 0 002.78 1.057l1.509-.673a2.104 2.104 0 001.072-2.774l-.923-2.07a2.102 2.102 0 00-2.78-1.057zM9.552 20.602l2.937-.896a2.112 2.112 0 001.494-2.131c-.064-1.223.127-2.295.576-3.214.636-1.301 1.707-2.291 3.216-2.964 1.563-.697 2.99-.844 4.278-.442 1.289.404 2.183 1.176 2.694 2.322.367.823.443 1.692.227 2.607-.143.584-.773 1.96-1.882 4.125-1.112 2.168-1.704 3.939-1.784 5.313-.08 1.406.279 2.765.793 4.058a2.102 2.102 0 002.816 1.135l1.573-.701a2.109 2.109 0 001.139-2.608c-.254-.74-.375-1.332-.36-1.78.022-.763.433-1.94 1.224-3.532 1.534-3.075 2.41-5.356 2.634-6.848.222-1.488.047-2.882-.532-4.181-1.046-2.346-2.968-3.956-5.77-4.827-2.797-.872-5.9-.548-9.304.97-3.236 1.442-5.457 3.477-6.67 6.11-1.031 2.243-1.276 4.464-.733 6.658a1.13 1.13 0 001.434.826z"/></g><defs><clipPath id="clip0"><path fill="#fff" transform="rotate(-24.03 32.72 6.964)" d="M0 0h34.203v34H0z"/></clipPath></defs></svg>