<svg width="76" height="50" fill="none" xmlns="http://www.w3.org/2000/svg"><path d="M68.021 22.912c.404-2.157.177-4.266-.631-6.351-1.843-4.698-6.438-8.029-11.69-8.484-3.712-.336-7.348.694-10.15 2.804C42.847 4.434 36.03 0 28.354 0h-.152C18.735.072 10.53 7.214 9.973 15.938a15.645 15.645 0 00.783 6.015C4.494 23.367 0 28.496 0 34.607c0 7.046 4.797 14.571 18.23 14.571h43.504C70.268 49.178 76 41.653 76 34.631c0-5.009-3.156-9.562-7.979-11.72zm-6.287 23.222h-43.53c-13.583 0-15.048-8.076-15.048-11.551 0-5.177 4.242-9.467 9.898-9.97l2.222-.192-.91-1.917c-.959-2.037-1.388-4.17-1.237-6.399.455-7.166 7.247-13.061 15.1-13.109h.126c7.12 0 13.381 4.601 14.871 10.952l.707 2.948 2.045-2.3c2.273-2.565 5.783-3.883 9.393-3.572 4.065.36 7.6 2.924 9.014 6.543.732 1.87.808 3.81.227 5.776l-.404 1.366 1.414.48c4.292 1.437 7.196 5.224 7.196 9.394 0 5.464-4.544 11.551-11.084 11.551z" fill="url(#paint0_linear)" fill-opacity=".5"/><defs><linearGradient id="paint0_linear" x1="38" y1="0" x2="38" y2="49.178" gradientUnits="userSpaceOnUse"><stop stop-color="#C8E3FF"/><stop offset=".479" stop-color="#75AEE8"/></linearGradient></defs></svg>