<svg width="14" height="10" viewBox="0 0 14 13" fill="none" xmlns="http://www.w3.org/2000/svg"><circle cx="7.491" cy="6.5" r="6.5" fill="#75AEE8"/><path d="M6.737 7.448c0-.396.088-.722.264-.979.184-.264.448-.55.792-.858.264-.235.459-.436.583-.605a.965.965 0 00.198-.594.898.898 0 00-.374-.748c-.249-.19-.583-.286-1-.286-.793 0-1.39.282-1.794.847L4.34 3.532a3.047 3.047 0 011.221-.99c.5-.235 1.086-.352 1.76-.352.822 0 1.474.18 1.958.539.492.352.737.84.737 1.463 0 .3-.05.565-.154.792a2.164 2.164 0 01-.352.583 7.86 7.86 0 01-.55.539 4.51 4.51 0 00-.627.66c-.132.19-.198.418-.198.682H6.737zm.704 2.629a.886.886 0 01-.638-.242.858.858 0 01-.242-.616.82.82 0 01.242-.605.886.886 0 01.638-.242c.25 0 .455.08.616.242a.803.803 0 01.253.605.838.838 0 01-.253.616.834.834 0 01-.616.242z" fill="#fff"/></svg>