<svg width="44" height="26" fill="none" xmlns="http://www.w3.org/2000/svg"><path d="M37.643 12.124c.067-.35.109-.71.109-1.076 0-3.432-3.045-6.212-6.799-6.212-.818 0-1.601.139-2.33.381C26.41 2.082 22.561 0 18.173 0 11.307 0 5.74 5.086 5.74 11.361c0 .295.024.584.049.873C2.464 12.996 0 15.736 0 19.008 0 22.87 3.426 26 7.652 26h28.696C40.574 26 44 22.87 44 19.008c0-3.456-2.749-6.32-6.357-6.884z" fill="url(#paint0_linear)" fill-opacity=".5"/><defs><linearGradient id="paint0_linear" x1="22" y1="0" x2="22" y2="26" gradientUnits="userSpaceOnUse"><stop stop-color="#3686D7"/><stop offset=".365" stop-color="#73ADE8"/><stop offset="1" stop-color="#C8E3FF"/><stop offset="1" stop-opacity="0"/></linearGradient></defs></svg>