<svg width="137" height="81" fill="none" xmlns="http://www.w3.org/2000/svg"><path d="M122.617 37.634c.728-3.49.319-6.9-1.138-10.274-3.323-7.599-11.606-12.987-21.073-13.724-6.691-.543-13.245 1.124-18.297 4.536C77.239 7.742 64.949.571 51.113.571h-.273C33.772.687 18.98 12.24 17.978 26.352c-.228 3.334.228 6.59 1.411 9.731C8.102 38.371 0 46.667 0 56.553c0 11.398 8.648 23.572 32.861 23.572h78.422c15.384 0 25.716-12.174 25.717-23.533 0-8.103-5.69-15.469-14.383-18.958zm-11.334 37.567H32.816C8.33 75.2 5.69 62.136 5.69 56.514c0-8.374 7.647-15.314 17.842-16.128l4.005-.31-1.638-3.101c-1.73-3.296-2.504-6.746-2.23-10.352.819-11.591 13.062-21.129 27.217-21.206h.228c12.835 0 24.123 7.444 26.808 17.717l1.275 4.769 3.686-3.722c4.097-4.149 10.423-6.28 16.932-5.777 7.327.582 13.7 4.73 16.249 10.584 1.319 3.024 1.456 6.165.409 9.344l-.728 2.21 2.549.775c7.737 2.326 12.971 8.451 12.971 15.197 0 8.84-8.192 18.687-19.981 18.687z" fill="url(#paint0_linear)" fill-opacity=".5"/><defs><linearGradient id="paint0_linear" x1="68.5" y1=".571" x2="68.5" y2="80.125" gradientUnits="userSpaceOnUse"><stop stop-color="#C8E3FF"/><stop offset=".479" stop-color="#75AEE8"/></linearGradient></defs></svg>