<svg width="51" height="38" fill="none" xmlns="http://www.w3.org/2000/svg"><g filter="url(#filter0_d)"><path d="M45.646 14.71c.27-1.298.118-2.568-.424-3.824-1.237-2.829-4.32-4.835-7.845-5.11-2.49-.201-4.93.42-6.811 1.69C28.753 3.583 24.178.913 19.028.913h-.102c-6.354.043-11.86 4.344-12.233 9.598a8.525 8.525 0 00.525 3.622C3.016 14.985 0 18.073 0 21.753c0 4.244 3.22 8.775 12.233 8.775h29.194c5.727 0 9.573-4.531 9.573-8.76 0-3.016-2.118-5.759-5.354-7.058zm-4.22 13.985h-29.21c-9.115 0-10.098-4.864-10.098-6.956 0-3.118 2.847-5.7 6.642-6.004l1.49-.115-.61-1.155c-.643-1.227-.931-2.511-.83-3.853.306-4.315 4.863-7.866 10.133-7.895h.084c4.778 0 8.98 2.771 9.98 6.596l.475 1.775 1.372-1.386c1.525-1.544 3.88-2.338 6.303-2.15 2.728.217 5.1 1.76 6.049 3.94.491 1.126.542 2.295.152 3.478l-.27.823.948.288c2.88.866 4.829 3.147 4.829 5.658 0 3.29-3.05 6.956-7.438 6.956z" fill="url(#paint0_linear)" fill-opacity=".5"/></g><defs><linearGradient id="paint0_linear" x1="25.5" y1=".913" x2="25.5" y2="30.528" gradientUnits="userSpaceOnUse"><stop stop-color="#C8E3FF"/><stop offset=".479" stop-color="#75AEE8"/></linearGradient><filter id="filter0_d" x="-4" y=".913" width="59" height="37.615" filterUnits="userSpaceOnUse" color-interpolation-filters="sRGB"><feFlood flood-opacity="0" result="BackgroundImageFix"/><feColorMatrix in="SourceAlpha" values="0 0 0 0 0 0 0 0 0 0 0 0 0 0 0 0 0 0 127 0"/><feOffset dy="4"/><feGaussianBlur stdDeviation="2"/><feColorMatrix values="0 0 0 0 0 0 0 0 0 0 0 0 0 0 0 0 0 0 0.25 0"/><feBlend in2="BackgroundImageFix" result="effect1_dropShadow"/><feBlend in="SourceGraphic" in2="effect1_dropShadow" result="shape"/></filter></defs></svg>