<svg width="73" height="50" fill="none" xmlns="http://www.w3.org/2000/svg"><path d="M62.453 23.316c.111-.674.181-1.365.181-2.07 0-6.599-5.051-11.947-11.28-11.947-1.357 0-2.657.267-3.866.735C43.816 4.004 37.432 0 30.152 0 18.758 0 9.522 9.782 9.522 21.849c0 .566.04 1.122.08 1.679C4.089 24.993 0 30.262 0 36.555 0 43.98 5.684 50 12.696 50h47.608C67.315 50 73 43.98 73 36.555c0-6.647-4.56-12.155-10.547-13.239z" fill="url(#paint0_linear)" fill-opacity=".5"/><defs><linearGradient id="paint0_linear" x1="36.5" y1="0" x2="36.5" y2="50" gradientUnits="userSpaceOnUse"><stop stop-color="#3686D7"/><stop offset=".365" stop-color="#73ADE8"/><stop offset="1" stop-color="#C8E3FF"/><stop offset="1" stop-opacity="0"/></linearGradient></defs></svg>