<svg width="95" height="94" fill="none" xmlns="http://www.w3.org/2000/svg"><path d="M85.026 44.814c.505-2.81.221-5.559-.789-8.276-2.304-6.12-8.048-10.461-14.613-11.055-4.64-.437-9.184.906-12.687 3.654-3.377-8.4-11.899-14.178-21.494-14.178h-.189c-11.835.094-22.093 9.4-22.787 20.768-.158 2.685.158 5.308.978 7.838C5.618 45.407 0 52.09 0 60.054 0 69.235 5.997 79.04 22.787 79.04h54.38C87.835 79.041 95 69.235 95 60.085c0-6.527-3.945-12.46-9.974-15.27zm-7.859 30.26H22.756c-16.98 0-18.81-10.524-18.81-15.052 0-6.745 5.302-12.335 12.371-12.991l2.778-.25-1.137-2.498c-1.2-2.654-1.736-5.434-1.546-8.338.568-9.337 9.058-17.02 18.873-17.082h.158c8.9 0 16.728 5.996 18.59 14.271l.884 3.841 2.556-2.998c2.84-3.341 7.228-5.059 11.74-4.653 5.082.469 9.501 3.81 11.268 8.526.916 2.436 1.01 4.965.285 7.526l-.506 1.78 1.768.625c5.365 1.873 8.995 6.808 8.995 12.241 0 7.12-5.681 15.053-13.856 15.053z" fill="url(#paint0_linear)" fill-opacity=".5"/><defs><linearGradient id="paint0_linear" x1="47.5" y1="14.959" x2="47.5" y2="79.041" gradientUnits="userSpaceOnUse"><stop stop-color="#C8E3FF"/><stop offset=".479" stop-color="#75AEE8"/></linearGradient></defs></svg>