<svg width="70" height="70" fill="none" xmlns="http://www.w3.org/2000/svg"><circle cx="35" cy="35" r="35" fill="#3685D7"/><path d="M47.667 19H22.333A3.337 3.337 0 0019 22.333v25.334A3.337 3.337 0 0022.333 51h25.334A3.337 3.337 0 0051 47.667V22.333A3.337 3.337 0 0047.667 19zm2 28.667a2 2 0 01-2 2H22.333a2 2 0 01-2-2V22.333a2 2 0 012-2h25.334a2 2 0 012 2v25.334z" fill="#fff"/><path d="M48.333 24.333H21.667v1.334h26.666v-1.334zm-24.666-2.666h-1.334V23h1.334v-1.333zm2.666 0H25V23h1.333v-1.333zm21.334 0h-1.334V23h1.334v-1.333zM45 28.333H25c-.736 0-1.333.597-1.333 1.334v2.666c0 .737.597 1.334 1.333 1.334h20c.736 0 1.333-.597 1.333-1.334v-2.666c0-.737-.597-1.334-1.333-1.334zm0 4H25v-2.666h20v2.666zm0 3.334H25c-.736 0-1.333.597-1.333 1.333v2.667c0 .736.597 1.333 1.333 1.333h20c.736 0 1.333-.597 1.333-1.333V37c0-.736-.597-1.333-1.333-1.333zm0 4H25V37h20v2.667zM29.667 43h-5.334a.667.667 0 00-.666.667v2c0 .736.597 1.333 1.333 1.333h4c.736 0 1.333-.597 1.333-1.333v-2a.667.667 0 00-.666-.667zM29 45.667h-4v-1.334h4v1.334zM37.667 43h-5.334a.667.667 0 00-.666.667v2c0 .736.597 1.333 1.333 1.333h4c.736 0 1.333-.597 1.333-1.333v-2a.667.667 0 00-.666-.667zM37 45.667h-4v-1.334h4v1.334zM46.333 43H45v1.333h1.333V43zm-2.666 0h-1.334v1.333h1.334V43zm2.666 2.667h-6V47h6v-1.333z" fill="#fff"/></svg>