<svg width="71" height="67" fill="none" xmlns="http://www.w3.org/2000/svg"><ellipse cx="35.986" cy="33.298" rx="34.999" ry="33.248" fill="#FF9700"/><g clip-path="url(#clip0)" fill="#fff"><path d="M52.959 18.613a2.72 2.72 0 00-2.572-2.572c-2.805-.153-8.295-.004-13.544 2.711-2.676 1.384-5.506 3.731-7.765 6.439l-.082.1-5.126.396a2.706 2.706 0 00-2.062 1.213l-3.496 5.29a1.866 1.866 0 00-.15 1.791c.259.587.792.996 1.426 1.094l4.319.669-.045.252c-.144.86.141 1.744.762 2.365l6.015 6.015a2.726 2.726 0 002.366.762l.251-.044.67 4.318a1.867 1.867 0 001.093 1.427 1.873 1.873 0 001.792-.15l5.289-3.497a2.705 2.705 0 001.213-2.062l.396-5.126.1-.082c2.708-2.259 5.055-5.089 6.439-7.765 2.715-5.25 2.864-10.739 2.71-13.544zm-11.99 26.868l-5.06 3.345-.651-4.209c2.138-.628 4.253-1.635 6.268-2.984l-.258 3.339a.668.668 0 01-.299.509zm-8.88-2.555l-6.015-6.015a.665.665 0 01-.19-.577c.18-1.07.457-2.088.801-3.047l9.026 9.026a17.721 17.721 0 01-3.045.802.665.665 0 01-.577-.19zm-8.06-15.194l3.338-.258c-1.349 2.015-2.356 4.13-2.984 6.268l-4.209-.651 3.345-5.06a.668.668 0 01.51-.3zm18.467 10.615c-1.657 1.382-3.265 2.381-4.747 3.104l-10.2-10.2c.947-1.935 2.103-3.547 3.104-4.747 2.09-2.505 4.69-4.667 7.132-5.93 4.818-2.492 9.894-2.626 12.49-2.485a.673.673 0 01.636.636c.142 2.597.007 7.672-2.485 12.49-1.263 2.442-3.424 5.042-5.93 7.132z"/><path d="M41.975 32.15c1.313 0 2.626-.5 3.625-1.5a5.093 5.093 0 001.502-3.625c0-1.37-.533-2.657-1.502-3.625a5.132 5.132 0 00-7.25 0 5.093 5.093 0 00-1.502 3.625c0 1.37.534 2.657 1.502 3.625 1 1 2.312 1.5 3.625 1.5zm-2.175-7.3c.6-.6 1.387-.9 2.175-.9.788 0 1.575.3 2.175.9.581.58.901 1.353.901 2.175 0 .822-.32 1.594-.9 2.175a3.08 3.08 0 01-4.351 0 3.056 3.056 0 01-.901-2.175c0-.822.32-1.594.9-2.175zM19.046 44.843c.262 0 .525-.1.725-.3l3.348-3.348a1.025 1.025 0 00-1.45-1.45l-3.348 3.348a1.025 1.025 0 00.725 1.75zm7.141-2.03c-.4-.4-1.05-.4-1.45 0L18.3 49.25a1.025 1.025 0 101.45 1.45l6.437-6.437c.4-.4.4-1.05 0-1.45zm1.618 3.068l-3.348 3.348a1.025 1.025 0 001.45 1.45l3.348-3.348a1.025 1.025 0 00-1.45-1.45z"/></g><defs><clipPath id="clip0"><path fill="#fff" transform="translate(18 16)" d="M0 0h35v35H0z"/></clipPath></defs></svg>