<svg width="80" height="80" fill="none" xmlns="http://www.w3.org/2000/svg"><circle cx="40" cy="40" r="40" fill="#3685D7"/><g clip-path="url(#clip0)" fill="#fff"><path d="M59.827 21.206a1.172 1.172 0 00-1.035-1.036c-9.274-1.03-17.18 2.68-23.628 9.318-1.845 1.9-3.446 3.91-4.812 5.851-2.312-.094-4.876.952-6.694 2.77l-3.315 3.315a1.172 1.172 0 001.133 1.96 16.323 16.323 0 013.219-.502c.439-.02.803-.014 1.106.009-.731 1.407-1.292 2.585-1.477 2.88a1.172 1.172 0 00.163 1.453l1.918 1.919c-2.792 3.807-2.838 5.756-2.828 6.032.02.586.477 1.134 1.232 1.134.655 0 2.531-.278 5.947-2.815l2.018 2.017c.39.39.998.456 1.462.158.316-.203 1.425-.74 2.755-1.436.022.992-.112 2.448-.404 4.422-.166 1.119 1.194 1.793 1.988 1l3.314-3.315c1.71-1.71 2.7-4.248 2.628-6.63 2.044-1.428 4.17-3.113 6.157-5.06 6.574-6.448 10.17-14.293 9.153-23.444zm-2.242 1.206a23.4 23.4 0 01-.594 7.346c-1.444-.454-2.855-1.348-4.13-2.622-1.279-1.28-2.174-2.697-2.627-4.146a23.61 23.61 0 017.351-.578zM24.542 40.54l.773-.774a7.4 7.4 0 013.362-1.911 65.882 65.882 0 00-1.692 2.845c-.768-.17-1.621-.2-2.443-.16zm2.218 5.643c.253-.5.56-1.128 1.123-2.192l1.543 1.543a48.26 48.26 0 00-1.56 1.755l-1.106-1.106zm5.73-.448c.854-.854 1.673-1.01 2.69-1.032-.022.991-.18 1.838-1.032 2.689-3.638 3.638-6.132 5.263-7.624 5.988.736-1.52 2.365-4.044 5.967-7.645zm1.319 7.497L32.6 52.023a48.42 48.42 0 001.75-1.565l1.642 1.643c-1.08.576-1.53.793-2.183 1.13zm6.423 1.45l-.938.94c.076-1.138.05-1.966-.058-2.605a67.875 67.875 0 002.779-1.651c-.28 1.239-.908 2.442-1.783 3.317zm-2.106-3.763l-2.101-2.1c1.555-1.712 1.497-3.36 1.497-5.286 0-.648-.525-1.172-1.172-1.172-1.8 0-3.531-.097-5.286 1.497l-2.006-2.006c5.48-9.608 11.812-15.691 18.928-18.196.564 1.823 1.66 3.58 3.218 5.137 1.551 1.552 3.3 2.645 5.114 3.21-2.52 7.078-8.6 13.407-18.192 18.916z"/><path d="M49.547 30.45a5.867 5.867 0 00-8.287 0 5.867 5.867 0 000 8.287 5.866 5.866 0 008.287 0 5.867 5.867 0 000-8.287zm-1.658 6.63a3.52 3.52 0 01-4.972 0 3.52 3.52 0 010-4.972 3.52 3.52 0 014.972 0 3.52 3.52 0 010 4.972z"/></g><defs><clipPath id="clip0"><path fill="#fff" transform="translate(20 20)" d="M0 0h40v40H0z"/></clipPath></defs></svg>