<svg width="71" height="72" fill="none" xmlns="http://www.w3.org/2000/svg"><circle cx="35.875" cy="35.25" fill="#FF9700" r="35"/><path d="M51 23.813A2.816 2.816 0 0048.187 21H23.814A2.816 2.816 0 0021 23.813v5.625c0 .72.272 1.377.718 1.875A2.801 2.801 0 0021 33.188v5.624c0 .72.272 1.378.718 1.876A2.801 2.801 0 0021 42.562v5.626A2.816 2.816 0 0023.813 51h24.375A2.816 2.816 0 0051 48.187v-5.624c0-.72-.272-1.378-.718-1.876A2.801 2.801 0 0051 38.813v-5.626a2.8 2.8 0 00-.718-1.874A2.801 2.801 0 0051 29.438v-5.625zm-28.125 0c0-.517.42-.938.938-.938h24.375c.516 0 .937.42.937.938v5.625c0 .516-.42.937-.938.937H23.814a.939.939 0 01-.938-.938v-5.625zm26.25 9.375v5.624c0 .517-.42.938-.938.938H23.814a.939.939 0 01-.938-.938v-5.624c0-.517.42-.938.938-.938h24.375c.516 0 .937.42.937.938zm0 15c0 .516-.42.937-.938.937H23.814a.939.939 0 01-.938-.938v-5.624c0-.517.42-.938.938-.938h24.375c.516 0 .937.42.937.938v5.624z" fill="#fff"/><path d="M46.313 28.5c.517 0 .937-.42.937-.938v-1.875a.938.938 0 00-1.875 0v1.875c0 .518.42.938.938.938zm-3.75 0c.517 0 .937-.42.937-.938v-1.875a.938.938 0 00-1.875 0v1.875c0 .518.42.938.938.938zm-11.25-.937h7.5a.938.938 0 000-1.875h-7.5a.938.938 0 000 1.875zm-4.688 10.312A1.877 1.877 0 0028.5 36a1.877 1.877 0 00-1.875-1.875A1.877 1.877 0 0024.75 36c0 1.034.841 1.875 1.875 1.875zm0 5.625a1.877 1.877 0 00-1.875 1.875c0 1.034.841 1.875 1.875 1.875a1.877 1.877 0 001.875-1.875 1.877 1.877 0 00-1.875-1.875zm0-15a1.877 1.877 0 001.875-1.875 1.877 1.877 0 00-1.875-1.875 1.877 1.877 0 00-1.875 1.875c0 1.034.841 1.875 1.875 1.875zm19.688 9.375c.517 0 .937-.42.937-.938v-1.874a.938.938 0 00-1.875 0v1.874c0 .518.42.938.938.938zm-3.75 0c.517 0 .937-.42.937-.938v-1.874a.938.938 0 00-1.875 0v1.874c0 .518.42.938.938.938zm-11.25-.937h7.5a.938.938 0 000-1.876h-7.5a.938.938 0 000 1.876zm15 6.562a.938.938 0 00-.938.938v1.874a.938.938 0 001.875 0v-1.874a.938.938 0 00-.938-.938zm-3.75 0a.938.938 0 00-.938.938v1.874a.938.938 0 001.875 0v-1.874a.938.938 0 00-.938-.938zm-3.75.938h-7.5a.938.938 0 000 1.874h7.5a.938.938 0 000-1.874z" fill="#fff"/></svg>