<svg width="40" height="38" fill="none" xmlns="http://www.w3.org/2000/svg"><path d="M40 11.012V0H0v11.012h2.346v2.196H0V24.22h2.346v2.197H0v11.011h40v-11.01h-2.346V24.22H40V13.208h-2.346v-2.196H40zM2.344 2.193h35.312V8.82H2.344V2.193zm35.312 33.042H2.344V28.61h35.312v6.625zm-2.345-8.819H4.689V24.22h30.622v2.197zm2.345-4.389H2.344v-6.626h35.312v6.626zm-2.345-8.819H4.689v-2.196h30.622v2.196z" fill="#3685D7"/><path d="M25.154 4.409H35.31v2.193H25.153V4.41zm0 13.209H35.31v2.193H25.153v-2.193zm0 13.208H35.31v2.194H25.153v-2.194zM4.69 4.409h2.346v2.193H4.69V4.41zm4.692 0h2.345v2.193H9.382V4.41zM4.69 17.618h2.346v2.193H4.69v-2.193zm4.692 0h2.345v2.193H9.382v-2.193zM4.69 30.826h2.346v2.194H4.69v-2.194zm4.692 0h2.345v2.194H9.382v-2.194z" fill="#3685D7"/></svg>