<svg width="30" height="29" fill="none" xmlns="http://www.w3.org/2000/svg"><path d="M28.898 13.203c-7.04 0-12.796-5.467-12.796-12.156C16.102.465 15.612 0 15 0c-.612 0-1.102.465-1.102 1.047 0 6.689-5.755 12.156-12.796 12.156C.49 13.203 0 13.668 0 14.25c0 .582.49 1.047 1.102 1.047 7.04 0 12.796 5.467 12.796 12.156 0 .582.49 1.047 1.102 1.047.612 0 1.102-.465 1.102-1.047 0-6.689 5.755-12.156 12.796-12.156.612 0 1.102-.465 1.102-1.047 0-.582-.49-1.047-1.102-1.047zM15 22.102c-1.53-3.548-4.53-6.398-8.265-7.852 3.734-1.454 6.734-4.304 8.265-7.852 1.53 3.548 4.53 6.398 8.265 7.852-3.734 1.454-6.734 4.304-8.265 7.852z" fill="#C8E3FF"/></svg>