<svg width="42" height="46" fill="none" xmlns="http://www.w3.org/2000/svg"><path d="M20.895.432l-2.314 6.901c-1.873 5.588-5.876 9.992-10.955 12.052L1.352 21.93a.661.661 0 00-.393.62.66.66 0 00.393.62l6.274 2.545c5.079 2.06 9.082 6.465 10.955 12.052l2.314 6.901c.087.26.312.432.563.432a.606.606 0 00.564-.432l2.314-6.902c1.873-5.587 5.877-9.99 10.955-12.05l6.275-2.546a.66.66 0 00.392-.62.66.66 0 00-.392-.62l-6.275-2.545c-5.078-2.06-9.082-6.464-10.955-12.051L22.022.432A.606.606 0 0021.458 0a.606.606 0 00-.563.432z" fill="url(#paint0_linear)" fill-opacity=".8"/><defs><linearGradient id="paint0_linear" x1=".959" y1="22.55" x2="41.958" y2="22.55" gradientUnits="userSpaceOnUse"><stop/><stop offset="0" stop-color="#3685D7"/><stop offset="1" stop-color="#EDF6FF"/></linearGradient></defs></svg>