<svg width="32" height="34" fill="none" xmlns="http://www.w3.org/2000/svg"><path d="M16.072.326l-1.75 5.202c-1.416 4.213-4.443 7.533-8.284 9.086l-4.743 1.919A.498.498 0 00.998 17c0 .209.118.395.297.467l4.743 1.92c3.84 1.552 6.868 4.873 8.284 9.084l1.75 5.204a.458.458 0 00.425.325c.19 0 .36-.13.426-.325l1.75-5.204c1.417-4.212 4.444-7.532 8.284-9.085l4.744-1.919a.498.498 0 00.297-.467.498.498 0 00-.297-.467l-4.744-1.92c-3.84-1.552-6.868-4.872-8.284-9.084L16.923.325A.458.458 0 0016.497 0c-.19 0-.36.13-.425.326z" fill="url(#paint0_linear)" fill-opacity=".8"/><defs><linearGradient id="paint0_linear" x1=".998" y1="17" x2="31.998" y2="17" gradientUnits="userSpaceOnUse"><stop/><stop offset="0" stop-color="#3685D7"/><stop offset="1" stop-color="#EDF6FF"/></linearGradient></defs></svg>