<svg width="70" height="70" fill="none" xmlns="http://www.w3.org/2000/svg"><circle cx="35" cy="35" r="35" fill="#3685D7"/><g clip-path="url(#clip0)" fill="#fff"><path d="M50.962 21.389a2.487 2.487 0 00-2.351-2.351c-2.565-.14-7.584-.004-12.383 2.478-2.447 1.266-5.034 3.411-7.1 5.887l-.075.091-4.686.362a2.474 2.474 0 00-1.885 1.11L19.285 33.8a1.706 1.706 0 00-.138 1.639c.238.536.725.91 1.305 1l3.948.611c-.014.077-.028.154-.04.23a2.486 2.486 0 00.696 2.163l5.5 5.5a2.492 2.492 0 002.162.696l.23-.04.612 3.948a1.713 1.713 0 002.638 1.167l4.836-3.197a2.473 2.473 0 001.11-1.885l.361-4.686.092-.076c2.476-2.065 4.621-4.652 5.887-7.099 2.482-4.8 2.618-9.818 2.478-12.383zM40 45.954l-4.626 3.058-.596-3.848c1.956-.575 3.89-1.495 5.732-2.729l-.236 3.053a.61.61 0 01-.274.466zm-8.118-2.336l-5.5-5.5a.608.608 0 01-.173-.527 16.13 16.13 0 01.732-2.786l8.252 8.252a16.192 16.192 0 01-2.784.734.608.608 0 01-.527-.173zm-7.37-13.892l3.052-.236c-1.233 1.842-2.154 3.776-2.729 5.731l-3.847-.596L24.046 30a.61.61 0 01.466-.274zm16.884 9.705a21.492 21.492 0 01-4.34 2.838l-9.326-9.326a21.865 21.865 0 012.839-4.34c1.91-2.29 4.287-4.267 6.52-5.422 4.405-2.278 9.046-2.4 11.42-2.271a.615.615 0 01.581.581c.13 2.374.007 7.015-2.272 11.42-1.155 2.233-3.13 4.61-5.422 6.52z"/><path d="M40.92 33.765c1.2 0 2.4-.457 3.314-1.37a4.656 4.656 0 001.373-3.315 4.652 4.652 0 00-1.373-3.314 4.693 4.693 0 00-6.628 0 4.657 4.657 0 00-1.373 3.314c0 1.252.487 2.43 1.373 3.315a4.671 4.671 0 003.314 1.37zm-1.989-6.674a2.803 2.803 0 011.989-.822c.72 0 1.44.274 1.989.823.53.53.823 1.237.823 1.988 0 .751-.292 1.458-.823 1.989a2.816 2.816 0 01-3.978 0 2.794 2.794 0 01-.823-1.989c0-.751.292-1.457.823-1.988zM19.956 45.37c.24 0 .48-.09.663-.274l3.061-3.06a.937.937 0 10-1.326-1.326l-3.06 3.06a.937.937 0 00.662 1.6zm6.529-1.855a.937.937 0 00-1.326 0L19.275 49.4a.937.937 0 101.325 1.325l5.885-5.884a.937.937 0 000-1.326zm1.479 2.805l-3.06 3.06a.937.937 0 001.325 1.327l3.061-3.061a.937.937 0 00-1.326-1.326z"/></g><defs><clipPath id="clip0"><path fill="#fff" transform="translate(19 19)" d="M0 0h32v32H0z"/></clipPath></defs></svg>