<svg width="32" height="35" fill="none" xmlns="http://www.w3.org/2000/svg"><path d="M15.56.335l-1.806 5.356c-1.462 4.336-4.587 7.754-8.55 9.353L.305 17.019A.513.513 0 000 17.5a.51.51 0 00.306.48l4.897 1.976c3.964 1.6 7.09 5.017 8.551 9.353l1.806 5.356A.472.472 0 0016 35a.472.472 0 00.44-.335l1.806-5.356c1.462-4.336 4.586-7.754 8.55-9.353l4.898-1.975A.513.513 0 0032 17.5a.513.513 0 00-.306-.48l-4.898-1.976c-3.964-1.6-7.089-5.017-8.55-9.353L16.439.335A.472.472 0 0016 0a.473.473 0 00-.44.335z" fill="url(#paint0_linear)" fill-opacity=".8"/><defs><linearGradient id="paint0_linear" x1="0" y1="17.5" x2="32" y2="17.5" gradientUnits="userSpaceOnUse"><stop/><stop offset="0" stop-color="#3685D7"/><stop offset="1" stop-color="#EDF6FF"/></linearGradient></defs></svg>