<svg width="30" height="30" fill="none" xmlns="http://www.w3.org/2000/svg"><path d="M28.898 13.898c-7.04 0-12.796-5.755-12.796-12.796C16.102.49 15.612 0 15 0c-.612 0-1.102.49-1.102 1.102 0 7.04-5.755 12.796-12.796 12.796C.49 13.898 0 14.388 0 15c0 .612.49 1.102 1.102 1.102 7.04 0 12.796 5.755 12.796 12.796 0 .612.49 1.102 1.102 1.102.612 0 1.102-.49 1.102-1.102 0-7.04 5.755-12.796 12.796-12.796.612 0 1.102-.49 1.102-1.102 0-.612-.49-1.102-1.102-1.102zM15 23.265A15.195 15.195 0 006.735 15 15.195 15.195 0 0015 6.735 15.195 15.195 0 0023.265 15 15.195 15.195 0 0015 23.265z" fill="#C8E3FF"/></svg>