<svg width="201" height="22" fill="none" xmlns="http://www.w3.org/2000/svg"><g clip-path="url(#clip0)"><path d="M1.118 3.467h2.741L4.474.283h4.308l-.615 3.184h2.405l.616-3.184h4.307l-.615 3.184h2.181l-.111 3.467h-2.686l-.56 3.013h2.183l-.112 3.468h-2.797l-.616 3.184H8.111l.615-3.184H6.32l-.615 3.184H1.398l.615-3.184H-.113L0 9.947h2.74l.56-3.013H1.118V3.467zm5.818 6.48H9.34l.56-3.013H7.55l-.615 3.013z" fill="#ED2426"/><path d="M41.342.284l1.51 6.538L47.048.284h4.587L41.23 16.543h-4.587l3.188-5.06L36.698.284h4.644zm11.748 0h6.321c3.58 0 5.203 1.25 5.203 3.411a4.527 4.527 0 01-.745 2.625 4.415 4.415 0 01-2.108 1.695c.66.148 1.249.523 1.667 1.062a3 3 0 01.627 1.895c.009.247-.01.495-.056.739-.56 2.842-2.686 4.832-7.329 4.832h-6.657L53.09.284zm6.433 10.801c0-.796-.615-1.137-1.902-1.137H55.72l-.615 3.127h1.902c1.454 0 2.182-.398 2.461-1.592a.853.853 0 00.056-.398zm.671-6.31c0-.739-.559-.966-1.678-.966h-1.622l-.56 2.785h1.623c1.342 0 1.958-.398 2.182-1.42a.98.98 0 00.055-.399zM78.6.284l2.181 16.259h-4.755l-.28-2.672H70.32l-1.286 2.672h-4.756L72.782.284H78.6zm-6.49 9.892h3.301l-.56-5.742-2.74 5.742zm17.79 1.137h-1.567l-1.007 5.23h-4.475L85.984.284h6.042c3.524 0 5.818 1.365 5.818 4.207-.012.419-.05.836-.112 1.25-.727 3.81-3.804 5.572-7.832 5.572zm3.356-6.083c0-1.023-.727-1.421-2.013-1.421h-1.455l-.783 4.036h1.454c1.51 0 2.462-.569 2.742-2.047 0-.17.055-.398.055-.568zm27.133-1.25h-4.475l.727-3.696h13.482l-.727 3.695h-4.476l-2.461 12.62h-4.476l2.406-12.62zm15.664 7.333h-1.567l-1.007 5.23h-4.475L132.137.284h6.097c3.525 0 5.818 1.365 5.818 4.207-.012.419-.049.836-.111 1.25-.784 3.81-3.86 5.572-7.888 5.572zm3.356-6.083c0-1.023-.727-1.421-2.014-1.421h-1.454l-.783 4.036h1.454c1.511 0 2.462-.569 2.741-2.047.047-.185.065-.377.056-.568zm5.371 5.344c0-6.14 4.307-10.574 9.734-10.574 4.196 0 6.489 2.501 6.489 6.31 0 6.083-4.363 10.517-9.734 10.517-4.14 0-6.489-2.445-6.489-6.253zm11.636-3.695c0-1.99-.951-3.184-2.573-3.184-2.294 0-4.42 2.501-4.42 6.253 0 1.933.951 3.127 2.573 3.127 2.238.057 4.42-2.388 4.42-6.196zm8.503-6.595h4.364l-1.734 8.868 6.937-8.868h4.419l-3.133 16.259h-4.363l1.734-8.869-6.937 8.869h-4.42L164.919.284zm19.804 3.696h-4.475l.727-3.696h13.482l-.727 3.695h-4.476l-2.461 12.62h-4.476l2.406-12.62zM108.641 0c3.412 0 6.769 1.82 6.545 6.253h-3.972c-.224-1.876-1.566-2.387-3.3-2.387-2.798 0-4.532 2.33-5.035 4.945-.448 2.388 1.007 4.093 3.356 4.093a4.27 4.27 0 002.467-.658 4.37 4.37 0 001.673-1.957h4.14c-1.511 4.719-5.538 6.538-9.007 6.538-4.196 0-7.888-2.9-6.88-8.527C99.633 2.672 104.22 0 108.64 0zM29.762 0c3.412 0 6.769 1.82 6.545 6.253h-3.972c-.224-1.876-1.567-2.387-3.3-2.387-2.798 0-4.532 2.33-5.036 4.945-.447 2.388 1.007 4.093 3.357 4.093a4.272 4.272 0 002.467-.658 4.374 4.374 0 001.673-1.957h4.14c-1.51 4.719-5.539 6.538-9.007 6.538-4.196 0-7.888-2.9-6.881-8.527C20.867 2.615 25.398 0 29.762 0z" fill="#171723"/><path d="M197.142 16.827c1.483 0 2.685-1.247 2.685-2.785s-1.202-2.786-2.685-2.786-2.685 1.248-2.685 2.786 1.202 2.785 2.685 2.785z" fill="#ED2426"/></g><defs><clipPath id="clip0"><path fill="#fff" d="M0 0h200.667v22H0z"/></clipPath></defs></svg>