<svg width="80" height="80" fill="none" xmlns="http://www.w3.org/2000/svg"><circle cx="40" cy="40" r="40" fill="#3685D7"/><path d="M42.447 37.272c3.104.384 5.472 1.44 7.104 3.168C51.183 42.168 52 44.328 52 46.92c0 1.952-.496 3.728-1.488 5.328s-2.496 2.88-4.512 3.84c-1.984.928-4.416 1.392-7.296 1.392-2.4 0-4.72-.336-6.96-1.008-2.208-.704-4.096-1.664-5.664-2.88l2.688-4.848c1.216 1.024 2.688 1.84 4.416 2.448a17.33 17.33 0 005.424.864c2.208 0 3.936-.448 5.184-1.344 1.28-.928 1.92-2.176 1.92-3.744s-.608-2.784-1.824-3.648c-1.184-.896-3.008-1.344-5.472-1.344h-3.072v-4.272l7.632-9.072H27.711V23.4h22.896v4.176l-8.16 9.696z" fill="#fff"/></svg>