<svg width="80" height="80" fill="none" xmlns="http://www.w3.org/2000/svg"><circle cx="40" cy="40" r="40" fill="#3685D7"/><path d="M52.48 51.72V57H27.71v-4.176l13.344-12.672c1.504-1.44 2.512-2.688 3.024-3.744.544-1.088.816-2.16.816-3.216 0-1.568-.528-2.768-1.584-3.6-1.056-.832-2.608-1.248-4.656-1.248-3.424 0-6.048 1.168-7.872 3.504l-4.368-3.36c1.312-1.76 3.072-3.12 5.28-4.08 2.24-.992 4.736-1.488 7.488-1.488 3.648 0 6.56.864 8.736 2.592 2.176 1.728 3.264 4.08 3.264 7.056 0 1.824-.384 3.536-1.152 5.136-.768 1.6-2.24 3.424-4.416 5.472L36.64 51.72h15.84z" fill="#fff"/></svg>