<svg width="70" height="70" fill="none" xmlns="http://www.w3.org/2000/svg"><circle cx="35" cy="35" r="35" fill="#FF9700"/><path d="M45.605 34.712H42.67c-.4 0-.787.055-1.155.155a4.398 4.398 0 00-3.919-2.41h-5.19a4.398 4.398 0 00-3.919 2.41 4.384 4.384 0 00-1.155-.155h-2.936A4.4 4.4 0 0020 39.106v4.695a2.64 2.64 0 002.637 2.637h24.726A2.64 2.64 0 0050 43.8v-4.695a4.4 4.4 0 00-4.395-4.394zm-17.595 2.14v7.828h-5.373a.88.88 0 01-.88-.879v-4.694a2.64 2.64 0 012.637-2.637h2.937c.239 0 .47.032.69.092-.007.096-.01.193-.01.29zm12.222 7.828H29.768v-7.828a2.64 2.64 0 012.637-2.636h5.19a2.64 2.64 0 012.637 2.636v7.828zm8.01-.879a.88.88 0 01-.879.879H41.99v-7.828c0-.097-.004-.194-.01-.29.22-.06.45-.092.689-.092h2.937a2.64 2.64 0 012.636 2.636v4.695z" fill="#fff"/><path d="M25.863 26.412a3.91 3.91 0 00-3.905 3.905 3.91 3.91 0 003.905 3.905 3.91 3.91 0 003.905-3.905 3.91 3.91 0 00-3.905-3.905zm0 6.053a2.15 2.15 0 01-2.147-2.148 2.15 2.15 0 012.147-2.147 2.15 2.15 0 012.147 2.147 2.15 2.15 0 01-2.147 2.148zM35 21.562a5.223 5.223 0 00-5.217 5.217A5.223 5.223 0 0035 31.996a5.223 5.223 0 005.217-5.217A5.223 5.223 0 0035 21.562zm0 8.677a3.463 3.463 0 01-3.46-3.46A3.463 3.463 0 0135 23.32a3.463 3.463 0 013.46 3.46A3.463 3.463 0 0135 30.238zm9.137-3.827a3.91 3.91 0 00-3.905 3.905 3.91 3.91 0 003.905 3.905 3.91 3.91 0 003.905-3.905 3.91 3.91 0 00-3.905-3.905zm0 6.053a2.15 2.15 0 01-2.147-2.148 2.15 2.15 0 012.147-2.147 2.15 2.15 0 012.147 2.147 2.15 2.15 0 01-2.147 2.148z" fill="#fff"/></svg>