<svg width="70" height="70" fill="none" xmlns="http://www.w3.org/2000/svg"><circle cx="35" cy="35" r="35" fill="#FF9700"/><g clip-path="url(#clip0)" fill="#fff"><path d="M35.536 49.94c2.294-.326 4.305-2.72 5.57-6.256a27.175 27.175 0 00-5.57-.656v6.912zm3.665-.563a11.118 11.118 0 00.741-.236c.132-.046.264-.093.394-.143.112-.042.222-.087.333-.132l.382-.16a15.885 15.885 0 001.378-.696 13.424 13.424 0 00.662-.4 12.802 12.802 0 00.642-.434c.1-.072.2-.143.297-.215.107-.083.217-.168.325-.254.095-.076.19-.152.285-.23.107-.09.21-.181.313-.273.091-.081.183-.162.272-.245.102-.095.202-.194.302-.292.086-.086.174-.17.258-.257.016-.016.03-.034.047-.05a18.017 18.017 0 00-3.674-1.414 13.305 13.305 0 01-3.426 5.564c.043-.011.087-.02.13-.032.115-.032.227-.067.34-.1zM50 35.506h-6.429a27.804 27.804 0 01-1.082 7.418c1.415.378 2.78.921 4.069 1.619A14.98 14.98 0 0050 35.506zm-14.464-1.072H42.5a26.82 26.82 0 00-1.055-7.154c-1.94.442-3.92.678-5.908.704v6.45zm0-14.434v6.912a27.254 27.254 0 005.57-.656c-1.265-3.536-3.276-5.93-5.57-6.256zm0 21.955a28.31 28.31 0 015.908.705 26.822 26.822 0 001.055-7.154h-6.963v6.45zm11.022-16.558a18.65 18.65 0 01-4.07 1.62 27.804 27.804 0 011.083 7.417H50a14.984 14.984 0 00-3.442-9.037zm-.724-.813l-.047-.05c-.084-.088-.172-.172-.259-.257-.1-.098-.198-.197-.301-.293-.089-.083-.18-.16-.272-.243-.104-.092-.208-.185-.314-.274-.093-.079-.188-.153-.282-.229a11.582 11.582 0 00-.622-.47 12.976 12.976 0 00-.992-.655 15.07 15.07 0 00-.674-.382c-.107-.054-.215-.112-.322-.166a11.838 11.838 0 00-.375-.181 11.64 11.64 0 00-.327-.15c-.127-.056-.255-.106-.383-.16-.11-.045-.22-.09-.332-.132-.13-.05-.262-.096-.394-.142a13.264 13.264 0 00-.742-.238c-.111-.032-.224-.066-.336-.095l-.131-.033a13.305 13.305 0 013.427 5.564 17.994 17.994 0 003.678-1.415zM20 34.434h6.429c.024-2.51.388-5.005 1.082-7.418a18.627 18.627 0 01-4.069-1.619A14.98 14.98 0 0020 34.434zM34.464 49.94v-6.912a27.254 27.254 0 00-5.57.656c1.264 3.536 3.276 5.93 5.57 6.256zm0-14.434H27.5a26.81 26.81 0 001.055 7.154 28.218 28.218 0 015.908-.705v-6.449zm0-15.506c-2.294.326-4.306 2.72-5.57 6.256 1.829.41 3.695.63 5.57.656V20zm0 7.985a28.24 28.24 0 01-5.907-.705 26.808 26.808 0 00-1.056 7.154h6.963v-6.45zm-3.197-7.551l-.13.031c-.114.03-.226.065-.34.097l-.402.122c-.114.037-.226.076-.338.115-.132.047-.263.093-.393.142a15.96 15.96 0 00-.333.133l-.382.16a15.681 15.681 0 00-1.377.696c-.108.06-.213.122-.317.185a13.82 13.82 0 00-.989.65c-.1.071-.198.142-.296.215-.11.082-.214.168-.325.253-.095.077-.191.152-.285.231-.107.089-.209.18-.312.272-.092.081-.184.16-.274.245-.102.095-.2.194-.3.292-.087.085-.175.17-.26.257l-.046.05a18 18 0 003.674 1.415 13.3 13.3 0 013.425-5.561zm-6.796 25.229c.1.098.2.197.302.293.089.082.18.16.272.243.104.093.208.185.314.274.093.078.188.153.282.228.108.087.215.174.328.257.097.073.195.143.293.215a14.388 14.388 0 00.643.436 13.326 13.326 0 00.663.401c.12.069.24.136.361.2.107.054.215.112.322.166a14.707 14.707 0 00.702.33c.127.056.255.107.383.161a12.227 12.227 0 00.726.274 12.547 12.547 0 00.742.237c.112.033.224.066.336.097.044.011.088.02.131.032a13.308 13.308 0 01-3.427-5.565 18 18 0 00-3.673 1.415l.046.05c.08.087.167.17.255.256zm-1.029-1.12a18.647 18.647 0 014.069-1.62 27.816 27.816 0 01-1.082-7.417H20a14.982 14.982 0 003.442 9.037z"/></g><defs><clipPath id="clip0"><path fill="#fff" transform="translate(20 20)" d="M0 0h30v30H0z"/></clipPath></defs></svg>